<svg width="27" height="29" viewBox="0 0 27 29" fill="none" xmlns="http://www.w3.org/2000/svg">
<rect x="4.625" y="3.49829" width="17.9271" height="17.9271" fill="white"/>
<path d="M16.3232 0H10.6389C5.15356 0 0.691406 4.46216 0.691406 9.94749V14.2107C0.691406 18.0653 2.91183 21.5576 6.37568 23.2025V27.9524C6.37568 28.3645 6.89082 28.5777 7.18214 28.2864L11.3103 24.1617H16.3232C21.8085 24.1617 26.2707 19.6996 26.2707 14.2107V9.94749C26.2707 4.46216 21.8085 0 16.3232 0ZM20.0464 18.6448L18.6075 20.0516C17.0941 21.5331 13.1435 19.842 9.66191 16.2858C6.18029 12.726 4.65264 8.73993 6.09147 7.25847L7.5303 5.85161C8.05965 5.33292 8.95848 5.34358 9.55177 5.87292L11.6265 7.99387C12.3655 8.75059 12.0529 10.0189 11.0759 10.3102C10.4009 10.5269 9.94257 11.2694 10.1593 11.9444C10.5181 13.5218 12.5183 15.4936 14.0104 15.8844C14.6818 16.0407 15.435 15.6748 15.6695 15.0033C15.9786 14.0334 17.254 13.7456 17.9965 14.5059L20.0677 16.6233C20.5864 17.1523 20.5793 18.0515 20.0464 18.6448ZM14.7742 6.75008C14.6321 6.75008 14.49 6.75718 14.3514 6.77495C14.0921 6.80337 13.8576 6.61508 13.8292 6.35573C13.8008 6.09639 13.9891 5.86191 14.2484 5.83349C14.4225 5.81217 14.6001 5.80507 14.7742 5.80507C17.3854 5.80507 19.5099 7.92957 19.5099 10.5408C19.5099 10.7149 19.5028 10.8925 19.4815 11.0666C19.4531 11.3224 19.215 11.5142 18.9592 11.4858C18.7035 11.4574 18.5116 11.2193 18.54 10.9636C18.5542 10.825 18.5649 10.6829 18.5649 10.5408C18.5649 8.45181 16.8632 6.75008 14.7742 6.75008ZM17.6163 10.5408C17.6163 10.8001 17.3996 11.0133 17.1403 11.0133C16.8845 11.0133 16.6678 10.8001 16.6678 10.5408C16.6678 9.4963 15.8187 8.64721 14.7742 8.64721C14.5113 8.64721 14.2981 8.43405 14.2981 8.17115C14.2981 7.9118 14.5113 7.69864 14.7742 7.69864C16.3409 7.69864 17.6163 8.97405 17.6163 10.5408ZM21.2294 12.072C21.169 12.3278 20.8955 12.4876 20.6432 12.4201C20.3981 12.3526 20.2489 12.0969 20.3057 11.8517C20.4087 11.4254 20.4585 10.9849 20.4585 10.5408C20.4585 7.40732 17.9077 4.8565 14.7742 4.8565C14.6285 4.8565 14.4793 4.86006 14.3337 4.87427C14.0743 4.89203 13.847 4.69663 13.8256 4.43729C13.8079 4.17439 14.0033 3.94702 14.2626 3.92926C14.4331 3.91505 14.6037 3.90794 14.7742 3.90794C18.4299 3.90794 21.407 6.88508 21.407 10.5408C21.407 11.0559 21.3466 11.5711 21.2294 12.072Z" fill="#665CAC"/>
</svg>
