<svg width="26" height="25" viewBox="0 0 26 25" fill="none" xmlns="http://www.w3.org/2000/svg">
<path d="M13.0632 24.4859C19.8248 24.4859 25.3062 19.0045 25.3062 12.2429C25.3062 5.48135 19.8248 0 13.0632 0C6.30166 0 0.820312 5.48135 0.820312 12.2429C0.820312 19.0045 6.30166 24.4859 13.0632 24.4859Z" fill="#039BE5"/>
<path d="M6.42446 11.9776L18.2287 7.42631C18.7766 7.22838 19.255 7.55996 19.0775 8.3884L19.0785 8.38738L17.0687 17.8563C16.9197 18.5276 16.5208 18.6908 15.9627 18.3746L12.902 16.1188L11.4257 17.541C11.2625 17.7043 11.1247 17.842 10.8084 17.842L11.0258 14.7272L16.6983 9.60249C16.9452 9.38518 16.6432 9.26275 16.3178 9.47904L9.30767 13.8926L6.28571 12.9499C5.62969 12.7418 5.61541 12.2939 6.42446 11.9776Z" fill="white"/>
</svg>
