<svg width="8" height="9" viewBox="0 0 8 9" fill="none" xmlns="http://www.w3.org/2000/svg">
<path d="M6.2601 4.66504C5.30034 4.66504 4.51953 5.44612 4.51953 6.40622C4.51953 7.36631 5.30034 8.14739 6.2601 8.14745C7.21986 8.14739 8.00066 7.36631 8.00066 6.40622C8.00066 5.44612 7.21986 4.66504 6.2601 4.66504ZM6.2601 6.90846C5.98276 6.90846 5.75797 6.68359 5.75797 6.40622C5.75797 6.12884 5.98282 5.90397 6.2601 5.90397C6.53744 5.90397 6.76222 6.12884 6.76222 6.40622C6.76216 6.68359 6.53731 6.90846 6.2601 6.90846Z" fill="black"/>
<path d="M1.74057 3.62713C2.70033 3.62707 3.48113 2.846 3.48113 1.88592C3.48113 1.42087 3.30011 0.9836 2.97132 0.654762C2.64259 0.325862 2.20546 0.144775 1.74057 0.144775C1.74051 0.144775 1.74051 0.144775 1.74051 0.144775C1.27561 0.144775 0.838484 0.325862 0.509756 0.654762C0.181027 0.9836 0 1.42087 0 1.88592C0 2.846 0.780807 3.62707 1.74057 3.62713ZM1.74057 1.38369C2.01784 1.38369 2.24263 1.60855 2.24263 1.88592C2.24263 2.16329 2.01784 2.38822 1.74057 2.38822C1.46329 2.38822 1.2385 2.16329 1.2385 1.88592C1.2385 1.60855 1.46329 1.38369 1.74057 1.38369Z" fill="black"/>
<path d="M7.99963 0.881462C7.99963 0.684682 7.92303 0.499686 7.78394 0.360543C7.64484 0.221399 7.4599 0.144775 7.26318 0.144775C7.06653 0.144775 6.88159 0.221338 6.74237 0.360543L0.215332 6.88967C-0.0717773 7.17687 -0.0717773 7.64425 0.215332 7.93151C0.354431 8.07065 0.539368 8.14734 0.736145 8.14734C0.932861 8.14734 1.1178 8.07072 1.2569 7.93151L7.78394 1.40238C7.92303 1.26324 7.99963 1.07824 7.99963 0.881462Z" fill="black"/>
</svg>
