<svg width="8" height="8" viewBox="0 0 8 8" fill="none" xmlns="http://www.w3.org/2000/svg">
<path d="M7.95457 0.870281C7.80459 0.357813 7.30041 0 6.72844 0C6.72835 0 6.72822 0 6.72814 0H5.99656H2.00336H1.27188C1.27178 0 1.27169 0 1.27158 0C0.699607 0 0.195409 0.357844 0.0454348 0.87025C-0.0310132 1.13147 -0.0486509 1.54509 0.30163 2.03206C0.569189 2.40406 1.00434 2.74705 1.59578 3.05369C1.66911 4.02533 2.50333 4.81878 3.58283 4.98442V5.78091H2.28861C2.05823 5.78091 1.87146 5.94369 1.87146 6.14455V7.63636C1.87146 7.83716 2.05823 8 2.28861 8H5.71137C5.94175 8 6.12852 7.83716 6.12852 7.63636V6.14455C6.12852 5.9437 5.94175 5.78091 5.71137 5.78091H4.41715V4.98508C5.49943 4.82083 6.33616 4.02552 6.40849 3.05148C6.99776 2.74542 7.43142 2.40319 7.69837 2.03206C8.04865 1.54511 8.03101 1.13152 7.95457 0.870281ZM0.853812 1.05006C0.915884 0.838109 1.11092 0.727281 1.27172 0.727281H1.27181H1.58682L1.58915 2.17477C0.944097 1.7425 0.772578 1.3277 0.853812 1.05006ZM6.41374 2.17284V0.727266H6.72828H6.72837C6.88906 0.727266 7.08417 0.838125 7.14622 1.05008C7.2273 1.3273 7.0564 1.74127 6.41374 2.17284Z" fill="black"/>
</svg>
