<svg width="26" height="26" viewBox="0 0 26 26" fill="none" xmlns="http://www.w3.org/2000/svg">
<rect x="5.44922" y="4.3728" width="15.3037" height="15.7409" fill="white"/>
<path d="M13.3208 0C6.31817 0 0.640625 5.67755 0.640625 12.6802C0.640625 15.4571 1.53458 18.028 3.05303 20.1171L1.3095 24.701L6.34037 23.2681C8.34066 24.59 10.7404 25.3604 13.3208 25.3604C20.3234 25.3604 26.001 19.6828 26.001 12.6802C26.001 5.67755 20.3234 0 13.3208 0ZM20.0603 17.9329L18.7099 19.2834C17.2897 20.7036 13.5237 19.1407 10.1856 15.8027C6.8444 12.4614 5.35131 8.69543 6.70175 7.27525L8.05219 5.92481C8.54989 5.42712 9.40263 5.42712 9.97007 5.92481L11.9609 7.9156C12.6709 8.62569 12.3856 9.83348 11.4632 10.1156C10.8228 10.3312 10.398 11.0413 10.6104 11.6816C10.9655 13.1715 12.8833 15.0197 14.3067 15.3747C14.9439 15.5174 15.6571 15.1623 15.8695 14.522C16.1517 13.5995 17.3626 13.3142 18.0727 14.0243L20.0603 16.0151C20.558 16.5128 20.558 17.3655 20.0603 17.9329Z" fill="#4CAF50"/>
</svg>
