<svg width="26" height="26" viewBox="0 0 26 26" fill="none" xmlns="http://www.w3.org/2000/svg">
<path d="M1.64183 1.74782C-0.330429 3.79643 0.0732263 5.97261 0.0732263 12.5838C0.0732263 18.0739 -0.88467 23.5776 4.1286 24.8733C5.69407 25.2759 19.5647 25.2759 21.1281 24.8712C23.2154 24.3326 24.9137 22.6396 25.1459 19.6875C25.1783 19.2754 25.1783 5.89941 25.1448 5.47902C24.898 2.33448 22.9624 0.522217 20.4118 0.155163C19.8272 0.0704582 19.7101 0.0453605 16.7109 0.0401318C6.07263 0.0453605 3.74063 -0.428359 1.64183 1.74782Z" fill="url(#paint0_linear)"/>
<path d="M12.6181 3.32266C8.82105 3.32266 5.21535 2.98489 3.83811 6.51949C3.26923 7.97934 3.35184 9.87526 3.35184 12.59C3.35184 14.9722 3.2755 17.2111 3.83811 18.6595C5.21221 22.1962 8.8472 21.8573 12.616 21.8573C16.2521 21.8573 20.001 22.2359 21.395 18.6595C21.9649 17.185 21.8813 15.3173 21.8813 12.59C21.8813 8.96965 22.081 6.63243 20.3252 4.87768C18.5475 3.09992 16.1433 3.32266 12.6139 3.32266H12.6181ZM11.7878 4.99271C19.7082 4.98016 20.7163 4.09965 20.16 16.3317C19.9624 20.6579 16.6683 20.1831 12.6192 20.1831C5.23626 20.1831 5.02398 19.9719 5.02398 12.5858C5.02398 5.11401 5.60959 4.99689 11.7878 4.99062V4.99271ZM17.5645 6.53099C16.9506 6.53099 16.4529 7.02876 16.4529 7.64261C16.4529 8.25646 16.9506 8.75423 17.5645 8.75423C18.1783 8.75423 18.6761 8.25646 18.6761 7.64261C18.6761 7.02876 18.1783 6.53099 17.5645 6.53099ZM12.6181 7.83084C9.99019 7.83084 7.86002 9.96206 7.86002 12.59C7.86002 15.2179 9.99019 17.3481 12.6181 17.3481C15.2461 17.3481 17.3752 15.2179 17.3752 12.59C17.3752 9.96206 15.2461 7.83084 12.6181 7.83084ZM12.6181 9.50089C16.7017 9.50089 16.707 15.6791 12.6181 15.6791C8.53557 15.6791 8.52929 9.50089 12.6181 9.50089Z" fill="white"/>
<defs>
<linearGradient id="paint0_linear" x1="1.68996" y1="23.5348" x2="25.0156" y2="3.34673" gradientUnits="userSpaceOnUse">
<stop stop-color="#FFDD55"/>
<stop offset="0.5" stop-color="#FF543E"/>
<stop offset="1" stop-color="#C837AB"/>
</linearGradient>
</defs>
</svg>
