<svg width="46" height="46" viewBox="0 0 46 46" fill="none" xmlns="http://www.w3.org/2000/svg">
<path d="M38.8125 1.4375H12.9375C12.7469 1.4375 12.5641 1.51323 12.4293 1.64802C12.2945 1.78281 12.2188 1.96563 12.2188 2.15625V4.89505C10.3152 9.68935 9.33957 14.8016 9.34376 19.96V43.8438C9.34376 44.0344 9.41949 44.2172 9.55428 44.352C9.68907 44.4868 9.87189 44.5625 10.0625 44.5625H41.6875C41.8781 44.5625 42.061 44.4868 42.1957 44.352C42.3305 44.2172 42.4063 44.0344 42.4063 43.8438V19.96C42.4105 14.8016 41.4348 9.68935 39.5313 4.89505V2.15625C39.5313 1.96563 39.4555 1.78281 39.3207 1.64802C39.186 1.51323 39.0031 1.4375 38.8125 1.4375ZM13.6563 2.875H38.0938V4.3125H13.6563V2.875ZM26.2618 43.125H15.8125C15.4313 43.125 15.0656 42.9735 14.796 42.704C14.5265 42.4344 14.375 42.0687 14.375 41.6875C14.375 41.3063 14.5265 40.9406 14.796 40.671C15.0656 40.4015 15.4313 40.25 15.8125 40.25H26.2618C26.0084 40.6867 25.875 41.1826 25.875 41.6875C25.875 42.1924 26.0084 42.6883 26.2618 43.125ZM28.418 38.8125H17.9688C17.5875 38.8125 17.2219 38.661 16.9523 38.3915C16.6827 38.1219 16.5313 37.7562 16.5313 37.375C16.5313 36.9938 16.6827 36.6281 16.9523 36.3585C17.2219 36.089 17.5875 35.9375 17.9688 35.9375H28.418C28.1647 36.3742 28.0313 36.8701 28.0313 37.375C28.0313 37.8799 28.1647 38.3758 28.418 38.8125ZM28.75 43.125C28.4657 43.125 28.1878 43.0407 27.9514 42.8827C27.715 42.7248 27.5307 42.5003 27.4219 42.2376C27.3131 41.9749 27.2847 41.6859 27.3401 41.4071C27.3956 41.1282 27.5325 40.8721 27.7335 40.671C27.9346 40.47 28.1907 40.3331 28.4696 40.2776C28.7484 40.2222 29.0375 40.2506 29.3001 40.3594C29.5628 40.4682 29.7873 40.6525 29.9453 40.8889C30.1032 41.1253 30.1875 41.4032 30.1875 41.6875C30.1871 42.0686 30.0355 42.434 29.766 42.7035C29.4965 42.973 29.1311 43.1245 28.75 43.125ZM29.4688 37.375C29.4688 37.0907 29.5531 36.8128 29.711 36.5764C29.869 36.34 30.0935 36.1557 30.3562 36.0469C30.6188 35.9381 30.9079 35.9097 31.1867 35.9651C31.4656 36.0206 31.7217 36.1575 31.9227 36.3585C32.1238 36.5596 32.2607 36.8157 32.3161 37.0946C32.3716 37.3734 32.3431 37.6624 32.2343 37.9251C32.1255 38.1878 31.9413 38.4123 31.7049 38.5702C31.4685 38.7282 31.1906 38.8125 30.9063 38.8125C30.5252 38.812 30.1598 38.6605 29.8903 38.391C29.6208 38.1215 29.4692 37.7561 29.4688 37.375ZM32.7305 43.125H31.2387C31.492 42.6883 31.6255 42.1924 31.6255 41.6875C31.6255 41.1826 31.492 40.6867 31.2387 40.25H32.731C32.4776 40.6867 32.3442 41.1826 32.3442 41.6875C32.3442 42.1924 32.4776 42.6883 32.731 43.125H32.7305ZM30.9524 34.5012C30.9447 34.5012 30.9371 34.5 30.9293 34.5H17.9688C17.4622 34.4997 16.9646 34.6333 16.5264 34.8873C16.0882 35.1413 15.7249 35.5066 15.4733 35.9463C15.2218 36.3859 15.091 36.8843 15.0941 37.3908C15.0972 37.8973 15.2342 38.394 15.4911 38.8305C15.0166 38.8834 14.5626 39.0538 14.1705 39.3264C13.7784 39.5989 13.4603 39.9648 13.2452 40.3912C13.0301 40.8175 12.9247 41.2908 12.9385 41.7681C12.9523 42.2454 13.0849 42.7118 13.3243 43.125H10.7813V19.96C10.7771 15.1004 11.6743 10.2823 13.4273 5.75H37.766C36.0773 10.2971 35.2147 15.1094 35.2188 19.96V38.8125H33.3949C33.646 38.3791 33.7793 37.8876 33.7817 37.3868C33.7841 36.886 33.6555 36.3932 33.4087 35.9574C33.1618 35.5217 32.8053 35.158 32.3746 34.9025C31.9438 34.6471 31.4537 34.5087 30.9529 34.5012H30.9524ZM35.2188 43.125C34.9345 43.125 34.6565 43.0407 34.4201 42.8827C34.1837 42.7248 33.9995 42.5003 33.8907 42.2376C33.7819 41.9749 33.7534 41.6859 33.8089 41.4071C33.8644 41.1282 34.0013 40.8721 34.2023 40.671C34.4033 40.47 34.6595 40.3331 34.9383 40.2776C35.2172 40.2222 35.5062 40.2506 35.7689 40.3594C36.0315 40.4682 36.256 40.6525 36.414 40.8889C36.572 41.1253 36.6563 41.4032 36.6563 41.6875C36.6558 42.0686 36.5042 42.434 36.2347 42.7035C35.9652 42.973 35.5999 43.1245 35.2188 43.125ZM37.707 43.125C37.8371 42.9013 37.9362 42.661 38.0016 42.4107C38.0117 42.3994 38.0222 42.3885 38.0318 42.3765L38.8125 41.4005L40.1921 43.125H37.707ZM40.9688 19.96V41.7948L39.5313 39.9979V35.2188C39.5313 35.0281 39.4555 34.8453 39.3207 34.7105C39.186 34.5757 39.0031 34.5 38.8125 34.5C38.6219 34.5 38.4391 34.5757 38.3043 34.7105C38.1695 34.8453 38.0938 35.0281 38.0938 35.2188V39.9979L37.7819 40.3877C37.5289 39.8915 37.138 39.4789 36.6563 39.1993V19.96C36.6523 15.5796 37.3811 11.2294 38.8125 7.08948C40.2439 11.2294 40.9727 15.5796 40.9688 19.96Z" fill="black"/>
<path d="M38.0938 30.1875V32.3438C38.0938 32.5344 38.1695 32.7172 38.3043 32.852C38.4391 32.9868 38.6219 33.0625 38.8125 33.0625C39.0031 33.0625 39.1859 32.9868 39.3207 32.852C39.4555 32.7172 39.5312 32.5344 39.5312 32.3438V30.1875C39.5312 29.9969 39.4555 29.8141 39.3207 29.6793C39.1859 29.5445 39.0031 29.4688 38.8125 29.4688C38.6219 29.4688 38.4391 29.5445 38.3043 29.6793C38.1695 29.8141 38.0938 29.9969 38.0938 30.1875Z" fill="black"/>
<path d="M28.75 42.4062C29.147 42.4062 29.4688 42.0845 29.4688 41.6875C29.4688 41.2905 29.147 40.9688 28.75 40.9688C28.353 40.9688 28.0312 41.2905 28.0312 41.6875C28.0312 42.0845 28.353 42.4062 28.75 42.4062Z" fill="black"/>
<path d="M30.9062 38.0938C31.3032 38.0938 31.625 37.772 31.625 37.375C31.625 36.978 31.3032 36.6562 30.9062 36.6562C30.5093 36.6562 30.1875 36.978 30.1875 37.375C30.1875 37.772 30.5093 38.0938 30.9062 38.0938Z" fill="black"/>
<path d="M35.2188 42.4062C35.6157 42.4062 35.9375 42.0845 35.9375 41.6875C35.9375 41.2905 35.6157 40.9688 35.2188 40.9688C34.8218 40.9688 34.5 41.2905 34.5 41.6875C34.5 42.0845 34.8218 42.4062 35.2188 42.4062Z" fill="black"/>
<path d="M31.94 18.9736C31.8251 18.9085 31.6945 18.8763 31.5625 18.8806C31.4305 18.8848 31.3023 18.9254 31.1918 18.9978L28.3932 20.8315C28.4932 19.289 28.1938 17.7467 27.5239 16.3537C26.8539 14.9607 25.8361 13.764 24.5686 12.8791L21.7543 10.911C21.6568 10.8428 21.5439 10.7999 21.4258 10.7861C21.3076 10.7723 21.1879 10.788 21.0773 10.8319C20.9668 10.8757 20.8688 10.9464 20.7923 11.0374C20.7157 11.1284 20.6629 11.237 20.6387 11.3535L20.0604 14.1297C19.6915 15.9088 18.8027 17.5383 17.5065 18.8116C16.3024 20.0019 15.5462 21.5715 15.366 23.255C15.1857 24.9386 15.5924 26.6327 16.5172 28.0509C17.0604 28.8849 17.7635 29.6029 18.586 30.1632C19.4085 30.7236 20.334 31.1153 21.3089 31.3156L22.1624 31.4934C22.6751 31.6006 23.1975 31.6548 23.7212 31.6551C25.4791 31.6548 27.1816 31.0397 28.5339 29.9166C29.6257 29.0132 30.5152 27.8901 31.1445 26.6204C31.7738 25.3508 32.1289 23.9629 32.1867 22.5469L32.3041 19.6278C32.3094 19.4959 32.2782 19.365 32.214 19.2496C32.1498 19.1341 32.055 19.0387 31.94 18.9736ZM25.4596 23.9291C25.5771 24.0091 25.7157 24.0525 25.8578 24.0538C26 24.0551 26.1393 24.0142 26.2582 23.9363L27.6527 23.0226L27.6362 23.4319C27.6071 24.1441 27.4286 24.8422 27.112 25.4808C26.7955 26.1194 26.3481 26.6843 25.799 27.1387C25.3926 27.4761 24.9152 27.7174 24.4024 27.8443C23.8897 27.9713 23.3548 27.9806 22.838 27.8717L22.3101 27.7617C21.8571 27.6687 21.4269 27.4866 21.0447 27.2262C20.6624 26.9658 20.3356 26.6321 20.0832 26.2445C19.6582 25.5928 19.4713 24.8142 19.5541 24.0405C19.6369 23.2668 19.9844 22.5454 20.5378 21.9984C21.5031 21.0501 22.165 19.8366 22.4397 18.5117L22.575 17.8621L23.4219 18.4544C24.1282 18.9476 24.6742 19.6375 24.9918 20.4383C25.3094 21.2391 25.3848 22.1157 25.2085 22.959L25.1607 23.1885C25.1317 23.3277 25.1446 23.4723 25.1978 23.6041C25.251 23.736 25.3421 23.849 25.4596 23.9291ZM30.7502 22.4891C30.7005 23.7032 30.396 24.8934 29.8563 25.9821C29.3165 27.0709 28.5538 28.0339 27.6175 28.8085C26.9091 29.3969 26.0768 29.8175 25.1828 30.0388C24.2889 30.2601 23.3565 30.2764 22.4554 30.0864L21.6019 29.9086C20.812 29.7463 20.0621 29.4289 19.3957 28.9749C18.7293 28.5209 18.1595 27.9392 17.7194 27.2635C16.976 26.1234 16.6491 24.7616 16.794 23.4083C16.9389 22.055 17.5467 20.7933 18.5146 19.8364C20.0133 18.3643 21.0411 16.4802 21.4675 14.4231L21.8235 12.7137L23.7452 14.0572C24.959 14.9046 25.897 16.0899 26.4427 17.4659C26.9885 18.8419 27.1179 20.348 26.8149 21.7969L26.8013 21.8621L26.7375 21.9039C26.7133 20.9914 26.4753 20.0973 26.0425 19.2935C25.6098 18.4898 24.9945 17.7988 24.246 17.2763L22.5054 16.0595C22.4079 15.9913 22.295 15.9485 22.1769 15.9346C22.0588 15.9208 21.9391 15.9366 21.8285 15.9804C21.718 16.0243 21.62 16.0948 21.5435 16.1859C21.4669 16.2769 21.4141 16.3855 21.3899 16.5019L21.0323 18.2186C20.8153 19.2656 20.2921 20.2245 19.5293 20.9738C18.7398 21.7543 18.244 22.7836 18.1258 23.8875C18.0076 24.9914 18.2743 26.1023 18.8807 27.0323C19.2362 27.5781 19.6965 28.048 20.2348 28.4148C20.7731 28.7815 21.3788 29.0379 22.0169 29.169L22.5447 29.2789C22.8803 29.3489 23.2221 29.3843 23.5649 29.3844C24.7154 29.3843 25.8296 28.9819 26.7147 28.2469C27.4196 27.6638 27.9938 26.9389 28.4001 26.1192C28.8064 25.2996 29.0356 24.4037 29.0729 23.4897L29.1302 22.0674L30.8118 20.9655L30.7502 22.4891Z" fill="black"/>
<path d="M30.1875 16.5312C30.3781 16.5312 30.5609 16.4555 30.6957 16.3207C30.8305 16.1859 30.9062 16.0031 30.9062 15.8125V14.375C30.9062 14.1844 30.8305 14.0016 30.6957 13.8668C30.5609 13.732 30.3781 13.6562 30.1875 13.6562C29.9969 13.6562 29.8141 13.732 29.6793 13.8668C29.5445 14.0016 29.4688 14.1844 29.4688 14.375V15.8125C29.4688 16.0031 29.5445 16.1859 29.6793 16.3207C29.8141 16.4555 29.9969 16.5312 30.1875 16.5312Z" fill="black"/>
<path d="M28.0312 12.9375C28.2219 12.9375 28.4047 12.8618 28.5395 12.727C28.6743 12.5922 28.75 12.4094 28.75 12.2188V10.7812C28.75 10.5906 28.6743 10.4078 28.5395 10.273C28.4047 10.1382 28.2219 10.0625 28.0312 10.0625C27.8406 10.0625 27.6578 10.1382 27.523 10.273C27.3882 10.4078 27.3125 10.5906 27.3125 10.7812V12.2188C27.3125 12.4094 27.3882 12.5922 27.523 12.727C27.6578 12.8618 27.8406 12.9375 28.0312 12.9375Z" fill="black"/>
<path d="M30.9062 11.5C31.0969 11.5 31.2797 11.4243 31.4145 11.2895C31.5493 11.1547 31.625 10.9719 31.625 10.7812V9.34375C31.625 9.15313 31.5493 8.97031 31.4145 8.83552C31.2797 8.70073 31.0969 8.625 30.9062 8.625C30.7156 8.625 30.5328 8.70073 30.398 8.83552C30.2632 8.97031 30.1875 9.15313 30.1875 9.34375V10.7812C30.1875 10.9719 30.2632 11.1547 30.398 11.2895C30.5328 11.4243 30.7156 11.5 30.9062 11.5Z" fill="black"/>
<path d="M17.25 15.8125C17.4406 15.8125 17.6234 15.7368 17.7582 15.602C17.893 15.4672 17.9688 15.2844 17.9688 15.0938V12.9375C17.9688 12.7469 17.893 12.5641 17.7582 12.4293C17.6234 12.2945 17.4406 12.2188 17.25 12.2188C17.0594 12.2188 16.8766 12.2945 16.7418 12.4293C16.607 12.5641 16.5312 12.7469 16.5312 12.9375V15.0938C16.5312 15.2844 16.607 15.4672 16.7418 15.602C16.8766 15.7368 17.0594 15.8125 17.25 15.8125Z" fill="black"/>
<path d="M14.375 15.8125C14.1844 15.8125 14.0016 15.8882 13.8668 16.023C13.732 16.1578 13.6562 16.3406 13.6562 16.5312V17.9688C13.6562 18.1594 13.732 18.3422 13.8668 18.477C14.0016 18.6118 14.1844 18.6875 14.375 18.6875C14.5656 18.6875 14.7484 18.6118 14.8832 18.477C15.018 18.3422 15.0938 18.1594 15.0938 17.9688V16.5312C15.0938 16.3406 15.018 16.1578 14.8832 16.023C14.7484 15.8882 14.5656 15.8125 14.375 15.8125Z" fill="black"/>
<path d="M14.375 12.2188C14.1844 12.2188 14.0016 12.2945 13.8668 12.4293C13.732 12.5641 13.6562 12.7469 13.6562 12.9375V13.6562C13.6562 13.8469 13.732 14.0297 13.8668 14.1645C14.0016 14.2993 14.1844 14.375 14.375 14.375C14.5656 14.375 14.7484 14.2993 14.8832 14.1645C15.018 14.0297 15.0938 13.8469 15.0938 13.6562V12.9375C15.0938 12.7469 15.018 12.5641 14.8832 12.4293C14.7484 12.2945 14.5656 12.2188 14.375 12.2188Z" fill="black"/>
</svg>
