<svg width="35" height="35" viewBox="0 0 35 35" fill="none" xmlns="http://www.w3.org/2000/svg">
<path d="M31.8102 11.2739C30.6503 9.82873 29.2534 8.64232 27.6905 7.75151L33.6941 1.74788C33.8965 1.54547 33.8965 1.2173 33.6941 1.01489C33.4917 0.812746 33.1636 0.812746 32.9614 1.01489L26.7268 7.24949C25.2851 6.56723 23.7243 6.12236 22.0922 5.94372C19.776 5.69057 17.4838 5.99045 15.3676 6.79794L13.6619 4.67292C13.5756 4.56558 13.4506 4.49695 13.3139 4.482C13.1777 4.46731 13.0405 4.5071 12.9331 4.59308L9.01821 7.73629C8.80379 7.18113 9.06361 6.67885 9.48258 5.99712C9.85829 5.38536 10.3261 4.62406 9.72611 3.92017C9.51435 3.67183 9.12876 3.41522 8.49403 3.60427C8.15998 3.70361 7.81978 3.90602 7.45956 4.12017C6.41788 4.73915 5.73669 5.06172 5.0611 4.31938C4.86857 4.10789 4.54066 4.0924 4.32917 4.28493C4.11742 4.47773 4.1022 4.80537 4.29473 5.01713C4.86644 5.64491 5.55003 5.89111 6.32602 5.74852C6.93698 5.63637 7.49588 5.30391 7.98908 5.01098C8.26626 4.84623 8.78216 4.53968 8.91968 4.57519C8.91968 4.57519 8.92582 4.57893 8.9373 4.59228C9.03317 4.70497 8.91621 4.93862 8.59951 5.45425C8.16185 6.16615 7.52418 7.2057 8.18748 8.40279L6.78318 9.53019C6.67583 9.61617 6.6072 9.74141 6.59252 9.87786C6.57756 10.0146 6.61735 10.1516 6.70333 10.2586L8.41366 12.3893C6.97036 14.5864 6.13616 17.1598 6.04377 19.8493C6.03416 20.1353 6.25793 20.3751 6.54392 20.3849C6.83071 20.3956 7.06996 20.1708 7.07958 19.8848C7.21416 15.964 9.04411 12.3084 12.1005 9.85463C14.9009 7.60624 18.4094 6.58325 21.9796 6.97392C23.3681 7.12586 24.7011 7.48528 25.9441 8.03189L8.21258 25.764C7.67425 24.5453 7.31884 23.2494 7.16289 21.9145C7.12951 21.6301 6.8729 21.4266 6.58798 21.46C6.30386 21.4931 6.10038 21.7505 6.13349 22.0349C6.31721 23.6066 6.75781 25.1282 7.43099 26.5453L1.29438 32.6819C1.09198 32.8843 1.09198 33.2125 1.29438 33.4146C1.39559 33.5158 1.5283 33.5666 1.66075 33.5666C1.79346 33.5666 1.92591 33.5161 2.02711 33.4146L7.93354 27.5085C8.31112 28.1705 8.74237 28.8046 9.22436 29.4055C11.2816 31.9679 14.0579 33.7121 17.2529 34.4491C18.3247 34.6964 19.4193 34.8187 20.512 34.8187C22.5782 34.8187 24.6373 34.381 26.5188 33.5228C26.7794 33.404 26.894 33.0966 26.7754 32.8363C26.6566 32.5759 26.3492 32.4611 26.0889 32.5799C23.4186 33.7978 20.3632 34.103 17.486 33.4392C14.5198 32.7551 11.9427 31.1358 10.0327 28.7566C9.52477 28.124 9.07803 27.4511 8.69564 26.7464L26.9284 8.51361C28.4801 9.35475 29.8639 10.5046 31.0022 11.9225C33.2503 14.7231 34.2733 18.2316 33.8829 21.8018C33.4923 25.3717 31.7349 28.5761 28.9343 30.8242C28.6473 31.0546 28.3477 31.2757 28.0441 31.4813C27.8072 31.6418 27.7453 31.9641 27.9057 32.201C28.0059 32.3489 28.169 32.4288 28.3354 32.4288C28.4353 32.4288 28.5365 32.3999 28.6254 32.3396C28.9522 32.1182 29.2743 31.8803 29.5832 31.6325C32.5996 29.2108 34.4926 25.7597 34.9131 21.9145C35.334 18.0693 34.2319 14.2903 31.8102 11.2739ZM11.4517 9.0466C10.5427 9.77639 9.73492 10.6053 9.03797 11.5113L7.83607 10.014L13.178 5.72582L14.377 7.21932C13.3452 7.70451 12.3633 8.31494 11.4517 9.0466Z" fill="black"/>
<path d="M32.2259 21.6201C32.568 18.4927 31.6718 15.4189 29.7019 12.9652C29.523 12.7422 29.1967 12.7064 28.9735 12.8856C28.7502 13.0648 28.7147 13.3908 28.8939 13.614C30.6902 15.8518 31.5076 18.655 31.1957 21.5074C30.8835 24.3601 29.4795 26.9204 27.2418 28.7167C27.0185 28.8959 26.9828 29.2219 27.1619 29.4451C27.2642 29.5725 27.4148 29.639 27.5665 29.639C27.6802 29.639 27.7948 29.6016 27.8904 29.5247C30.3441 27.5551 31.8838 24.7478 32.2259 21.6201Z" fill="black"/>
<path d="M2.8586 5.57914C2.89492 5.57914 2.93177 5.5754 2.96835 5.56739C3.0578 5.54817 3.14699 5.52413 3.23351 5.49583C3.50561 5.40717 3.65435 5.11478 3.56569 4.84268C3.47704 4.57057 3.18491 4.42184 2.91254 4.51049C2.8594 4.52758 2.80466 4.54254 2.74992 4.55428C2.47007 4.61463 2.29223 4.89021 2.35258 5.17005C2.40492 5.41305 2.61988 5.57914 2.8586 5.57914Z" fill="black"/>
<path d="M4.51383 3.66988C4.53172 3.67175 4.54934 3.67255 4.5667 3.67255C4.82946 3.67255 5.05456 3.47361 5.08153 3.20658C5.09061 3.11606 5.09542 3.0242 5.09542 2.93314V2.92407C5.09542 2.63781 4.86337 2.40576 4.57711 2.40576C4.29086 2.40576 4.05907 2.63781 4.05907 2.92407V2.93314C4.05907 2.98949 4.05614 3.04637 4.05053 3.10217C4.02169 3.38683 4.22917 3.64104 4.51383 3.66988Z" fill="black"/>
<path d="M2.90378 1.35362C2.95719 1.37071 3.01033 1.39074 3.0616 1.41317C3.12916 1.44281 3.19992 1.45696 3.26935 1.45696C3.46882 1.45696 3.65894 1.34107 3.74413 1.14667C3.85895 0.884449 3.73959 0.5787 3.47736 0.463877C3.39405 0.427294 3.30753 0.394716 3.22075 0.366678C2.94838 0.27936 2.65652 0.429163 2.56893 0.7018C2.48134 0.97417 2.63141 1.26603 2.90378 1.35362Z" fill="black"/>
<path d="M0.332468 2.07776C0.424326 2.14425 0.530604 2.17629 0.635813 2.17629C0.796298 2.17629 0.954646 2.10206 1.05612 1.96214C1.08896 1.91674 1.12474 1.87215 1.16213 1.83022C1.35252 1.6166 1.33356 1.28895 1.11994 1.09856C0.906314 0.908171 0.578936 0.92713 0.388277 1.14075C0.327661 1.20858 0.269983 1.28068 0.216577 1.35438C0.0488823 1.58589 0.100686 1.91007 0.332468 2.07776Z" fill="black"/>
<path d="M1.05917 3.90981C1.02605 3.86442 0.994811 3.81688 0.966506 3.76829C0.821776 3.52128 0.504545 3.43824 0.257543 3.5827C0.0105403 3.72743 -0.0725059 4.04493 0.071957 4.29166C0.117886 4.37044 0.168355 4.44734 0.222295 4.52104C0.323766 4.6599 0.481313 4.7336 0.640997 4.7336C0.747008 4.7336 0.854086 4.70102 0.946212 4.63373C1.17746 4.46523 1.22793 4.14106 1.05917 3.90981Z" fill="black"/>
</svg>
