<svg width="46" height="40" viewBox="0 0 46 40" xmlns="http://www.w3.org/2000/svg">
<path d="M29.1449 0.658691H19.2092C18.8167 0.658691 18.4995 0.976634 18.4995 1.36839C18.4995 1.76014 18.8167 2.07808 19.2092 2.07808H29.1449C29.5374 2.07808 29.8546 1.76014 29.8546 1.36839C29.8546 0.976634 29.5374 0.658691 29.1449 0.658691Z" fill="black"/>
<path d="M25.5969 0.658691C25.2044 0.658691 24.8872 0.976634 24.8872 1.36839V4.91686C24.8872 5.30861 25.2044 5.62655 25.5969 5.62655C25.9894 5.62655 26.3066 5.30861 26.3066 4.91686V1.36839C26.3066 0.976634 25.9894 0.658691 25.5969 0.658691Z" fill="black"/>
<path d="M25.5953 4.20752H22.7566C22.3641 4.20752 22.0469 4.52546 22.0469 4.91721C22.0469 5.30896 22.3641 5.62691 22.7566 5.62691H25.5953C25.9878 5.62691 26.305 5.30896 26.305 4.91721C26.305 4.52546 25.9878 4.20752 25.5953 4.20752Z" fill="black"/>
<path d="M22.7566 0.65918C22.3641 0.65918 22.0469 0.977123 22.0469 1.36887V4.91734C22.0469 5.3091 22.3641 5.62704 22.7566 5.62704C23.149 5.62704 23.4663 5.3091 23.4663 4.91734V1.36887C23.4663 0.977123 23.149 0.65918 22.7566 0.65918Z" fill="black"/>
<path d="M19.2094 14.853H10.6931C10.3006 14.853 9.9834 15.171 9.9834 15.5627C9.9834 15.9545 10.3006 16.2724 10.6931 16.2724H19.2094C19.6019 16.2724 19.9191 15.9545 19.9191 15.5627C19.9191 15.171 19.6019 14.853 19.2094 14.853Z" fill="black"/>
<path d="M29.1472 13.4336C28.7547 13.4336 28.4375 13.7515 28.4375 14.1433V26.2081C28.4375 26.6005 28.7547 26.9178 29.1472 26.9178C29.5397 26.9178 29.8569 26.6005 29.8569 26.2081V14.1433C29.8569 13.7515 29.5397 13.4336 29.1472 13.4336Z" fill="black"/>
<path d="M44.7575 31.1758H42.6433C42.2508 31.1758 41.9336 31.493 41.9336 31.8855C41.9336 32.2779 42.2508 32.5952 42.6433 32.5952H44.7575C45.1499 32.5952 45.4672 32.2779 45.4672 31.8855C45.4672 31.493 45.1499 31.1758 44.7575 31.1758Z" fill="black"/>
<path d="M44.7605 31.1758C44.368 31.1758 44.0508 31.493 44.0508 31.8855V34.7243C44.0508 35.1167 44.368 35.4339 44.7605 35.4339C45.1529 35.4339 45.4702 35.1167 45.4702 34.7243V31.8855C45.4702 31.493 45.1529 31.1758 44.7605 31.1758Z" fill="black"/>
<path d="M7.14631 34.0146C7.1456 34.0146 7.14489 34.0146 7.14418 34.0146L2.17632 34.0296C1.78386 34.031 1.46734 34.3489 1.46875 34.7414C1.47017 35.1331 1.78741 35.4489 2.17845 35.4489C2.17916 35.4489 2.17987 35.4489 2.18058 35.4489L7.14844 35.434C7.5409 35.4326 7.85742 35.1147 7.856 34.7222C7.85458 34.3305 7.53735 34.0146 7.14631 34.0146Z" fill="black"/>
<path d="M44.0488 27.6274H43.3391C42.9466 27.6274 42.6294 27.9447 42.6294 28.3371C42.6294 28.7296 42.9466 29.0468 43.3391 29.0468H44.0488C44.4412 29.0468 44.7585 28.7296 44.7585 28.3371C44.7585 27.9447 44.4412 27.6274 44.0488 27.6274Z" fill="black"/>
<path d="M44.0486 22.6592C43.6561 22.6592 43.3389 22.9764 43.3389 23.3689V31.8852C43.3389 32.2777 43.6561 32.5949 44.0486 32.5949C44.441 32.5949 44.7583 32.2777 44.7583 31.8852V23.3689C44.7583 22.9764 44.441 22.6592 44.0486 22.6592Z" fill="black"/>
<path d="M39.7926 13.4336H29.1472C28.7547 13.4336 28.4375 13.7515 28.4375 14.1433C28.4375 14.535 28.7547 14.853 29.1472 14.853H39.7926C40.1851 14.853 40.5023 14.535 40.5023 14.1433C40.5023 13.7515 40.1851 13.4336 39.7926 13.4336Z" fill="black"/>
<path d="M44.6944 23.0719L40.4362 13.8459C40.2723 13.4904 39.8522 13.3349 39.4945 13.4989C39.1382 13.6628 38.9835 14.0851 39.1474 14.4407L43.4056 23.6667C43.5255 23.9264 43.7825 24.079 44.0507 24.079C44.1501 24.079 44.2508 24.0584 44.3474 24.0137C44.7036 23.8498 44.8583 23.4275 44.6944 23.0719Z" fill="black"/>
<path d="M2.17844 31.1758C1.78598 31.1758 1.46875 31.493 1.46875 31.8855V34.769C1.46875 35.1614 1.78598 35.4787 2.17844 35.4787C2.5709 35.4787 2.88814 35.1607 2.88814 34.769V31.8855C2.88814 31.493 2.5709 31.1758 2.17844 31.1758Z" fill="black"/>
<path d="M0.757546 21.9497C0.365085 21.9497 0.0478516 22.2669 0.0478516 22.6594V31.8854C0.0478516 32.2779 0.365085 32.5951 0.757546 32.5951C1.15001 32.5951 1.46724 32.2779 1.46724 31.8854V22.6594C1.46724 22.2669 1.15001 21.9497 0.757546 21.9497Z" fill="black"/>
<path d="M29.1453 21.9497H0.757546C0.365085 21.9497 0.0478516 22.2669 0.0478516 22.6594C0.0478516 23.0519 0.365085 23.3691 0.757546 23.3691H29.1453C29.5378 23.3691 29.855 23.0519 29.855 22.6594C29.855 22.2669 29.5378 21.9497 29.1453 21.9497Z" fill="black"/>
<path d="M4.30602 31.1758H0.757546C0.365085 31.1758 0.0478516 31.493 0.0478516 31.8855C0.0478516 32.2779 0.365085 32.5952 0.757546 32.5952H4.30602C4.69848 32.5952 5.01571 32.2779 5.01571 31.8855C5.01571 31.493 4.69848 31.1758 4.30602 31.1758Z" fill="black"/>
<path d="M11.4015 29.7563C8.66274 29.7563 6.43359 31.9855 6.43359 34.7242C6.43359 37.4629 8.66274 39.6921 11.4015 39.6921C14.1402 39.6921 16.3693 37.4629 16.3693 34.7242C16.3693 31.9855 14.1402 29.7563 11.4015 29.7563ZM11.4015 38.2727C9.44483 38.2727 7.85298 36.6808 7.85298 34.7242C7.85298 32.7676 9.44483 31.1757 11.4015 31.1757C13.3581 31.1757 14.9499 32.7676 14.9499 34.7242C14.9499 36.6808 13.3581 38.2727 11.4015 38.2727Z" fill="black"/>
<path d="M11.403 32.5952C10.2292 32.5952 9.27393 33.5505 9.27393 34.7243C9.27393 35.8981 10.2292 36.8534 11.403 36.8534C12.5768 36.8534 13.5321 35.8981 13.5321 34.7243C13.5321 33.5505 12.5768 32.5952 11.403 32.5952ZM11.403 35.434C11.0113 35.434 10.6933 35.1161 10.6933 34.7243C10.6933 34.3325 11.0113 34.0146 11.403 34.0146C11.7948 34.0146 12.1127 34.3325 12.1127 34.7243C12.1127 35.1161 11.7948 35.434 11.403 35.434Z" fill="black"/>
<path d="M34.8244 32.5952C33.6506 32.5952 32.6953 33.5505 32.6953 34.7243C32.6953 35.8981 33.6506 36.8534 34.8244 36.8534C35.9982 36.8534 36.9535 35.8981 36.9535 34.7243C36.9535 33.5505 35.9982 32.5952 34.8244 32.5952ZM34.8244 35.434C34.4326 35.434 34.1147 35.1161 34.1147 34.7243C34.1147 34.3325 34.4326 34.0146 34.8244 34.0146C35.2161 34.0146 35.5341 34.3325 35.5341 34.7243C35.5341 35.1161 35.2161 35.434 34.8244 35.434Z" fill="black"/>
<path d="M34.8228 29.7563C32.0841 29.7563 29.855 31.9855 29.855 34.7242C29.855 37.4629 32.0841 39.6921 34.8228 39.6921C37.5615 39.6921 39.7907 37.4629 39.7907 34.7242C39.7907 31.9855 37.5615 29.7563 34.8228 29.7563ZM34.8228 38.2727C32.8662 38.2727 31.2744 36.6808 31.2744 34.7242C31.2744 32.7676 32.8662 31.1757 34.8228 31.1757C36.7795 31.1757 38.3713 32.7676 38.3713 34.7242C38.3713 36.6808 36.7795 38.2727 34.8228 38.2727Z" fill="black"/>
<path d="M30.5841 34.0146H15.6628C15.2704 34.0146 14.9531 34.3319 14.9531 34.7243C14.9531 35.1168 15.2704 35.434 15.6628 35.434H30.5841C30.9766 35.434 31.2938 35.1168 31.2938 34.7243C31.2938 34.3319 30.9766 34.0146 30.5841 34.0146Z" fill="black"/>
<path d="M44.7583 34.0146H39.0808C38.6883 34.0146 38.3711 34.3319 38.3711 34.7243C38.3711 35.1168 38.6883 35.434 39.0808 35.434H44.7583C45.1508 35.434 45.468 35.1168 45.468 34.7243C45.468 34.3319 45.1508 34.0146 44.7583 34.0146Z" fill="black"/>
<path d="M44.0502 22.6592H35.5339C35.1415 22.6592 34.8242 22.9764 34.8242 23.3689C34.8242 23.7613 35.1415 24.0786 35.5339 24.0786H44.0502C44.4427 24.0786 44.7599 23.7613 44.7599 23.3689C44.7599 22.9764 44.4427 22.6592 44.0502 22.6592Z" fill="black"/>
<path d="M35.5324 22.6596C34.3585 22.6596 33.4033 21.7043 33.4033 20.5305C33.4033 20.1387 33.086 19.8208 32.6936 19.8208C32.3011 19.8208 31.9839 20.1387 31.9839 20.5305C31.9839 22.4871 33.5757 24.079 35.5324 24.079C35.9248 24.079 36.242 23.7617 36.242 23.3693C36.242 22.9768 35.9248 22.6596 35.5324 22.6596Z" fill="black"/>
<path d="M32.6936 13.4336C32.3011 13.4336 31.9839 13.7515 31.9839 14.1433V20.5305C31.9839 20.923 32.3011 21.2402 32.6936 21.2402C33.086 21.2402 33.4033 20.923 33.4033 20.5305V14.1433C33.4033 13.7515 33.086 13.4336 32.6936 13.4336Z" fill="black"/>
<path d="M29.1472 0.65918C28.7547 0.65918 28.4375 0.977123 28.4375 1.36887V22.6597C28.4375 23.0522 28.7547 23.3694 29.1472 23.3694C29.5397 23.3694 29.8569 23.0522 29.8569 22.6597V1.36887C29.8569 0.977123 29.5397 0.65918 29.1472 0.65918Z" fill="black"/>
<path d="M19.2092 0.658691C18.8167 0.658691 18.4995 0.976634 18.4995 1.36839V22.6592C18.4995 23.0517 18.8167 23.3689 19.2092 23.3689C19.6017 23.3689 19.9189 23.0517 19.9189 22.6592V1.36839C19.9189 0.976634 19.6017 0.658691 19.2092 0.658691Z" fill="black"/>
<path d="M10.6931 6.33643C10.3006 6.33643 9.9834 6.65437 9.9834 7.04612V22.6594C9.9834 23.0518 10.3006 23.3691 10.6931 23.3691C11.0856 23.3691 11.4028 23.0518 11.4028 22.6594V7.04612C11.4028 6.65437 11.0856 6.33643 10.6931 6.33643Z" fill="black"/>
<path d="M14.9514 14.853C14.5589 14.853 14.2417 15.171 14.2417 15.5627V17.6918C14.2417 18.0836 14.5589 18.4015 14.9514 18.4015C15.3439 18.4015 15.6611 18.0836 15.6611 17.6918V15.5627C15.6611 15.171 15.3439 14.853 14.9514 14.853Z" fill="black"/>
<path d="M19.2094 6.33643H10.6931C10.3006 6.33643 9.9834 6.65437 9.9834 7.04612C9.9834 7.43787 10.3006 7.75581 10.6931 7.75581H19.2094C19.6019 7.75581 19.9191 7.43787 19.9191 7.04612C19.9191 6.65437 19.6019 6.33643 19.2094 6.33643Z" fill="black"/>
<path d="M14.9514 6.33643C14.5589 6.33643 14.2417 6.65437 14.2417 7.04612V8.46551C14.2417 8.85726 14.5589 9.1752 14.9514 9.1752C15.3439 9.1752 15.6611 8.85726 15.6611 8.46551V7.04612C15.6611 6.65437 15.3439 6.33643 14.9514 6.33643Z" fill="black"/>
<path d="M2.17844 11.3042C1.78598 11.3042 1.46875 11.6221 1.46875 12.0139V22.6593C1.46875 23.0518 1.78598 23.369 2.17844 23.369C2.5709 23.369 2.88814 23.0518 2.88814 22.6593V12.0139C2.88814 11.6221 2.5709 11.3042 2.17844 11.3042Z" fill="black"/>
<path d="M10.6948 11.3042H2.17844C1.78598 11.3042 1.46875 11.6221 1.46875 12.0139C1.46875 12.4056 1.78598 12.7236 2.17844 12.7236H10.6948C11.0872 12.7236 11.4045 12.4056 11.4045 12.0139C11.4045 11.6221 11.0872 11.3042 10.6948 11.3042Z" fill="black"/>
<path d="M5.01438 11.3042C4.62192 11.3042 4.30469 11.6221 4.30469 12.0139V14.143C4.30469 14.5347 4.62192 14.8527 5.01438 14.8527C5.40684 14.8527 5.72408 14.5347 5.72408 14.143V12.0139C5.72408 11.6221 5.40684 11.3042 5.01438 11.3042Z" fill="black"/>
<path d="M7.85316 13.4336H5.01438C4.62192 13.4336 4.30469 13.7515 4.30469 14.1433C4.30469 14.535 4.62192 14.853 5.01438 14.853H7.85316C8.24562 14.853 8.56285 14.535 8.56285 14.1433C8.56285 13.7515 8.24562 13.4336 7.85316 13.4336Z" fill="black"/>
<path d="M7.85423 11.3042C7.46176 11.3042 7.14453 11.6221 7.14453 12.0139V14.143C7.14453 14.5347 7.46176 14.8527 7.85423 14.8527C8.24669 14.8527 8.56392 14.5347 8.56392 14.143V12.0139C8.56392 11.6221 8.24669 11.3042 7.85423 11.3042Z" fill="black"/>
</svg>
