<svg width="10" height="10" viewBox="0 0 10 10" fill="none" xmlns="http://www.w3.org/2000/svg">
<path d="M9.70703 2.57812H0.292969C0.131172 2.57812 0 2.7093 0 2.87109C0 3.03289 0.131172 3.16406 0.292969 3.16406H1.19141V3.26172C1.19141 4.32242 2.00086 5.1976 3.03449 5.30205L1.59707 9.61432C1.54592 9.76781 1.62887 9.93373 1.78236 9.9849C1.81309 9.99514 1.84434 10 1.87504 10C1.9977 10 2.11201 9.92234 2.15295 9.79959L3.12781 6.875H6.87217L7.2383 7.97344C6.89508 8.15295 6.66016 8.51234 6.66016 8.92578C6.66016 9.51811 7.14205 10 7.73438 10C8.3267 10 8.80859 9.51811 8.80859 8.92578C8.80859 8.36111 8.37055 7.89713 7.81648 7.85502L6.96549 5.30205C7.99914 5.19762 8.80859 4.32244 8.80859 3.26172V3.16406H9.70703C9.86883 3.16406 10 3.03289 10 2.87109C10 2.7093 9.86883 2.57812 9.70703 2.57812ZM3.32312 6.28906L3.64865 5.3125H6.35135L6.67687 6.28906H3.32312ZM7.73438 8.63281C7.89592 8.63281 8.02734 8.76424 8.02734 8.92578C8.02734 9.08732 7.89592 9.21875 7.73438 9.21875C7.57283 9.21875 7.44141 9.08732 7.44141 8.92578C7.44141 8.76424 7.57283 8.63281 7.73438 8.63281Z" fill="#2D2C2C"/>
<path d="M8.80859 1.85547C8.80859 1.15545 8.23908 0.585938 7.53906 0.585938H5.29297V0.292969C5.29297 0.131172 5.1618 0 5 0C4.8382 0 4.70703 0.131172 4.70703 0.292969V0.585938H2.46094C1.76092 0.585938 1.19141 1.15545 1.19141 1.85547V1.99219H8.80859V1.85547Z" fill="#2D2C2C"/>
</svg>
