<svg width="40" height="40" viewBox="0 0 40 40" fill="none" xmlns="http://www.w3.org/2000/svg">
<path d="M20.0106 6.63174C20.0106 3.60097 18.0838 0.893374 15.3249 0.0473332C15.0767 -0.0289117 14.8069 0.0172924 14.5983 0.17166C14.3894 0.326109 14.2662 0.570354 14.2662 0.829945V4.56856H10.5545L10.5541 0.829864C10.5541 0.57019 10.431 0.325864 10.2222 0.17166C10.0133 0.0172107 9.74369 -0.0289934 9.49552 0.0473332C6.73634 0.893374 4.80957 3.60097 4.80957 6.63174C4.80957 8.94456 5.87202 11.1342 7.67153 12.5721V27.4019C5.87202 28.8397 4.80957 31.0293 4.80957 33.3421C4.80957 36.3729 6.73643 38.9986 9.49536 39.8446C9.74385 39.9208 10.0133 39.9564 10.2221 39.802C10.4309 39.6476 10.554 39.4034 10.554 39.1437V35.4052H14.2661V39.1437C14.2661 39.4035 14.3924 39.6435 14.5981 39.802C14.8061 39.9625 15.1158 39.9904 15.3247 39.9264C18.0845 39.0832 20.0105 36.3729 20.0105 33.342C20.0105 31.0292 18.9481 28.8396 17.1485 27.4018V12.5721C18.9483 11.1343 20.0106 8.94456 20.0106 6.63174ZM15.8561 28.4772C17.4322 29.5961 18.3732 31.4148 18.3732 33.3422C18.3732 35.2419 17.3986 36.9708 15.9035 37.8837V34.5866C15.9035 34.1345 15.537 33.768 15.0848 33.768H9.73544C9.28336 33.768 8.91675 34.1345 8.91675 34.5866V37.8837C7.42157 36.9708 6.44696 35.2419 6.44696 33.3422C6.44696 31.4148 7.38793 29.5961 8.9641 28.4772C9.1805 28.3237 9.30899 28.0749 9.30899 27.8096V12.1643C9.30899 11.8991 9.18059 11.6502 8.9641 11.4967C7.38793 10.3779 6.44696 8.55917 6.44696 6.63174C6.44696 4.73199 7.42149 3.00292 8.91691 2.09011L8.91724 5.38741C8.91732 5.8395 9.28385 6.20603 9.73593 6.20603H15.0848C15.537 6.20603 15.9035 5.8395 15.9035 5.38733V2.09027C17.3986 3.00309 18.3732 4.73207 18.3732 6.63174C18.3732 8.55909 17.4322 10.3779 15.8561 11.4967C15.6398 11.6502 15.5113 11.8991 15.5113 12.1643V27.8096C15.5113 28.0749 15.6398 28.3237 15.8561 28.4772Z" fill="black"/>
<path d="M33.1418 18.2327V8.25739L34.5736 5.9591C34.7137 5.7342 34.7362 5.45543 34.6342 5.21086L32.6693 0.503347C32.5421 0.198531 32.2442 0 31.9138 0H28.639C28.3087 0 28.0108 0.198531 27.8835 0.503347L25.9186 5.21086C25.8167 5.45543 25.8392 5.7342 25.9793 5.9591L27.411 8.25739V18.2327C26.2412 18.4948 25.3643 19.5407 25.3643 20.7885V37.3802C25.3643 38.8247 26.5395 40 27.9841 40H32.5688C34.0134 40 35.1887 38.8247 35.1887 37.3802V20.7885C35.1886 19.5408 34.3116 18.4948 33.1418 18.2327ZM29.1845 1.63747H31.3684L32.9605 5.45192L31.6284 7.59045C31.5474 7.72033 31.5046 7.87037 31.5046 8.02327V18.1687H29.0484V8.02318C29.0484 7.87029 29.0056 7.72024 28.9245 7.59037L27.5924 5.45184L29.1845 1.63747ZM33.5513 37.3802C33.5513 37.922 33.1106 38.3625 32.5688 38.3625H27.9841C27.4424 38.3625 27.0016 37.922 27.0016 37.3802V20.7885C27.0016 20.2468 27.4424 19.8061 27.9841 19.8061H32.5688C33.1106 19.8061 33.5513 20.2468 33.5513 20.7885V37.3802Z" fill="black"/>
</svg>
