<svg width="41" height="40" viewBox="0 0 41 40" xmlns="http://www.w3.org/2000/svg">
<path d="M31.8685 1.33793C31.0189 0.488339 29.8894 0.0205078 28.688 0.0205078C27.4864 0.0205078 26.3569 0.488416 25.5074 1.33793L2.80329 24.042C2.29652 24.5487 1.94999 25.1872 1.80095 25.8883L0.559865 31.7302C0.505471 31.9861 0.58428 32.2521 0.769326 32.437C0.91574 32.5835 1.11292 32.6634 1.31566 32.6634C1.36905 32.6634 1.4229 32.6578 1.47621 32.6465L7.31811 31.4054C8.01912 31.2565 8.65755 30.9099 9.1644 30.4032L31.8685 7.69904C33.6223 5.94531 33.6223 3.09173 31.8685 1.33793ZM23.5744 5.45631L27.7501 9.63202L26.9161 10.466L22.7404 6.29029L23.5744 5.45631ZM19.721 9.30967L21.2625 10.8512L6.87987 25.2338C6.351 25.2442 5.84701 25.0435 5.46726 24.6636C5.27565 24.4721 5.12823 24.2466 5.03126 23.9993L19.721 9.30967ZM2.68407 29.1676L4.03881 30.5224L2.31862 30.8878L2.68407 29.1676ZM6.997 29.8938L5.84122 30.1394L3.06691 27.3651L3.31246 26.2095C3.39814 25.806 3.59632 25.4382 3.88591 25.1448C4.02413 25.3644 4.18762 25.5695 4.37452 25.7564C4.94457 26.3264 5.67116 26.6724 6.44781 26.7586C6.53404 27.5352 6.87995 28.2618 7.45008 28.8319C7.63698 29.0188 7.84203 29.1822 8.06162 29.3205C7.76825 29.61 7.40047 29.8082 6.997 29.8938ZM9.20705 28.1752C8.9598 28.0782 8.73435 27.9308 8.54274 27.7392C8.16283 27.3594 7.96156 26.8546 7.97261 26.3265L22.3552 11.9439L23.8967 13.4854L9.20705 28.1752ZM24.9894 12.3927L20.8137 8.21701L21.6477 7.38303L25.8234 11.5587L24.9894 12.3927ZM30.7758 6.60638L28.8429 8.53936L24.6671 4.36365L26.6001 2.43059C27.1578 1.8729 27.8993 1.56578 28.6879 1.56578C29.4765 1.56578 30.2181 1.8729 30.7757 2.43059C31.9271 3.58189 31.9271 5.45507 30.7758 6.60638Z" fill="black"/>
<path d="M39.3292 25.6462C38.9025 25.6462 38.5566 25.9921 38.5566 26.4188V37.5997C38.5566 37.8393 38.3616 38.0342 38.1222 38.0342H8.14178C7.87978 38.0342 7.77385 37.8467 7.74047 37.766C7.7071 37.6853 7.64938 37.4778 7.83466 37.2926L10.5687 34.5586L11.6713 35.6612C11.8222 35.8121 12.0199 35.8875 12.2177 35.8875C12.4154 35.8875 12.6132 35.8121 12.764 35.6612C13.0657 35.3595 13.0657 34.8702 12.764 34.5685L11.6614 33.4658L15.2527 29.8746L16.3552 30.9772C16.5061 31.1281 16.7038 31.2035 16.9015 31.2035C17.0993 31.2035 17.297 31.1281 17.4479 30.9772C17.7496 30.6755 17.7496 30.1862 17.4479 29.8844L16.3453 28.7819L19.9365 25.1907L21.0391 26.2932C21.19 26.4441 21.3877 26.5195 21.5854 26.5195C21.7832 26.5195 21.9808 26.444 22.1317 26.2932C22.4335 25.9915 22.4335 25.5023 22.1317 25.2006L21.0292 24.098L24.6204 20.5068L25.7229 21.6093C25.8738 21.7602 26.0716 21.8356 26.2693 21.8356C26.4671 21.8356 26.6647 21.7602 26.8156 21.6093C27.1173 21.3076 27.1173 20.8184 26.8156 20.5167L25.7131 19.4141L29.3043 15.8229L30.4068 16.9255C30.5577 17.0764 30.7554 17.1518 30.9532 17.1518C31.1509 17.1518 31.3486 17.0763 31.4995 16.9255C31.8012 16.6238 31.8012 16.1345 31.4995 15.8328L30.3969 14.7303L33.9881 11.139L35.0906 12.2416C35.2415 12.3925 35.4392 12.4679 35.6369 12.4679C35.8347 12.4679 36.0324 12.3924 36.1833 12.2416C36.485 11.9399 36.485 11.4507 36.1833 11.1489L35.0807 10.0463L37.8148 7.31226C38.0001 7.12698 38.2076 7.1847 38.2882 7.21808C38.3688 7.25145 38.5564 7.35746 38.5564 7.61938V17.9199C38.5564 18.3467 38.9023 18.6926 39.329 18.6926C39.7556 18.6926 40.1016 18.3467 40.1016 17.9199V7.61931C40.1016 6.81577 39.6219 6.09783 38.8795 5.79032C38.1375 5.48289 37.2904 5.65125 36.7221 6.21945L6.742 36.1999C6.1738 36.7681 6.00529 37.6149 6.3128 38.3573C6.62031 39.0997 7.33816 39.5794 8.14178 39.5794H38.1222C39.2138 39.5794 40.1019 38.6913 40.1019 37.5997V26.4188C40.1019 25.9921 39.7559 25.6462 39.3292 25.6462Z" fill="black"/>
<path d="M39.3287 21.4224H39.3279C38.9012 21.4224 38.5557 21.7683 38.5557 22.195C38.5557 22.6217 38.902 22.9677 39.3287 22.9677C39.7554 22.9677 40.1013 22.6217 40.1013 22.195C40.1013 21.7683 39.7554 21.4224 39.3287 21.4224Z" fill="black"/>
<path d="M33.3744 17.2161L17.7385 32.852C17.5175 33.073 17.4515 33.4053 17.571 33.694C17.6906 33.9827 17.9723 34.1709 18.2848 34.1709L33.9208 34.171C34.1257 34.171 34.3221 34.0896 34.4671 33.9447C34.612 33.7998 34.6934 33.6033 34.6934 33.3984V17.7624C34.6934 17.45 34.5052 17.1682 34.2164 17.0486C33.9277 16.929 33.5953 16.9952 33.3744 17.2161ZM33.1481 32.6258L20.1501 32.6257L33.1481 19.6278V32.6258Z" fill="black"/>
</svg>
