<svg width="40" height="40" viewBox="0 0 40 40" fill="none" xmlns="http://www.w3.org/2000/svg">
<path d="M36.875 21.875H35.625H10.6316C10.6303 21.875 10.6291 21.875 10.6278 21.875H4.375H3.125C2.09109 21.875 1.25 22.7162 1.25 23.75C1.25 24.0952 1.52984 24.375 1.875 24.375C2.22016 24.375 2.5 24.0952 2.5 23.75C2.5 23.4054 2.78039 23.125 3.125 23.125H3.63719L2.18617 31.8315C1.96664 33.149 2.22414 34.5053 2.91133 35.6505L3.75 37.0481V39.2969C3.75 39.6846 4.06547 40 4.45312 40H35.5469C35.9345 40 36.25 39.6846 36.25 39.2969V37.0481L37.0887 35.6505C37.7759 34.5053 38.0334 33.149 37.8138 31.8315L36.3628 23.125H36.875C37.2196 23.125 37.5 23.4054 37.5 23.75C37.5 24.0952 37.7798 24.375 38.125 24.375C38.4702 24.375 38.75 24.0952 38.75 23.75C38.75 22.7162 37.9089 21.875 36.875 21.875ZM32.8918 35.0074L32.1462 36.25H30.2982L30.7398 35.1461C31.0823 34.2897 31.2096 33.3524 31.1077 32.4356L30.0733 23.125H31.9705L33.4559 32.037C33.6266 33.0617 33.4263 34.1166 32.8918 35.0074ZM27.0784 36.25L27.4952 34.7898C27.6802 34.142 27.747 33.473 27.6937 32.8011L26.9265 23.125H28.8155L29.8654 32.5737C29.9446 33.2867 29.8457 34.0157 29.5791 34.6817L28.9519 36.25H27.0784ZM23.7862 36.25L23.9148 33.9647C23.9223 33.831 23.925 33.6952 23.9229 33.5609L23.7598 23.125H25.6726L26.4476 32.8999C26.489 33.4224 26.4371 33.9428 26.2932 34.4466L25.7784 36.25H23.7862ZM20.625 36.25V23.125H22.5097L22.673 33.5805C22.6747 33.6849 22.6726 33.7906 22.6667 33.8946L22.5342 36.25H20.625ZM17.4621 36.25L17.3159 33.9106C17.3087 33.7947 17.306 33.6773 17.308 33.5616L17.4893 23.125H19.375V36.25H17.4621ZM7.85383 36.25L7.1082 35.0074C6.57375 34.1167 6.37344 33.0618 6.54414 32.037L8.02945 23.125H9.92672L8.89219 32.4356C8.79031 33.3524 8.91758 34.2897 9.26016 35.1461L9.70172 36.25H7.85383ZM11.0481 36.25L10.4208 34.6818C10.1543 34.0158 10.0553 33.2868 10.1345 32.5737L11.1845 23.125H13.0731L12.3009 32.7945C12.247 33.4709 12.3146 34.1445 12.5021 34.7966L12.92 36.25H11.0481ZM14.2206 36.25L13.7034 34.4512C13.5576 33.9441 13.5049 33.4202 13.547 32.894L14.3271 23.125H16.2391L16.0583 33.5399C16.0556 33.6885 16.0591 33.8395 16.0684 33.9885L16.2098 36.25H14.2206ZM3.41914 32.037L4.90445 23.125H6.76227L5.31117 31.8315C5.09164 33.149 5.34914 34.5053 6.03633 35.6505L6.39602 36.25H4.72883L3.9832 35.0074C3.44875 34.1166 3.24844 33.0617 3.41914 32.037ZM35 38.75H5V37.5H7.49937C7.49977 37.5 7.50016 37.5001 7.50055 37.5001C7.50094 37.5001 7.50133 37.5 7.50172 37.5H10.6231C10.6238 37.5 10.6245 37.5002 10.6252 37.5002C10.6263 37.5002 10.6273 37.5 10.6284 37.5H13.7478C13.7484 37.5 13.7491 37.5002 13.7497 37.5002C13.7504 37.5002 13.7512 37.5 13.7519 37.5H26.2481C26.2488 37.5 26.2496 37.5002 26.2503 37.5002C26.2509 37.5002 26.2516 37.5 26.2522 37.5H29.3716C29.3727 37.5 29.3737 37.5002 29.3748 37.5002C29.3755 37.5002 29.3762 37.5 29.3769 37.5H32.4983C32.4987 37.5 32.4991 37.5001 32.4995 37.5001C32.4998 37.5001 32.5002 37.5 32.5006 37.5H35V38.75ZM36.0168 35.0074L35.2712 36.25H33.604L33.9637 35.6505C34.6509 34.5053 34.9084 33.149 34.6888 31.8315L33.2378 23.125H35.0955L36.5809 32.037C36.7516 33.0617 36.5513 34.1166 36.0168 35.0074Z" fill="black"/>
<path d="M8.125 20.625C8.47016 20.625 8.75 20.3452 8.75 20V1.25H31.25V20C31.25 20.3452 31.5298 20.625 31.875 20.625C32.2202 20.625 32.5 20.3452 32.5 20V1.25C32.5 0.560781 31.9392 0 31.25 0H8.75C8.06078 0 7.5 0.560781 7.5 1.25V20C7.5 20.3452 7.77984 20.625 8.125 20.625Z" fill="black"/>
<path d="M29.375 20.625C29.7202 20.625 30 20.3452 30 20V3.125C30 2.77984 29.7202 2.5 29.375 2.5H10.625C10.2798 2.5 10 2.77984 10 3.125V20C10 20.3452 10.2798 20.625 10.625 20.625C10.9702 20.625 11.25 20.3452 11.25 20V10.625H17.4999C17.8451 10.625 18.1249 10.3452 18.1249 10C18.1249 9.65484 17.8451 9.375 17.4999 9.375H11.25V3.75H19.375V20C19.375 20.3452 19.6548 20.625 20 20.625C20.3452 20.625 20.625 20.3452 20.625 20V10.625H28.75V20C28.75 20.3452 29.0298 20.625 29.375 20.625ZM20.625 9.375V3.75H28.75V9.375H20.625Z" fill="black"/>
</svg>
