<svg width="14" height="24" viewBox="0 0 14 24" fill="none" xmlns="http://www.w3.org/2000/svg">
<path d="M0.90206 11.1723L10.9149 1.15974C11.1464 0.927975 11.4556 0.800293 11.7852 0.800293C12.1148 0.800293 12.424 0.927975 12.6556 1.15974L13.3929 1.89693C13.8728 2.37729 13.8728 3.15802 13.3929 3.63765L4.98496 12.0456L13.4023 20.4629C13.6339 20.6947 13.7617 21.0037 13.7617 21.3331C13.7617 21.6629 13.6339 21.9719 13.4023 22.2038L12.6649 22.9408C12.4331 23.1726 12.1242 23.3003 11.7945 23.3003C11.4649 23.3003 11.1558 23.1726 10.9242 22.9408L0.90206 12.9191C0.669928 12.6866 0.542429 12.3762 0.543161 12.0462C0.542429 11.7149 0.669928 11.4047 0.90206 11.1723Z" fill="black"/>
</svg>
