<svg width="46" height="46" viewBox="0 0 46 46" fill="none" xmlns="http://www.w3.org/2000/svg">
<path d="M2.875 12.2188C2.87564 11.6471 3.10302 11.099 3.50726 10.6948C3.9115 10.2905 4.45957 10.0631 5.03125 10.0625H9.34321C8.48251 10.47 7.75534 11.1136 7.24642 11.9185C6.7375 12.7234 6.4678 13.6563 6.46875 14.6086V22.2812C6.47025 23.6152 7.00081 24.894 7.94402 25.8372C8.88724 26.7804 10.1661 27.311 11.5 27.3125H34.5C35.8339 27.311 37.1128 26.7804 38.056 25.8372C38.9992 24.894 39.5298 23.6152 39.5312 22.2812V9.34375C39.5298 8.00984 38.9992 6.73099 38.056 5.78777C37.1128 4.84456 35.8339 4.314 34.5 4.3125H28.2073C27.0613 4.31216 25.9228 4.49692 24.8358 4.85965L13.5395 8.625H5.03125C4.07846 8.62607 3.16499 9.00504 2.49127 9.67877C1.81754 10.3525 1.43857 11.266 1.4375 12.2188V14.375H2.875V12.2188ZM38.0938 22.2812C38.0927 23.234 37.7137 24.1475 37.04 24.8212C36.3663 25.495 35.4528 25.8739 34.5 25.875H11.5C10.5472 25.8739 9.63374 25.495 8.96002 24.8212C8.28629 24.1475 7.90732 23.234 7.90625 22.2812V22.2038C8.37374 22.6835 8.9326 23.0647 9.54983 23.3249C10.1671 23.5851 10.8302 23.719 11.5 23.7188H34.5C35.1698 23.719 35.8329 23.5851 36.4502 23.3249C37.0674 23.0647 37.6263 22.6835 38.0938 22.2038V22.2812ZM25.2904 6.22339C26.2308 5.90951 27.2158 5.74966 28.2073 5.75H34.5C35.4528 5.75107 36.3663 6.13004 37.04 6.80377C37.7137 7.47749 38.0927 8.39096 38.0938 9.34375V18.6875C38.0927 19.6403 37.7137 20.5538 37.04 21.2275C36.3663 21.9012 35.4528 22.2802 34.5 22.2812H11.5C10.5472 22.2802 9.63374 21.9012 8.96002 21.2275C8.28629 20.5538 7.90732 19.6403 7.90625 18.6875V14.6086C7.90556 13.8541 8.14263 13.1187 8.58377 12.5066C9.02491 11.8946 9.6477 11.4371 10.3637 11.1992L25.2904 6.22339Z" fill="black"/>
<path d="M43.125 34.5C43.1243 35.0717 42.8969 35.6197 42.4927 36.024C42.0885 36.4282 41.5404 36.6556 40.9688 36.6562H5.03125C4.45958 36.6556 3.91152 36.4282 3.50729 36.024C3.10306 35.6197 2.87567 35.0717 2.875 34.5V15.8125H1.4375V38.0938C1.43857 39.0465 1.81754 39.96 2.49127 40.6337C3.16499 41.3075 4.07846 41.6864 5.03125 41.6875H40.9688C41.9215 41.6864 42.835 41.3075 43.5087 40.6337C44.1825 39.96 44.5614 39.0465 44.5625 38.0938V31.625H43.125V34.5ZM40.9688 40.25H5.03125C4.45958 40.2493 3.91152 40.0219 3.50729 39.6177C3.10306 39.2135 2.87567 38.6654 2.875 38.0938V37.373C3.49617 37.8415 4.25322 38.0946 5.03125 38.0938H40.9688C41.7468 38.0946 42.5038 37.8415 43.125 37.373V38.0938C43.1243 38.6654 42.8969 39.2135 42.4927 39.6177C42.0885 40.0219 41.5404 40.2493 40.9688 40.25Z" fill="black"/>
<path d="M40.9688 8.625V10.0625C41.5404 10.0631 42.0885 10.2905 42.4927 10.6948C42.897 11.099 43.1244 11.6471 43.125 12.2188V30.1875H44.5625V12.2188C44.5614 11.266 44.1825 10.3525 43.5087 9.67877C42.835 9.00504 41.9215 8.62607 40.9688 8.625Z" fill="black"/>
<path d="M37.6976 33.9935L39.2287 30.8522C40.2872 30.1849 41.2778 29.4154 42.1862 28.5548L41.2007 27.5083C40.3964 28.2712 39.5238 28.9587 38.5939 29.562L35.8695 28.2837L35.2586 29.585L37.0599 30.4302C36.6414 30.6361 36.218 30.8196 35.7897 30.9809L33.1491 29.2126L32.3494 30.4071L34.0036 31.5148C33.5623 31.614 33.1163 31.6905 32.6672 31.7441L30.3304 29.9034L29.4409 31.0327L30.4324 31.8135C29.0983 31.734 28.2742 31.4613 28.2628 31.4574L28.0304 32.1375L27.7959 32.817C27.8498 32.8355 28.78 33.1494 30.2802 33.2456L29.229 34.028L30.0873 35.1812L32.7793 33.1777C33.0195 33.1496 33.2695 33.1137 33.5294 33.0699L32.6938 33.9886L33.7574 34.9558L36.091 32.3898C36.4116 32.2739 36.7384 32.1432 37.0716 31.9977L36.4058 33.3642L37.6976 33.9935Z" fill="black"/>
<path d="M11.285 34.1803L11.9695 35.4444L15.0421 33.7807C15.3992 33.8025 15.7659 33.8147 16.1435 33.8147C17.0271 33.8134 17.9095 33.7527 18.7849 33.633L18.5925 32.2084C17.4944 32.3609 16.3847 32.4122 15.2773 32.3617L13.8051 29.7366L12.5511 30.4397L13.5241 32.1752C13.0641 32.099 12.613 32.0019 12.1708 31.8838L11.0524 28.9093L9.70676 29.4151L10.4075 31.2785C9.99094 31.1024 9.58362 30.9051 9.1872 30.6873L8.35785 27.8311L6.97731 28.2318L7.32923 29.4438C6.29046 28.6027 5.77898 27.9015 5.77188 27.8916L4.60059 28.7255C4.63347 28.7718 5.20766 29.5689 6.37177 30.5198L5.0613 30.5443L5.08826 31.9818L8.4432 31.9189C8.65493 32.0359 8.87924 32.1521 9.11613 32.2674L7.90234 32.528L8.20431 33.9333L11.5945 33.2047C11.9226 33.2971 12.2648 33.3809 12.6209 33.4563L11.285 34.1803Z" fill="black"/>
<path d="M9.14453 17.5884L13.2721 11.1209L14.4839 11.8942L10.3563 18.3618L9.14453 17.5884Z" fill="black"/>
<path d="M13.0273 19.7534L18.7718 10.1756L20.0038 10.9145L14.2594 20.4923L13.0273 19.7534Z" fill="black"/>
<path d="M18.0576 19.7646L24.805 8.27013L26.0441 8.9975L19.2967 20.492L18.0576 19.7646Z" fill="black"/>
<path d="M23.0898 19.7603L30.2723 7.42292L31.5144 8.14603L24.3319 20.4834L23.0898 19.7603Z" fill="black"/>
<path d="M28.1211 19.769L34.8684 8.27453L36.1076 9.0019L29.3602 20.4964L28.1211 19.769Z" fill="black"/>
<path d="M33.1592 19.7515L36.1584 14.7196L37.3932 15.4556L34.394 20.4875L33.1592 19.7515Z" fill="black"/>
<path d="M9.34375 12.9375H10.7812V14.375H9.34375V12.9375Z" fill="black"/>
<path d="M15.8125 19.4062H17.25V20.8438H15.8125V19.4062Z" fill="black"/>
<path d="M25.1562 12.2188H26.5938V13.6562H25.1562V12.2188Z" fill="black"/>
<path d="M31.625 9.34375H33.0625V10.7812H31.625V9.34375Z" fill="black"/>
<path d="M31.625 17.25H33.0625V18.6875H31.625V17.25Z" fill="black"/>
<path d="M15.8125 28.75H17.25V30.1875H15.8125V28.75Z" fill="black"/>
<path d="M20.125 30.1875H21.5625V31.625H20.125V30.1875Z" fill="black"/>
<path d="M25.1562 33.7812H26.5938V35.2188H25.1562V33.7812Z" fill="black"/>
<path d="M40.25 25.1562H41.6875V26.5938H40.25V25.1562Z" fill="black"/>
<path d="M4.3125 24.4375H5.75V25.875H4.3125V24.4375Z" fill="black"/>
</svg>
