<svg width="11" height="7" viewBox="0 0 11 7" fill="none" xmlns="http://www.w3.org/2000/svg">
<path d="M5.92922 6.5555L10.8243 1.66036C10.9376 1.54714 11 1.396 11 1.23485C11 1.07369 10.9376 0.922558 10.8243 0.809339L10.4639 0.448846C10.229 0.214271 9.84733 0.214271 9.61285 0.448846L5.50228 4.55942L1.38715 0.444285C1.27385 0.331066 1.1228 0.268554 0.961735 0.268554C0.800492 0.268554 0.649445 0.331066 0.536047 0.444285L0.175734 0.804778C0.0624256 0.918086 3.7797e-06 1.06913 3.77266e-06 1.23029C3.76561e-06 1.39144 0.0624256 1.54258 0.175734 1.6558L5.07525 6.5555C5.18892 6.66898 5.34068 6.73132 5.50201 6.73096C5.66397 6.73132 5.81564 6.66898 5.92922 6.5555Z" fill="#427D1E"/>
</svg>
