<svg width="14" height="15" viewBox="0 0 14 15" fill="none" xmlns="http://www.w3.org/2000/svg">
<g clip-path="url(#clip0)">
<path d="M13.0391 10.6138C12.0663 9.57151 10.4835 9.57151 9.51071 10.6137C9.5106 10.6138 9.5106 10.6138 9.51049 10.614C8.10827 12.1162 5.83842 12.1167 4.43566 10.6141C4.43555 10.614 4.43544 10.6138 4.43523 10.6136C3.4625 9.57151 1.87976 9.57151 0.907028 10.6138C0.693405 10.8426 0.347121 10.8426 0.133605 10.6138C-0.0799112 10.385 -0.0799112 10.0141 0.133605 9.78517C1.25224 8.58663 2.93164 8.34653 4.27523 9.0643L4.27523 1.73813C4.27523 1.42582 4.03811 1.17176 3.74662 1.17176C3.45513 1.17176 3.21801 1.42593 3.21801 1.73813C3.21801 2.06177 2.97319 2.32407 2.67113 2.32407C2.36917 2.32407 2.12436 2.06177 2.12436 1.73813C2.12436 0.7798 2.85207 -9.72193e-07 3.74662 -8.93989e-07C4.64116 -8.15785e-07 5.36898 0.779801 5.36898 1.73813L5.36898 3.45681L8.57707 3.45681L8.57707 1.73813C8.57707 1.42582 8.33994 1.17176 8.04856 1.17176C7.75697 1.17176 7.51995 1.42594 7.51995 1.73813C7.51995 2.06177 7.27503 2.32407 6.97308 2.32407C6.67101 2.32407 6.4262 2.06177 6.4262 1.73813C6.4262 0.779801 7.15391 -5.96114e-07 8.04856 -5.17901e-07C8.943 -4.39706e-07 9.67082 0.779801 9.67082 1.73813L9.67082 9.0643C11.0144 8.34653 12.6938 8.58674 13.8124 9.78517C14.0261 10.0141 14.0261 10.385 13.8124 10.6138C13.5989 10.8426 13.2526 10.8426 13.0391 10.6138ZM8.57707 9.94195L8.57707 8.08549L5.36898 8.08549L5.36898 9.94195C6.28019 10.7646 7.63798 10.7896 8.57707 9.94195ZM5.36898 4.62868L5.36898 6.91361L8.57707 6.91361L8.57707 4.62868L5.36898 4.62868ZM0.133605 13.0443C-0.0799114 13.2732 -0.0799115 13.6441 0.133605 13.8729C0.347121 14.1018 0.693405 14.1018 0.907028 13.8729C1.87976 12.8307 3.46271 12.8307 4.43544 13.8729C5.83809 15.3758 8.10816 15.3756 9.5106 13.8729C10.4834 12.8307 12.0663 12.8307 13.0391 13.8729C13.2526 14.1018 13.5989 14.1018 13.8124 13.8729C14.026 13.6441 14.0261 13.2731 13.8124 13.0443C12.4132 11.5452 10.1365 11.5452 8.73728 13.0443C7.76209 14.0892 6.18374 14.0891 5.20876 13.0443C3.80953 11.5452 1.53284 11.5452 0.133605 13.0443Z" fill="black"/>
</g>
<defs>
<clipPath id="clip0">
<rect width="14" height="15" fill="white" transform="matrix(-1 -8.74228e-08 -8.74228e-08 1 14 0)"/>
</clipPath>
</defs>
</svg>
