<svg width="40" height="40" viewBox="0 0 40 40" fill="none" xmlns="http://www.w3.org/2000/svg">
<path d="M34.4743 22.92L33.2959 18.4883C33.2955 18.4868 33.2949 18.4844 33.2939 18.481C33.2145 18.2038 32.9937 17.9886 32.7148 17.9152C32.7036 17.9122 32.6954 17.9102 32.6909 17.9093L24.5047 16.0755C27.0486 14.5269 28.6614 11.7407 28.6614 8.66867C28.6614 3.90844 24.7915 0.0196875 20.0346 7.8125e-05C20.0225 0 20.0104 0 19.9981 0C17.6972 0 15.5295 0.897266 13.8913 2.52883C12.2429 4.17039 11.3351 6.35094 11.3352 8.66867C11.3352 11.7416 12.9477 14.5271 15.4917 16.0755L7.29438 17.9118C7.29367 17.912 7.2893 17.9131 7.28196 17.915C7.00289 17.9886 6.78141 18.2033 6.70274 18.4809C6.7018 18.4843 6.7011 18.4868 6.70071 18.4883L5.52235 22.92C5.44383 23.215 5.54305 23.5378 5.79828 23.7387C5.89024 23.811 5.99961 23.858 6.11344 23.8848L6.67797 24.0172V36.41C6.67797 36.7757 6.93164 37.0924 7.28844 37.1723L19.8274 39.9812C19.8837 39.9938 19.9409 40.0001 19.9982 40.0001C20.0555 40.0001 20.1127 39.9938 20.169 39.9812L32.708 37.1723C33.0648 37.0924 33.3184 36.7756 33.3184 36.41V24.0172L33.883 23.8848C33.9969 23.858 34.1063 23.811 34.1981 23.7387C34.4536 23.5378 34.5528 23.215 34.4743 22.92ZM19.9984 20.6837L11.0335 18.6755L17.7288 17.1757C17.8233 17.2598 17.9063 17.3562 17.9746 17.4623L19.3414 19.5862C19.4852 19.8096 19.7327 19.9446 19.9984 19.9446C20.264 19.9446 20.5115 19.8095 20.6553 19.5862L22.0219 17.4627C22.0901 17.3567 22.1734 17.2603 22.2688 17.1759L28.9632 18.6755L19.9984 20.6837ZM7.23922 22.5439L8.02149 19.602L18.9384 22.0475L17.7748 25.0146L7.23922 22.5439ZM31.9753 19.602L32.7576 22.5438L22.222 25.0145L21.0584 22.0473L31.9753 19.602ZM12.8977 8.66867C12.8977 6.76945 13.642 4.98211 14.9938 3.63594C16.3372 2.29813 18.1134 1.5625 19.9984 1.5625C20.0083 1.5625 20.0184 1.5625 20.0284 1.56258C23.9271 1.57867 27.0991 4.76641 27.0991 8.66867C27.0991 11.7177 25.1617 14.4232 22.2783 15.4008C21.6288 15.621 21.071 16.053 20.708 16.6172L19.9984 17.7198L19.2885 16.6167C18.925 16.0519 18.3699 15.6209 17.7255 15.4031C14.8378 14.4275 12.8977 11.7211 12.8977 8.66867ZM31.7561 35.7844L20.7796 38.2431V29.6057C20.7796 29.1742 20.4298 28.8245 19.9984 28.8245C19.567 28.8245 19.2171 29.1742 19.2171 29.6057V38.2431L8.24063 35.7844V24.3836L18.0767 26.6902C18.1365 26.7041 18.1963 26.7109 18.2554 26.7109C18.5705 26.7109 18.863 26.5192 18.9824 26.2148L19.9984 23.6241L21.0143 26.2148C21.1337 26.5192 21.4261 26.7109 21.7413 26.7109C21.8004 26.7109 21.8602 26.7042 21.92 26.6902L31.7561 24.3836V35.7844Z" fill="black"/>
<path d="M23.9166 8.79934C23.9166 6.63816 22.1594 4.87988 19.9993 4.87988C17.8394 4.87988 16.082 6.63816 16.082 8.79934C16.082 10.9605 17.8393 12.7188 19.9993 12.7188C22.1593 12.7188 23.9166 10.9605 23.9166 8.79934ZM17.6445 8.79934C17.6445 7.49973 18.7009 6.44238 19.9993 6.44238C21.2977 6.44238 22.3541 7.49973 22.3541 8.79934C22.3541 10.0989 21.2977 11.1563 19.9993 11.1563C18.7009 11.1563 17.6445 10.0989 17.6445 8.79934Z" fill="black"/>
</svg>
