<svg width="50" height="50" viewBox="0 0 50 50" xmlns="http://www.w3.org/2000/svg">
<path d="M30.8673 10.0512V2.04102H19.1326V10.0512L13.9795 19.388H36.0203L30.8673 10.0512ZM27.806 8.92877H22.1938V5.10224H27.806V8.92877Z" fill="white"/>
<path d="M11.9898 39.6426H7.7041V42.7038H11.9898V39.6426Z" fill="white"/>
<path d="M11.9898 29.5918H7.7041V32.653H11.9898V29.5918Z" fill="white"/>
<path d="M50 27.0407V23.9795H32.398H0V27.0407H2.04082V44.8979H0V47.9591H50V44.8979H47.9592V27.0407H50ZM14.5408 44.8979H5.10204V37.3979H14.5408V44.8979ZM14.5408 34.3366H5.10204V27.0407H14.5408V34.3366ZM44.898 44.8979H35.4592V37.3979H44.898V44.8979ZM44.898 34.3366H35.4592V27.0407H44.898V34.3366Z" fill="white"/>
<path d="M42.2964 39.6426H38.0107V42.7038H42.2964V39.6426Z" fill="white"/>
<path d="M42.2964 29.5918H38.0107V32.653H42.2964V29.5918Z" fill="white"/>
</svg>
