<svg width="20" height="20" viewBox="0 0 20 20" fill="none" xmlns="http://www.w3.org/2000/svg">
<path d="M10 0C4.48718 0 0 4.48718 0 10C0 15.5128 4.48718 20 10 20C15.5128 20 20 15.5128 20 10C20 4.48718 15.5128 0 10 0ZM15.5128 14.4872L14.359 15.641C13.2051 16.7949 10.1282 15.5128 7.4359 12.8205C4.74359 10 3.46154 6.92308 4.61538 5.76923L5.76923 4.61538C6.15385 4.23077 6.92308 4.23077 7.30769 4.61538L8.97436 6.28205C9.61538 6.92308 9.35897 7.82051 8.58974 8.07692C8.07692 8.20513 7.69231 8.84615 7.94872 9.35897C8.20513 10.641 9.87179 12.0513 11.0256 12.4359C11.5385 12.5641 12.1795 12.3077 12.3077 11.7949C12.5641 11.0256 13.5897 10.7692 14.1026 11.4103L15.7692 13.0769C15.8974 13.3333 15.8974 13.9744 15.5128 14.4872Z" fill="#2D2C2C"/>
</svg>
