<svg width="41" height="40" viewBox="0 0 41 40" xmlns="http://www.w3.org/2000/svg">
<path d="M39.7775 16.3638L36.4813 15.0455C36.1454 13.9091 35.6884 12.809 35.1195 11.7674L36.52 8.49967C36.6135 8.28207 36.5646 8.02914 36.3971 7.86163L32.2996 3.76417C32.1321 3.59666 31.8795 3.54777 31.6616 3.64133L28.3938 5.04176C27.3523 4.47284 26.2521 4.01589 25.1158 3.67996L23.7975 0.383824C23.7093 0.1638 23.4963 0.0195312 23.2593 0.0195312H17.4645C17.2275 0.0195312 17.0144 0.1638 16.9263 0.383824L15.608 3.67996C14.4719 4.01558 13.3715 4.47284 12.3299 5.04176L9.06217 3.64133C8.84426 3.54807 8.59164 3.59666 8.42413 3.76417L4.32667 7.86163C4.15916 8.02914 4.11027 8.28207 4.20383 8.49998L5.60426 11.7674C5.03534 12.809 4.57839 13.9094 4.24246 15.0455L0.946324 16.3638C0.7263 16.4519 0.582031 16.665 0.582031 16.902V22.6968C0.582031 22.9338 0.7263 23.1468 0.946324 23.235L4.24246 24.5533C4.57808 25.6893 5.03503 26.7898 5.60426 27.8313L4.20383 31.0991C4.11027 31.3167 4.15916 31.5696 4.32667 31.7371L8.42413 35.8346C8.59164 36.0021 8.84457 36.051 9.06217 35.9575L12.3299 34.557C13.3715 35.1259 14.4716 35.5832 15.608 35.9188L16.9263 39.215C17.0144 39.435 17.2275 39.5793 17.4645 39.5793H23.2593C23.4963 39.5793 23.7093 39.435 23.7972 39.215L25.1158 35.9188C26.2518 35.5832 27.3523 35.1259 28.3938 34.557L31.6613 35.9575C31.8792 36.051 32.1318 36.0021 32.2996 35.8346L36.3971 31.7371C36.5646 31.5696 36.6132 31.3167 36.52 31.0991L35.1195 27.8313C35.6884 26.7898 36.1454 25.6896 36.4813 24.5533L39.7775 23.235C39.9975 23.1468 40.1418 22.9338 40.1418 22.6968V16.902C40.1418 16.665 39.9975 16.4519 39.7775 16.3638ZM38.9828 22.3045L35.7871 23.5827C35.619 23.65 35.492 23.7918 35.4437 23.9663C35.102 25.2019 34.6064 26.3947 33.9711 27.5114C33.8815 27.669 33.8706 27.8594 33.9421 28.0263L35.3003 31.1948L31.7573 34.7378L28.5888 33.3796C28.4219 33.3084 28.2315 33.319 28.0739 33.4086C26.9569 34.0439 25.7644 34.5395 24.5288 34.8812C24.3543 34.9295 24.2125 35.0565 24.1452 35.2246L22.867 38.4203H17.8568L16.5783 35.2246C16.5113 35.0565 16.3695 34.9295 16.195 34.8812C14.9594 34.5395 13.7666 34.0439 12.6499 33.4086C12.4923 33.319 12.3019 33.3084 12.135 33.3796L8.9662 34.7378L5.42347 31.1948L6.78135 28.0263C6.85288 27.8594 6.84231 27.669 6.75237 27.5114C6.11705 26.3944 5.62177 25.2019 5.27981 23.9663C5.23152 23.7918 5.10445 23.65 4.93664 23.5827L1.74101 22.3045V17.2943L4.93664 16.0158C5.10475 15.9488 5.23182 15.807 5.28011 15.6325C5.62177 14.3969 6.11735 13.2044 6.75267 12.0877C6.84231 11.9298 6.85318 11.7394 6.78165 11.5728L5.42347 8.4037L8.9662 4.86097L12.1353 6.21915C12.3019 6.29068 12.4926 6.27981 12.6502 6.19017C13.7669 5.55485 14.9594 5.05927 16.195 4.71761C16.3695 4.66932 16.5113 4.54225 16.5783 4.37414L17.8568 1.17851H22.867L24.1455 4.37414C24.2125 4.54225 24.3543 4.66932 24.5288 4.71761C25.7644 5.05927 26.9569 5.55485 28.0736 6.19017C28.2315 6.27981 28.4219 6.29068 28.5885 6.21915L31.7576 4.86097L35.3003 8.4037L33.9421 11.5728C33.8706 11.7394 33.8815 11.9298 33.9711 12.0877C34.6064 13.2041 35.102 14.3969 35.4437 15.6325C35.492 15.807 35.619 15.9488 35.7871 16.0158L38.9828 17.2943V22.3045Z" fill="black"/>
<path d="M20.362 7.05078C13.3324 7.05078 7.61328 12.7699 7.61328 19.7995C7.61328 26.8291 13.3324 32.5483 20.362 32.5483C27.3916 32.5483 33.1108 26.8291 33.1108 19.7995C33.1108 12.7699 27.3916 7.05078 20.362 7.05078ZM20.362 31.3893C13.9714 31.3893 8.77226 26.1902 8.77226 19.7995C8.77226 13.4089 13.9714 8.20976 20.362 8.20976C26.7527 8.20976 31.9518 13.4089 31.9518 19.7995C31.9518 26.1902 26.7527 31.3893 20.362 31.3893Z" fill="black"/>
<path d="M20.36 9.36914C17.9913 9.36914 15.7585 10.1433 13.9029 11.608C13.6515 11.806 13.6086 12.1706 13.8069 12.4217C14.0052 12.6731 14.3695 12.716 14.6209 12.5177C16.2698 11.216 18.2545 10.5281 20.36 10.5281C25.4725 10.5281 29.6318 14.6875 29.6318 19.7999C29.6318 24.9124 25.4725 29.0717 20.36 29.0717C15.2475 29.0717 11.0882 24.9124 11.0882 19.7999C11.0882 17.6945 11.776 15.7097 13.0778 14.0609C13.276 13.8095 13.2332 13.4452 12.9818 13.2469C12.7307 13.0486 12.3661 13.0914 12.1678 13.3429C10.7034 15.1984 9.9292 17.4313 9.9292 19.7999C9.9292 25.5513 14.6086 30.2307 20.36 30.2307C26.1114 30.2307 30.7908 25.5513 30.7908 19.7999C30.7908 14.0485 26.1114 9.36914 20.36 9.36914Z" fill="black"/>
<path d="M13.5476 24.068L20.0716 27.8347C20.1613 27.8863 20.2615 27.9123 20.3614 27.9123C20.4616 27.9123 20.5615 27.8863 20.6511 27.8347L27.1752 24.068C27.3545 23.9645 27.4649 23.7731 27.4649 23.5661V16.0328C27.4649 15.8257 27.3545 15.6344 27.1752 15.5308L20.6511 11.7642C20.4718 11.6606 20.2509 11.6606 20.0716 11.7642L13.5476 15.5308C13.3683 15.6344 13.2578 15.8257 13.2578 16.0328V23.5661C13.2578 23.7731 13.3683 23.9645 13.5476 24.068ZM14.4168 17.0363L19.7819 20.1338V26.3292L14.4168 23.2317V17.0363ZM20.9409 26.3292V20.1338L26.306 17.0363V23.2317L20.9409 26.3292ZM20.3614 12.9352L25.7265 16.0328L20.3614 19.1303L14.9963 16.0328L20.3614 12.9352Z" fill="black"/>
</svg>
