<svg width="50" height="50" viewBox="0 0 50 50" fill="none" xmlns="http://www.w3.org/2000/svg">
<path d="M25 1.5625C12.0766 1.5625 1.5625 12.0766 1.5625 25C1.5625 37.9234 12.0766 48.4375 25 48.4375C37.9234 48.4375 48.4375 37.9234 48.4375 25C48.4375 12.0766 37.9234 1.5625 25 1.5625ZM25 46.875C12.9379 46.875 3.125 37.0621 3.125 25C3.125 12.9379 12.9379 3.125 25 3.125C37.0621 3.125 46.875 12.9379 46.875 25C46.875 37.0621 37.0621 46.875 25 46.875Z" fill="#FF5E3B"/>
<path d="M12.0006 11.5007L10.9175 10.3745C10.4437 10.8315 9.9874 11.3144 9.5625 11.8111L10.7496 12.8274C11.1421 12.3681 11.5634 11.9218 12.0006 11.5007Z" fill="#FF5E3B"/>
<path d="M4.75 23.3756L6.30791 23.4992C6.57618 20.1471 7.74439 16.9295 9.68926 14.186L8.41367 13.2827C6.30677 16.2562 5.04108 19.743 4.75 23.3756Z" fill="#FF5E3B"/>
<path d="M35.9375 9.63201C35.9376 8.79879 35.6301 7.99488 35.074 7.3744C34.5179 6.75392 33.7523 6.36054 32.9241 6.26969C32.0958 6.17883 31.2632 6.3969 30.5858 6.88208C29.9084 7.36725 29.434 8.08539 29.2534 8.8988C29.1215 9.49255 29.0155 10.0921 28.9065 10.6908C27.6342 10.3407 26.32 10.1659 25.0003 10.1713V6.24988H23.4375V15.6249C23.4357 16.4698 23.1618 17.2916 22.6563 17.9686C22.4289 18.2716 22.1585 18.5396 21.8536 18.7643C20.8855 19.4785 20.3331 20.6718 20.3773 21.9603L21.093 39.8718C21.1004 40.071 21.0673 40.2695 20.9957 40.4555C20.9241 40.6414 20.8155 40.8109 20.6765 40.9537C20.392 41.2338 20.0087 41.3909 19.6095 41.3909C19.2102 41.3909 18.827 41.2338 18.5425 40.9537C18.4033 40.8106 18.2946 40.6408 18.223 40.4544C18.1514 40.2681 18.1183 40.0692 18.1259 39.8697L18.6852 21.9558C18.7294 20.6718 18.1773 19.4786 17.2081 18.7644C16.9034 18.5394 16.6333 18.271 16.4063 17.9678C15.9006 17.2912 15.6267 16.4696 15.625 15.6249V6.24988H14.0625V14.9893C12.6226 16.5546 11.5371 18.4118 10.8801 20.4346C10.223 22.4573 10.0097 24.5979 10.2548 26.7105C10.5 28.8231 11.1977 30.858 12.3005 32.6766C13.4033 34.4951 14.8852 36.0545 16.6452 37.2484L16.5649 39.8184C16.551 40.2272 16.6195 40.6346 16.7663 41.0163C16.9132 41.398 17.1354 41.7463 17.4198 42.0403C17.7041 42.3343 18.0447 42.568 18.4214 42.7275C18.798 42.8871 19.2028 42.9691 19.6118 42.9688C20.0209 42.9685 20.4256 42.8858 20.802 42.7257C21.1783 42.5656 21.5186 42.3314 21.8025 42.037C22.0864 41.7426 22.3081 41.394 22.4544 41.012C22.6007 40.6301 22.6686 40.2226 22.654 39.8138L22.6475 39.6505C25.0842 40.0513 27.5829 39.8262 29.9088 38.9962L29.8562 39.7149C29.8282 40.1224 29.8826 40.5314 30.016 40.9175C30.1494 41.3036 30.3592 41.6589 30.6328 41.9622C30.9064 42.2655 31.2383 42.5106 31.6086 42.683C31.9789 42.8554 32.3802 42.9515 32.7884 42.9656C33.1967 42.9796 33.6036 42.9114 33.9849 42.7649C34.3662 42.6184 34.7141 42.3967 35.008 42.113C35.3018 41.8292 35.5355 41.4892 35.6952 41.1132C35.8549 40.7372 35.9373 40.333 35.9375 39.9245V35.0104C38.4494 32.2818 39.8437 28.7086 39.8437 24.9999C39.8437 21.2911 38.4494 17.7179 35.9375 14.9893V9.63201ZM16.7043 35.3557C14.028 33.2233 12.2821 30.1367 11.8333 26.7443C11.3844 23.3518 12.2676 19.9174 14.2974 17.1624C14.6213 18.3101 15.3196 19.3167 16.2812 20.0221C16.8351 20.4303 17.1503 21.1338 17.1242 21.9052L16.7043 35.3557ZM30.0352 37.2708C27.6844 38.269 25.0874 38.5355 22.5829 38.0354L21.9384 21.9026C21.9125 21.1336 22.2275 20.4302 22.7807 20.0219C23.2084 19.707 23.5876 19.3311 23.9063 18.9061C24.6143 17.9585 24.9979 16.8078 25 15.6249V11.7319C26.2352 11.7266 27.4648 11.8984 28.6513 12.2419C28.3064 14.5382 28.1305 16.8567 28.125 19.1787V27.3436C28.125 27.5508 28.2073 27.7495 28.3538 27.8961C28.5003 28.0426 28.6991 28.1249 28.9063 28.1249H30.7053L30.0352 37.2708ZM34.375 39.9245C34.3746 40.3173 34.2184 40.6939 33.9406 40.9717C33.6628 41.2495 33.2862 41.4057 32.8934 41.4061C32.6905 41.4062 32.4898 41.3645 32.3036 41.2838C32.1175 41.2031 31.9499 41.085 31.8113 40.9368C31.6727 40.7887 31.566 40.6137 31.4978 40.4226C31.4296 40.2315 31.4014 40.0285 31.4148 39.826L32.325 27.4009C32.3329 27.2937 32.3186 27.1862 32.283 27.0848C32.2474 26.9835 32.1913 26.8906 32.1182 26.8119C32.0451 26.7332 31.9566 26.6704 31.8581 26.6275C31.7596 26.5846 31.6534 26.5624 31.546 26.5624H29.6875V19.1787C29.6879 15.835 30.054 12.5014 30.7793 9.23728C30.8764 8.79961 31.1316 8.41319 31.496 8.15213C31.8605 7.89107 32.3085 7.77375 32.7541 7.82267C33.1997 7.87159 33.6116 8.08331 33.9107 8.41721C34.2099 8.75112 34.3752 9.18371 34.375 9.63201V39.9245ZM38.2812 24.9999C38.2826 27.6833 37.4649 30.3033 35.9375 32.5096V17.4901C37.4649 19.6965 38.2826 22.3164 38.2812 24.9999Z" fill="#FF5E3B"/>
<path d="M17.1875 6.25H18.75V14.8438H17.1875V6.25Z" fill="#FF5E3B"/>
<path d="M20.3125 6.25H21.875V14.8438H20.3125V6.25Z" fill="#FF5E3B"/>
</svg>
