<svg width="26" height="26" viewBox="0 0 26 26" fill="none" xmlns="http://www.w3.org/2000/svg">
<path d="M13 0C5.83136 0 0 5.83192 0 13C0 20.1681 5.83136 26 13 26C20.1686 26 26 20.1681 26 13C26 5.83192 20.1686 0 13 0ZM18.1681 13.4555L10.5847 18.3305C10.4959 18.3881 10.3932 18.4167 10.2917 18.4167C10.2028 18.4167 10.1129 18.3944 10.0325 18.3506C9.85791 18.2554 9.75 18.0734 9.75 17.875V8.125C9.75 7.92665 9.85791 7.74465 10.0325 7.64943C10.2039 7.55528 10.4186 7.56107 10.5847 7.66954L18.1681 12.5445C18.3225 12.644 18.4167 12.8159 18.4167 13C18.4167 13.1841 18.3225 13.356 18.1681 13.4555Z" fill="white"/>
</svg>
