<svg width="10" height="16" viewBox="0 0 10 16" fill="none" xmlns="http://www.w3.org/2000/svg">
<path d="M8.99498 8.74082L2.31979 15.4159C2.1654 15.5704 1.9593 15.6555 1.73955 15.6555C1.51979 15.6555 1.3137 15.5704 1.15931 15.4159L0.667727 14.9244C0.347851 14.6042 0.347851 14.0837 0.667727 13.7639L6.27305 8.15863L0.661508 2.54709C0.507119 2.39258 0.421876 2.18661 0.421876 1.96698C0.421876 1.7471 0.507119 1.54112 0.661509 1.38649L1.15309 0.895154C1.3076 0.740644 1.51358 0.655522 1.73333 0.655522C1.95308 0.655522 2.15918 0.740644 2.31357 0.895154L8.99498 7.57632C9.14974 7.73132 9.23474 7.93827 9.23425 8.15826C9.23474 8.37912 9.14974 8.58594 8.99498 8.74082Z" fill="black"/>
</svg>
