<svg width="40" height="40" viewBox="0 0 40 40" fill="none" xmlns="http://www.w3.org/2000/svg">
<path d="M39.3274 16.46C39.3278 16.4403 39.3316 16.4213 39.3316 16.4016C39.3316 12.0891 29.3717 9.76221 20.0002 9.76221C10.6288 9.76221 0.668945 12.089 0.668945 16.4015C0.668945 16.4089 0.670508 16.416 0.670508 16.4234C0.663477 20.1366 2.03293 23.7205 4.51433 26.4829C5.15253 27.1761 5.85722 27.8051 6.61831 28.3607L3.35582 34.6143C3.11207 35.0843 3.06519 35.632 3.2255 36.1366C3.38582 36.6412 3.74027 37.0614 4.21058 37.3044C4.4937 37.4525 4.80839 37.5298 5.12792 37.5297C5.8737 37.5305 6.55792 37.1161 6.90268 36.4548L10.1181 30.2995C12.6361 31.2779 15.299 31.8315 17.9984 31.9378V37.9997C17.9984 39.1043 18.8938 39.9997 19.9984 39.9997C21.1029 39.9997 21.9984 39.1043 21.9984 37.9997V31.9376C24.583 31.8315 27.1351 31.3207 29.5615 30.4236C29.663 30.3851 29.7615 30.3353 29.8626 30.2947L33.0956 36.4848C33.4401 37.1437 34.1212 37.5576 34.8648 37.5597C35.1876 37.5566 35.505 37.4775 35.7912 37.3286C36.7633 36.8119 37.1395 35.61 36.6356 34.6313L33.3628 28.3687C37.1307 25.5727 39.345 21.1519 39.3274 16.46ZM20.0002 11.0955C30.6018 11.0955 37.9911 13.889 37.9979 16.398C37.9979 16.4101 37.9921 16.4206 37.9927 16.4327L37.9934 16.4541C37.8913 18.9502 30.5327 21.7075 20.0002 21.7075C9.39369 21.7075 2.00215 18.9113 2.00215 16.4015C2.00215 13.8917 9.39385 11.0955 20.0002 11.0955ZM5.72034 35.8383C5.55269 36.1621 5.15511 36.2898 4.83034 36.1241C4.67089 36.0443 4.55042 35.9035 4.49628 35.7336C4.44214 35.5636 4.45902 35.3791 4.54292 35.2218L7.7337 29.1058C8.10948 29.3339 8.49862 29.5486 8.90112 29.7499L5.72034 35.8383ZM20.665 37.9998C20.665 38.368 20.3666 38.6664 19.9984 38.6664C19.6302 38.6664 19.3317 38.368 19.3317 37.9998V29.3331C19.3317 28.9649 19.6302 28.6665 19.9984 28.6665C20.3666 28.6665 20.665 28.9649 20.665 29.3331V37.9998ZM35.4536 35.2479C35.6246 35.5703 35.5029 35.9703 35.1815 36.143C35.0257 36.2322 34.8398 36.2527 34.6682 36.2C34.4965 36.1472 34.3544 36.0257 34.2756 35.8643L31.081 29.748C31.4114 29.5833 31.741 29.4158 32.0608 29.2296C32.0872 29.214 32.1124 29.1966 32.1363 29.1775C32.174 29.1552 32.2083 29.1314 32.2455 29.109L35.4536 35.2479ZM31.388 28.0708C31.3632 28.0855 31.3394 28.1019 31.3167 28.1196C30.6015 28.5315 29.8547 28.8856 29.0833 29.1788C26.8098 30.0179 24.4196 30.4983 21.9984 30.6029V29.3331C21.9984 28.2286 21.1029 27.3331 19.9984 27.3331C18.8938 27.3331 17.9984 28.2285 17.9984 29.3331V30.5915C12.4809 30.2685 8.27237 28.5995 5.51073 25.5968C3.88339 23.7928 2.7741 21.5824 2.30027 19.1995C5.50128 21.7106 12.9172 23.0408 20.0002 23.0408C27.0828 23.0408 34.4982 21.7109 37.6996 19.2001C36.9714 22.928 34.6711 26.1608 31.388 28.0708Z" fill="black"/>
<path d="M5.15654 17.9807C5.38764 18.0421 5.63396 17.975 5.80201 17.8048L9.13536 14.4715C9.26044 14.3465 9.33067 14.1769 9.33067 14.0001C9.33067 13.8233 9.26044 13.6538 9.13536 13.5288C9.01036 13.4037 8.84083 13.3335 8.66403 13.3335C8.48724 13.3335 8.31763 13.4037 8.19271 13.5288L4.85936 16.8622C4.6892 17.0302 4.62209 17.2765 4.6835 17.5076C4.7449 17.7387 4.92537 17.9192 5.15654 17.9807Z" fill="black"/>
<path d="M7.35049 18.8406C7.4119 19.0717 7.59244 19.2523 7.82354 19.3137C8.05463 19.3751 8.30096 19.308 8.469 19.1378L13.8024 13.8045C13.9274 13.6795 13.9977 13.5099 13.9977 13.3331C13.9977 13.1563 13.9274 12.9868 13.8024 12.8618C13.6774 12.7367 13.5078 12.6665 13.331 12.6665C13.1542 12.6665 12.9847 12.7367 12.8597 12.8618L7.52635 18.1952C7.35619 18.3632 7.28908 18.6095 7.35049 18.8406Z" fill="black"/>
<path d="M10.6845 19.5074C10.7459 19.7385 10.9264 19.9191 11.1575 19.9805C11.3886 20.0419 11.6349 19.9748 11.803 19.8046L18.4696 13.138C18.5947 13.013 18.6649 12.8434 18.6649 12.6666C18.6649 12.4898 18.5947 12.3203 18.4696 12.1953C18.3446 12.0702 18.1751 12 17.9983 12C17.8215 12 17.652 12.0702 17.527 12.1953L10.8603 18.8619C10.6902 19.03 10.6231 19.2763 10.6845 19.5074Z" fill="black"/>
<path d="M14.0185 20.1741C14.0799 20.4052 14.2604 20.5857 14.4915 20.6471C14.7226 20.7086 14.9689 20.6414 15.137 20.4713L22.4703 13.138C22.5954 13.013 22.6656 12.8434 22.6656 12.6666C22.6656 12.4898 22.5954 12.3203 22.4703 12.1953C22.3453 12.0702 22.1758 12 21.999 12C21.8222 12 21.6527 12.0702 21.5277 12.1953L14.1943 19.5286C14.0242 19.6966 13.9571 19.9429 14.0185 20.1741Z" fill="black"/>
<path d="M18.0175 20.1744C18.0789 20.4055 18.2594 20.586 18.4905 20.6474C18.7216 20.7088 18.9679 20.6417 19.136 20.4716L25.8026 13.805C25.9277 13.68 25.9979 13.5104 25.9979 13.3336C25.9979 13.1568 25.9277 12.9873 25.8026 12.8623C25.6776 12.7372 25.5081 12.667 25.3313 12.667C25.1545 12.667 24.985 12.7372 24.86 12.8623L18.1933 19.5289C18.0232 19.6969 17.9561 19.9432 18.0175 20.1744Z" fill="black"/>
<path d="M22.0175 20.1743C22.0789 20.4054 22.2594 20.5859 22.4905 20.6473C22.7216 20.7087 22.968 20.6416 23.136 20.4714L29.136 14.4715C29.2611 14.3465 29.3313 14.1769 29.3313 14.0001C29.3313 13.8233 29.2611 13.6538 29.136 13.5288C29.011 13.4037 28.8415 13.3335 28.6647 13.3335C28.4879 13.3335 28.3183 13.4037 28.1933 13.5288L22.1933 19.5288C22.0232 19.6968 21.9561 19.9431 22.0175 20.1743Z" fill="black"/>
<path d="M26.6855 19.5076C26.7469 19.7387 26.9274 19.9193 27.1585 19.9807C27.3896 20.0421 27.6359 19.975 27.804 19.8048L33.1373 14.4715C33.2624 14.3465 33.3326 14.1769 33.3326 14.0001C33.3326 13.8233 33.2624 13.6538 33.1373 13.5288C33.0123 13.4037 32.8428 13.3335 32.666 13.3335C32.4892 13.3335 32.3196 13.4037 32.1947 13.5288L26.8613 18.8622C26.6912 19.0302 26.624 19.2765 26.6855 19.5076Z" fill="black"/>
<path d="M31.3493 18.8415C31.4107 19.0731 31.5915 19.254 31.8232 19.3153C32.0548 19.3766 32.3014 19.3089 32.4693 19.1379L35.136 16.4713C35.3069 16.3034 35.3746 16.0567 35.3133 15.8251C35.252 15.5935 35.0711 15.4126 34.8395 15.3513C34.6078 15.29 34.3612 15.3577 34.1933 15.5287L31.5267 18.1953C31.3557 18.3632 31.2881 18.6098 31.3493 18.8415Z" fill="black"/>
<path d="M15.2842 5.55925C15.6943 6.04918 15.6944 6.76253 15.2845 7.25261L15.0169 7.5723C14.8641 7.75488 14.8203 8.00511 14.902 8.22878C14.9837 8.45245 15.1786 8.6155 15.4131 8.65651C15.6476 8.69753 15.8862 8.61034 16.039 8.42776L16.3069 8.10808C17.1274 7.12863 17.1323 5.70324 16.3186 4.71808L16.3056 4.70183C15.8951 4.21199 15.8951 3.49832 16.3056 3.00848L17.9062 1.09442C18.059 0.911686 18.1028 0.661374 18.021 0.437702C17.9392 0.214031 17.7443 0.0509842 17.5096 0.00996861C17.2749 -0.0310469 17.0363 0.0562966 16.8835 0.238953L15.2829 2.15301C14.4621 3.13262 14.4573 4.55855 15.2715 5.54363L15.2842 5.55925Z" fill="black"/>
<path d="M19.2843 5.55929C19.6943 6.04921 19.6945 6.76257 19.2846 7.25264L19.017 7.57233C18.8642 7.75491 18.8204 8.00514 18.9021 8.22881C18.9838 8.45249 19.1786 8.61553 19.4132 8.65655C19.6477 8.69756 19.8863 8.61038 20.0391 8.4278L20.307 8.10811C21.1275 7.12866 21.1324 5.70327 20.3187 4.71812L20.3057 4.70187C19.8952 4.21202 19.8952 3.49835 20.3057 3.00851L21.9063 1.09445C22.1425 0.812031 22.105 0.391563 21.8226 0.155314C21.5402 -0.0809356 21.1197 -0.0434357 20.8835 0.238986L19.2829 2.15304C18.4621 3.13265 18.4573 4.55859 19.2715 5.54366L19.2843 5.55929Z" fill="black"/>
<path d="M23.2842 5.55929C23.6943 6.04921 23.6944 6.76257 23.2845 7.25264L23.0169 7.57233C22.7807 7.8546 22.818 8.27491 23.1003 8.51116C23.3825 8.74741 23.8029 8.71006 24.0391 8.4278L24.307 8.10811C25.1275 7.12866 25.1324 5.70327 24.3187 4.71812L24.3057 4.70187C23.8952 4.21202 23.8952 3.49835 24.3057 3.00851L25.9063 1.09445C26.1425 0.812031 26.105 0.391563 25.8226 0.155314C25.5402 -0.0809356 25.1197 -0.0434357 24.8835 0.238986L23.2829 2.15304C22.4621 3.13265 22.4573 4.55859 23.2715 5.54366L23.2842 5.55929Z" fill="black"/>
</svg>
