<svg width="16" height="16" viewBox="0 0 16 16" fill="none" xmlns="http://www.w3.org/2000/svg">
<path d="M8 3.15625C5.32916 3.15625 3.15625 5.32916 3.15625 8C3.15625 10.6708 5.32916 12.8438 8 12.8438C10.6708 12.8438 12.8438 10.6708 12.8438 8C12.8438 5.32916 10.6708 3.15625 8 3.15625ZM8 11.9062C5.84609 11.9062 4.09375 10.1539 4.09375 8C4.09375 5.84609 5.84609 4.09375 8 4.09375C10.1539 4.09375 11.9062 5.84609 11.9062 8C11.9062 10.1539 10.1539 11.9062 8 11.9062Z" fill="black"/>
<path d="M9.875 5.65625H6.125C5.86612 5.65625 5.65625 5.86612 5.65625 6.125V9.875C5.65625 10.1339 5.86612 10.3438 6.125 10.3438H9.875C10.1339 10.3438 10.3438 10.1339 10.3438 9.875V6.125C10.3438 5.86612 10.1339 5.65625 9.875 5.65625ZM9.40625 9.40625H6.59375V6.59375H7.53125V7.0625C7.53125 7.32138 7.74113 7.53125 8 7.53125C8.25887 7.53125 8.46875 7.32138 8.46875 7.0625V6.59375H9.40625V9.40625Z" fill="black"/>
<path d="M15.5312 6.28125H14.4963C14.3431 5.70094 14.1123 5.14575 13.8072 4.62344L14.5407 3.88994C14.6287 3.80203 14.6781 3.68281 14.6781 3.55847C14.6781 3.43416 14.6287 3.31494 14.5407 3.22703L12.773 1.45928C12.59 1.27622 12.2932 1.27622 12.1101 1.45928L11.3766 2.19281C10.8542 1.88769 10.2991 1.65694 9.71875 1.50372V0.46875C9.71875 0.209875 9.50887 0 9.25 0H6.75C6.49113 0 6.28125 0.209875 6.28125 0.46875V1.50372C5.70094 1.65694 5.14578 1.88769 4.62347 2.19278L3.88994 1.45925C3.70691 1.27619 3.41009 1.27619 3.22703 1.45925L1.45928 3.227C1.37137 3.31491 1.32197 3.43413 1.32197 3.55844C1.32197 3.68278 1.37137 3.80197 1.45928 3.88991L2.19281 4.62341C1.88769 5.14578 1.65694 5.70094 1.50372 6.28125H0.46875C0.209875 6.28125 0 6.49113 0 6.75V9.25C0 9.50887 0.209875 9.71875 0.46875 9.71875H1.50369C1.65691 10.2991 1.88769 10.8542 2.19278 11.3765L1.45925 12.11C1.37134 12.1979 1.32194 12.3172 1.32194 12.4415C1.32194 12.5658 1.37131 12.685 1.45925 12.7729L3.227 14.5407C3.31491 14.6286 3.43413 14.678 3.55844 14.678C3.68275 14.678 3.80197 14.6286 3.88987 14.5407L4.62341 13.8072C5.14572 14.1123 5.70088 14.343 6.28119 14.4963V15.5312C6.28119 15.7901 6.49106 16 6.74994 16H9.24994C9.50881 16 9.71869 15.7901 9.71869 15.5312V14.4963C10.299 14.3431 10.8542 14.1123 11.3765 13.8072L12.11 14.5407C12.1979 14.6287 12.3171 14.6781 12.4414 14.6781C12.5658 14.6781 12.685 14.6287 12.7729 14.5407L14.5406 12.773C14.6285 12.6851 14.6779 12.5658 14.6779 12.4415C14.6779 12.3172 14.6285 12.198 14.5406 12.1101L13.8071 11.3766C14.1122 10.8542 14.3429 10.2991 14.4962 9.71878H15.5312C15.7901 9.71878 16 9.50891 16 9.25003V6.75003C16 6.49113 15.7901 6.28125 15.5312 6.28125ZM15.0625 8.78125H14.1245C13.9016 8.78125 13.7095 8.93825 13.6651 9.15675C13.5183 9.88009 13.2346 10.5629 12.8218 11.1861C12.6988 11.3719 12.7236 11.6187 12.8812 11.7764L13.5464 12.4415L12.4415 13.5463L11.7764 12.8812C11.6188 12.7236 11.372 12.6988 11.1861 12.8218C10.5629 13.2345 9.88013 13.5182 9.15678 13.6651C8.93831 13.7094 8.78128 13.9015 8.78128 14.1245V15.0625H7.21878V14.1245C7.21878 13.9016 7.06178 13.7095 6.84328 13.6651C6.11994 13.5183 5.43716 13.2346 4.81394 12.8218C4.62806 12.6988 4.38128 12.7236 4.22369 12.8812L3.55853 13.5464L2.45369 12.4415L3.11884 11.7764C3.27647 11.6188 3.30128 11.372 3.17822 11.1861C2.7655 10.5629 2.48178 9.88013 2.33494 9.15678C2.29053 8.93828 2.09844 8.78125 1.8755 8.78125H0.9375V7.21875H1.8755C2.09844 7.21875 2.29053 7.06175 2.33488 6.84325C2.48172 6.11991 2.76544 5.43709 3.17816 4.81388C3.30122 4.62803 3.27641 4.38122 3.11878 4.22359L2.45362 3.55847L3.55847 2.45362L4.22363 3.11878C4.38122 3.27641 4.628 3.30122 4.81388 3.17816C5.43713 2.76544 6.11987 2.48172 6.84322 2.33491C7.06175 2.29053 7.21875 2.09844 7.21875 1.87553V0.9375H8.78125V1.87553C8.78125 2.09847 8.93825 2.29056 9.15675 2.33491C9.88006 2.48175 10.5628 2.76547 11.1861 3.17816C11.3719 3.30122 11.6187 3.27641 11.7763 3.11878L12.4415 2.45362L13.5463 3.55847L12.8812 4.22359C12.7236 4.38122 12.6988 4.628 12.8218 4.81388C13.2345 5.43713 13.5182 6.11991 13.6651 6.84325C13.7094 7.06172 13.9015 7.21875 14.1245 7.21875H15.0625V8.78125Z" fill="black"/>
</svg>
