<svg width="16" height="15" viewBox="0 0 16 15" fill="none" xmlns="http://www.w3.org/2000/svg">
<path d="M15.9941 4.36848C15.8806 1.95695 14.0137 0.0539766 11.783 0.0361328C11.772 0.0361328 11.7615 0.0361328 11.7505 0.0361328C9.68916 0.0361328 8.54019 1.54904 8 2.57035C7.45985 1.54907 6.31088 0.0361328 4.24954 0.0361328C4.23854 0.0361328 4.22757 0.0361328 4.21704 0.0361328C1.98632 0.0540078 0.119411 1.95695 0.00588008 4.36848C-0.133745 7.32566 2.22572 9.3101 5.75007 12.313C6.36026 12.833 7.00938 13.386 7.69147 13.983L8 14.2531L8.30854 13.983C8.9906 13.3861 9.63972 12.8331 10.2499 12.313C13.7743 9.31007 16.1338 7.32566 15.9941 4.36848Z" fill="black"/>
</svg>
