<svg width="43" height="42" viewBox="0 0 43 42" xmlns="http://www.w3.org/2000/svg">
<path d="M20.631 34.4418C20.9206 34.7113 21.0801 35.065 21.0801 35.4377C21.0801 35.8103 20.9206 36.1641 20.631 36.4336C19.8374 37.1719 19.4004 38.1585 19.4004 39.2111C19.4004 40.2637 19.8374 41.2504 20.631 41.9886L22.369 40.207C22.0794 39.9375 21.9199 39.5838 21.9199 39.2111C21.9199 38.8381 22.0794 38.4847 22.369 38.2152C23.1626 37.4766 23.5996 36.4903 23.5996 35.4377C23.5996 34.3851 23.1626 33.3984 22.369 32.6602L20.631 34.4418Z" fill="white"/>
<path d="M27.2657 34.4418C27.5554 34.7113 27.7148 35.065 27.7148 35.4377C27.7148 35.8103 27.5554 36.1641 27.2657 36.4336C26.4721 37.1719 26.0352 38.1585 26.0352 39.2111C26.0352 40.2637 26.4721 41.2504 27.2657 41.9886L29.0038 40.207C28.7141 39.9375 28.5547 39.5838 28.5547 39.2111C28.5547 38.8381 28.7141 38.4847 29.0038 38.2152C29.7974 37.4766 30.2344 36.4903 30.2344 35.4377C30.2344 34.3851 29.7974 33.3984 29.0038 32.6602L27.2657 34.4418Z" fill="white"/>
<path d="M13.9962 34.4418C14.2859 34.7113 14.4453 35.065 14.4453 35.4377C14.4453 35.8103 14.2859 36.1641 13.9962 36.4336C13.2026 37.1719 12.7656 38.1585 12.7656 39.2111C12.7656 40.2637 13.2026 41.2504 13.9962 41.9886L15.7343 40.207C15.4446 39.9375 15.2852 39.5838 15.2852 39.2111C15.2852 38.8381 15.4446 38.4847 15.7343 38.2152C16.5279 37.4766 16.9648 36.4903 16.9648 35.4377C16.9648 34.3851 16.5279 33.3984 15.7343 32.6602L13.9962 34.4418Z" fill="white"/>
<path d="M7.36143 34.4418C7.65111 34.7113 7.81055 35.065 7.81055 35.4377C7.81055 35.8103 7.65111 36.1641 7.36143 36.4336C6.56784 37.1719 6.13086 38.1585 6.13086 39.2111C6.13086 40.2637 6.56784 41.2504 7.36143 41.9886L9.09951 40.207C8.80983 39.9375 8.65039 39.5838 8.65039 39.2111C8.65039 38.8381 8.80983 38.4847 9.09951 38.2152C9.8931 37.4766 10.3301 36.4903 10.3301 35.4377C10.3301 34.3851 9.8931 33.3984 9.09951 32.6602L7.36143 34.4418Z" fill="white"/>
<path d="M33.9005 34.4418C34.1902 34.7113 34.3496 35.065 34.3496 35.4377C34.3496 35.8103 34.1902 36.1641 33.9005 36.4336C33.1069 37.1719 32.6699 38.1585 32.6699 39.2111C32.6699 40.2637 33.1069 41.2504 33.9005 41.9886L35.6386 40.207C35.3489 39.9375 35.1895 39.5838 35.1895 39.2111C35.1895 38.8381 35.3489 38.4847 35.6386 38.2152C36.4322 37.4766 36.8691 36.4903 36.8691 35.4377C36.8691 34.3851 36.4322 33.3984 35.6386 32.6602L33.9005 34.4418Z" fill="white"/>
<path d="M13.3535 0H29.6465V8.20312H13.3535V0Z" fill="white"/>
<path d="M0 31.6641H5.12305V28.3828H7.64258V31.6641H10.1621V28.3828H12.6816V31.6641H15.2012V28.3828H17.7207V31.6641H43V24.2812H0V31.6641Z" fill="white"/>
<path d="M31.4554 10.6641H11.5446L0 21.7982V21.8203H43V21.7982L31.4554 10.6641ZM16.4609 19.3594C15.7651 19.3594 15.2012 18.8085 15.2012 18.1289C15.2012 17.4493 15.7651 16.8984 16.4609 16.8984C17.1568 16.8984 17.7207 17.4493 17.7207 18.1289C17.7207 18.8085 17.1568 19.3594 16.4609 19.3594ZM21.5 19.3594C20.8042 19.3594 20.2402 18.8085 20.2402 18.1289C20.2402 17.4493 20.8042 16.8984 21.5 16.8984C22.1958 16.8984 22.7598 17.4493 22.7598 18.1289C22.7598 18.8085 22.1958 19.3594 21.5 19.3594ZM26.5391 19.3594C25.8432 19.3594 25.2793 18.8085 25.2793 18.1289C25.2793 17.4493 25.8432 16.8984 26.5391 16.8984C27.2349 16.8984 27.7988 17.4493 27.7988 18.1289C27.7988 18.8085 27.2349 19.3594 26.5391 19.3594Z" fill="white"/>
</svg>
