<svg width="40" height="40" viewBox="0 0 40 40" fill="none" xmlns="http://www.w3.org/2000/svg">
<path d="M39.7669 6.36695L31.6897 0.123977C31.5104 -0.0145358 31.2681 -0.0390072 31.0646 0.060779C30.8614 0.160644 30.7325 0.367423 30.7325 0.593922V3.59812C27.164 4.23746 23.9214 5.93549 21.3269 8.52906C19.1956 10.6604 17.6502 13.2705 16.8196 16.1256C14.634 14.2801 12.0495 12.9939 9.26897 12.3723V9.73228C9.26897 9.50578 9.14012 9.29892 8.93683 9.19913C8.73345 9.09935 8.49096 9.1239 8.31174 9.26233L4.6381 12.1017C4.37858 12.3023 4.33082 12.6753 4.53135 12.9349C4.73203 13.1945 5.10496 13.2423 5.36456 13.0417L8.08096 10.9421V12.855C8.08096 13.1393 8.28244 13.3838 8.56152 13.4381C11.5171 14.0127 14.2535 15.3876 16.4967 17.421C16.2429 18.6277 16.113 19.869 16.113 21.1167V24.5479C15.7788 23.8603 15.3765 23.2008 14.9074 22.5771C13.3938 20.5642 11.2422 19.0519 8.84892 18.3186C8.66899 18.2636 8.47322 18.2969 8.3218 18.409C8.1703 18.521 8.08096 18.6982 8.08096 18.8866V21.0085L1.56912 15.9752L3.29994 14.6375C3.55946 14.4369 3.60722 14.0639 3.40662 13.8043C3.20601 13.5447 2.833 13.4969 2.5734 13.6975L0.234602 15.5053C0.0891205 15.6178 0.00390625 15.7914 0.00390625 15.9752C0.00390625 16.1591 0.0891205 16.3327 0.234602 16.4452L8.31174 22.6882C8.49112 22.8268 8.73345 22.8512 8.93683 22.7514C9.1402 22.6515 9.26897 22.4447 9.26897 22.2182V19.7228C11.1142 20.4492 12.7583 21.6955 13.9581 23.2909C15.3679 25.1656 16.113 27.3968 16.113 29.7434V39.406C16.113 39.734 16.3789 40 16.707 40H22.5619C22.89 40 23.1559 39.734 23.1559 39.406V32.7859C23.1559 32.4579 22.89 32.1919 22.5619 32.1919C22.2338 32.1919 21.968 32.4579 21.968 32.7859V38.812H17.301V21.1166C17.301 19.8413 17.4446 18.5736 17.7277 17.3483C18.4225 14.3376 19.9577 11.5784 22.167 9.36917C24.7023 6.83468 27.9 5.21656 31.4145 4.68975C31.7053 4.64619 31.9205 4.39641 31.9205 4.10236V1.80371L38.4325 6.83689L31.9205 11.8701V10.0617C31.9205 9.88037 31.8377 9.70899 31.6956 9.59638C31.5534 9.48368 31.3676 9.44211 31.1912 9.48345C28.6121 10.0872 26.2713 11.5648 24.5999 13.644C22.9027 15.7554 21.968 18.4092 21.968 21.1166V30.4099C21.968 30.7379 22.2339 31.0038 22.562 31.0038C22.8901 31.0038 23.156 30.7379 23.156 30.4099V21.1166C23.156 18.679 23.9976 16.2894 25.5259 14.3882C26.8724 12.7129 28.7005 11.4713 30.7326 10.8388V13.0799C30.7326 13.3064 30.8614 13.5132 31.0647 13.613C31.2681 13.7129 31.5106 13.6882 31.6898 13.5498L39.767 7.30684C39.9124 7.19438 39.9977 7.02079 39.9977 6.83689C39.9977 6.653 39.9124 6.47941 39.7669 6.36695Z" fill="black"/>
</svg>
