<svg width="50" height="50" viewBox="0 0 50 50" fill="none" xmlns="http://www.w3.org/2000/svg">
<path d="M18.3727 21.3872H18.1286V17.7255C18.1286 17.0732 17.3374 16.7484 16.8785 17.2077L15.902 18.1841C15.616 18.4702 15.616 18.9338 15.902 19.2197C16.1081 19.4257 16.4063 19.483 16.664 19.3927V21.3872H16.4198C16.0154 21.3872 15.6875 21.7149 15.6875 22.1195C15.6875 22.5241 16.0153 22.8518 16.4198 22.8518H18.3727C18.7771 22.8518 19.1051 22.5241 19.1051 22.1195C19.1051 21.7149 18.7771 21.3872 18.3727 21.3872Z" fill="#FF5E3B"/>
<path d="M22.1383 16.9932C20.9269 16.9932 19.9414 17.9787 19.9414 19.1901V20.6548C19.9414 21.8661 20.9269 22.8518 22.1383 22.8518C23.3498 22.8518 24.3354 21.8661 24.3354 20.6548V19.1901C24.3354 17.9786 23.3498 16.9932 22.1383 16.9932ZM22.8707 20.6549C22.8707 21.0588 22.5422 21.3872 22.1383 21.3872C21.7346 21.3872 21.4061 21.0588 21.4061 20.6549V19.1902C21.4061 18.7863 21.7346 18.4579 22.1383 18.4579C22.5422 18.4579 22.8707 18.7863 22.8707 19.1902V20.6549Z" fill="#FF5E3B"/>
<path d="M27.3688 16.9932C26.1573 16.9932 25.1719 17.9787 25.1719 19.1901V20.6548C25.1719 21.8661 26.1573 22.8518 27.3688 22.8518C28.5803 22.8518 29.5658 21.8661 29.5658 20.6548V19.1901C29.5658 17.9786 28.5804 16.9932 27.3688 16.9932ZM28.1012 20.6549C28.1012 21.0588 27.7727 21.3872 27.3688 21.3872C26.965 21.3872 26.6365 21.0588 26.6365 20.6549V19.1902C26.6365 18.7863 26.965 18.4579 27.3688 18.4579C27.7727 18.4579 28.1012 18.7863 28.1012 19.1902V20.6549Z" fill="#FF5E3B"/>
<path d="M31.1381 18.4568C31.5425 18.4568 31.8705 18.129 31.8705 17.7245C31.8705 17.3199 31.5425 16.9922 31.1381 16.9922C30.7336 16.9922 30.4058 17.3199 30.4058 17.7245C30.4058 18.1289 30.7336 18.4568 31.1381 18.4568Z" fill="#FF5E3B"/>
<path d="M33.9352 17.0845C33.5815 16.8881 33.1358 17.0154 32.9394 17.369L30.4985 21.7628C30.3021 22.1163 30.4296 22.5622 30.7831 22.7586C31.1347 22.9538 31.5815 22.829 31.779 22.4739L34.2198 18.0804C34.4161 17.7268 34.2888 17.2809 33.9352 17.0845Z" fill="#FF5E3B"/>
<path d="M33.5791 21.3862C33.1746 21.3862 32.8467 21.7141 32.8467 22.1185C32.8467 22.523 33.1745 22.8508 33.5791 22.8508C33.9835 22.8508 34.3114 22.523 34.3114 22.1185C34.3114 21.7141 33.9835 21.3862 33.5791 21.3862Z" fill="#FF5E3B"/>
<path d="M0.732422 27.1974C1.13691 27.1974 1.46484 26.8696 1.46484 26.465C1.46484 26.0611 1.79336 25.7326 2.19727 25.7326H47.8027C48.2066 25.7326 48.5352 26.0611 48.5352 26.465C48.5352 26.8696 48.863 27.1974 49.2676 27.1974C49.6722 27.1974 50 26.8696 50 26.465C50 25.2535 49.0143 24.2677 47.8027 24.2677H47.0994C46.9802 23.9442 46.7831 23.6506 46.5203 23.4167L44.0433 21.2122L45.4881 18.2277C46.0414 17.085 45.4711 15.717 44.2763 15.3017L41.1441 14.2131L41.3369 10.9027C41.4107 9.63717 40.3622 8.58971 39.0976 8.66334L35.7872 8.85612L34.6985 5.72409C34.2826 4.52692 32.9135 3.96002 31.7726 4.51207L28.788 5.957L26.5836 3.47994C25.7396 2.5318 24.2589 2.53365 23.4166 3.47994L21.2122 5.957L18.2275 4.51207C17.0893 3.9609 15.7185 4.52457 15.3016 5.72389L14.2129 8.85612L10.9026 8.66334C9.64014 8.58932 8.58945 9.63522 8.66318 10.9027L8.85596 14.2131L5.72402 15.3017C4.52656 15.7177 3.95996 17.0872 4.51201 18.2277L5.95684 21.2122L3.47979 23.4167C3.21699 23.6507 3.01992 23.9442 2.90068 24.2677H2.19727C0.985645 24.2677 0 25.2535 0 26.465C0 26.8696 0.32793 27.1974 0.732422 27.1974ZM7.34414 21.9384C7.58887 21.7208 7.65918 21.367 7.5165 21.0721L5.83037 17.5895C5.65947 17.2365 5.83359 16.8146 6.20478 16.6854L9.85967 15.4149C10.169 15.3074 10.3694 15.0075 10.3504 14.6805L10.1255 10.8175C10.1027 10.4272 10.4234 10.1034 10.8174 10.1256L14.6803 10.3506C15.008 10.3696 15.3071 10.1692 15.4147 9.85993L16.6853 6.20495C16.8136 5.83561 17.2347 5.65856 17.5893 5.83053L21.0721 7.51666C21.3667 7.65914 21.7206 7.58893 21.9384 7.3443L24.5107 4.45367C24.7716 4.16071 25.228 4.16012 25.4894 4.45367L28.0618 7.3443C28.2796 7.58893 28.6335 7.65924 28.928 7.51666L32.4109 5.83043C32.7647 5.65934 33.186 5.83434 33.3149 6.20495L34.5854 9.85993C34.6931 10.1692 34.9931 10.3697 35.3198 10.3506L39.1829 10.1256C39.5757 10.1034 39.8976 10.426 39.8747 10.8175L39.6498 14.6805C39.6308 15.0075 39.8311 15.3074 40.1404 15.4149L43.7955 16.6854C44.1657 16.8142 44.3413 17.2356 44.1698 17.5894L42.4837 21.0721C42.341 21.3671 42.4114 21.7208 42.6561 21.9384L45.2734 24.2678H11.8146C12.1905 17.3805 17.9037 11.7942 25 11.7942H25.0049C31.1973 11.7942 36.6279 16.1898 37.917 22.2455C37.9883 22.5813 38.29 22.8255 38.6328 22.8255C38.6846 22.8255 38.7354 22.8206 38.7861 22.8089C39.1807 22.725 39.4336 22.3352 39.3496 21.9407C39.3496 21.9397 39.3496 21.9397 39.3496 21.9386C37.9346 15.2961 32.0257 10.3293 25.0001 10.3293C17.1688 10.3293 10.7276 16.5037 10.3472 24.2677H4.72686L7.34414 21.9384Z" fill="#FF5E3B"/>
<path d="M49.2676 31.5918C48.863 31.5918 48.5352 31.9196 48.5352 32.3242C48.5352 32.7281 48.2066 33.0566 47.8027 33.0566H2.19727C1.79336 33.0566 1.46484 32.7281 1.46484 32.3242C1.46484 31.9196 1.13691 31.5918 0.732422 31.5918C0.32793 31.5918 0 31.9196 0 32.3242C0 33.5357 0.985645 34.5215 2.19727 34.5215H7.82783L8.86895 35.5626L8.66318 39.0974C8.58975 40.3599 9.63437 41.4105 10.9026 41.3368L14.2129 41.144L15.3016 44.2761C15.7178 45.4735 17.087 46.0403 18.2275 45.4881L21.2121 44.0432L23.4166 46.5202C24.2594 47.4672 25.7412 47.4665 26.5836 46.5202L28.788 44.0432L31.7725 45.4881C32.9132 46.0404 34.2825 45.4733 34.6984 44.2763L35.7871 41.1441L39.0974 41.3369C40.3693 41.4108 41.41 40.3564 41.3368 39.0975L41.1311 35.5627L42.1723 34.5216H47.8027C49.0143 34.5216 50 33.5358 50 32.3243C50 31.9196 49.6722 31.5918 49.2676 31.5918ZM39.6496 35.3196L39.8745 39.1825C39.8974 39.5729 39.5766 39.8972 39.1826 39.8745L35.3196 39.6496C34.9929 39.6304 34.6929 39.831 34.5853 40.1402L33.3147 43.7953C33.1857 44.166 32.7642 44.3409 32.4106 44.1696L28.9278 42.4835C28.6329 42.3408 28.2794 42.4112 28.0616 42.6559L25.4892 45.5465C25.2283 45.8395 24.7719 45.84 24.5106 45.5465L21.9382 42.6559C21.7204 42.4112 21.3667 42.341 21.0719 42.4835L17.5892 44.1697C17.234 44.3415 16.8134 44.1644 16.6852 43.7952L15.4146 40.1402C15.3071 39.831 15.0077 39.6297 14.6803 39.6496L10.8174 39.8745C10.4223 39.8962 10.1027 39.5725 10.1255 39.1825L10.3504 35.3196C10.3626 35.1109 10.285 34.9069 10.1371 34.7592L9.89941 34.5215H34.14C31.689 36.8796 28.4372 38.206 24.9999 38.206C21.956 38.206 19.0937 37.1943 16.7226 35.2822C16.4118 35.0299 15.9511 35.0734 15.6923 35.3916C15.4394 35.7061 15.4882 36.1679 15.8026 36.4219C15.8036 36.4219 15.8036 36.4229 15.8036 36.4229C18.3642 38.4894 21.5787 39.6709 24.9979 39.6709L24.9999 39.666L25.0019 39.6709C29.323 39.6709 33.3652 37.7789 36.152 34.5216H40.1004L39.8627 34.7593C39.715 34.9069 39.6375 35.1109 39.6496 35.3196Z" fill="#FF5E3B"/>
<path d="M4.28096 27.93H4.81836C5.22295 27.93 5.55078 27.6022 5.55078 27.1976C5.55078 26.7931 5.22305 26.4653 4.81836 26.4653H4.28096C2.66572 26.4653 1.35156 27.7794 1.35156 29.3945C1.35156 31.0099 2.66572 32.3239 4.28096 32.3239C5.06338 32.3239 5.79883 32.0192 6.35215 31.4659C6.90547 30.9126 7.21025 30.1771 7.21025 29.3945C7.21025 28.9901 6.88262 28.6623 6.47793 28.6623H5.20918C4.80469 28.6623 4.47676 28.99 4.47676 29.3945C4.47676 29.7992 4.80459 30.127 5.20918 30.127H5.5501C5.48682 30.2365 5.40859 30.3383 5.3167 30.4303C5.03984 30.7069 4.67207 30.8593 4.28096 30.8593C3.47324 30.8593 2.81631 30.2021 2.81631 29.3945C2.81631 28.5871 3.47324 27.93 4.28096 27.93Z" fill="#FF5E3B"/>
<path d="M8.5292 26.4653C8.1248 26.4653 7.79688 26.7931 7.79688 27.1976V29.8486C7.79688 31.2137 8.91367 32.3239 10.2868 32.3239C11.6598 32.3239 12.7767 31.2137 12.7767 29.8486V27.1976C12.7767 26.7932 12.4488 26.4653 12.0444 26.4653C11.6399 26.4653 11.312 26.7931 11.312 27.1976V29.8486C11.312 30.4059 10.852 30.8593 10.2867 30.8593C9.72138 30.8593 9.26142 30.4059 9.26142 29.8486V27.1976C9.26162 26.7931 8.93359 26.4653 8.5292 26.4653Z" fill="#FF5E3B"/>
<path d="M15.5126 26.4653C15.2074 26.4653 14.934 26.6546 14.8269 26.9403L13.1792 31.3344C13.0371 31.7132 13.2292 32.1352 13.6077 32.2771C13.9865 32.4188 14.4085 32.2273 14.5506 31.8486L14.647 31.5915H16.3782L16.4747 31.8486C16.6173 32.2294 17.0413 32.4185 17.4174 32.2771C17.796 32.1352 17.9879 31.7132 17.8459 31.3344L16.1982 26.9403C16.091 26.6546 15.8177 26.4653 15.5126 26.4653ZM15.1961 30.1269L15.5125 29.2832L15.8288 30.1269H15.1961Z" fill="#FF5E3B"/>
<path d="M23.0669 28.6623C23.0669 27.451 22.0868 26.4653 20.8822 26.4653H19.454C19.0496 26.4653 18.7217 26.7931 18.7217 27.1976V31.5916C18.7217 31.9962 19.0495 32.3239 19.454 32.3239C19.8584 32.3239 20.1864 31.9962 20.1864 31.5916V30.8593H20.577L21.8146 32.1072C21.9576 32.2517 22.1461 32.3239 22.3346 32.3239C22.5209 32.3239 22.7073 32.2531 22.8502 32.1116C23.1373 31.8269 23.1393 31.3631 22.8546 31.076L22.1984 30.4144C22.7256 30.0128 23.0669 29.377 23.0669 28.6623ZM20.8822 29.3944H20.1864V27.9299H20.8822C21.2791 27.9299 21.6021 28.2583 21.6021 28.6622C21.6021 29.066 21.2792 29.3944 20.8822 29.3944Z" fill="#FF5E3B"/>
<path d="M26.1772 26.4653C25.872 26.4653 25.5986 26.6546 25.4915 26.9403L23.8438 31.3344C23.7016 31.7132 23.8937 32.1353 24.2723 32.2771C24.6511 32.4188 25.0731 32.2273 25.2152 31.8486L25.3116 31.5915H27.0429L27.1394 31.8486C27.2495 32.1427 27.5286 32.3239 27.825 32.3239C27.9105 32.3239 27.9974 32.309 28.082 32.2771C28.4606 32.1353 28.6524 31.7132 28.5105 31.3344L26.8628 26.9403C26.7556 26.6546 26.4823 26.4653 26.1772 26.4653ZM25.8607 30.127L26.1771 29.2832L26.4934 30.127H25.8607Z" fill="#FF5E3B"/>
<path d="M32.5152 27.1977V29.3547L30.6158 26.7647C30.4285 26.5096 30.0984 26.4033 29.7975 26.502C29.4964 26.6004 29.293 26.8813 29.293 27.1979V31.5918C29.293 31.9964 29.6208 32.3241 30.0253 32.3241C30.4297 32.3241 30.7577 31.9964 30.7577 31.5918V29.4349L32.657 32.0248C33.0723 32.5911 33.9801 32.3027 33.9801 31.5916V27.1976C33.98 26.7932 33.6522 26.4653 33.2477 26.4653C32.8431 26.4654 32.5152 26.7932 32.5152 27.1977Z" fill="#FF5E3B"/>
<path d="M36.7863 32.3239C37.1908 32.3239 37.5187 31.9962 37.5187 31.5916V27.93H38.4464C38.8508 27.93 39.1787 27.6022 39.1787 27.1976C39.1787 26.7931 38.8509 26.4653 38.4464 26.4653H35.1265C34.722 26.4653 34.394 26.7931 34.394 27.1976C34.394 27.6022 34.7219 27.93 35.1265 27.93H36.0541V31.5916C36.0541 31.9962 36.3819 32.3239 36.7863 32.3239Z" fill="#FF5E3B"/>
<path d="M42.5875 27.93C42.992 27.93 43.3198 27.6022 43.3198 27.1976C43.3198 26.7931 42.9921 26.4653 42.5875 26.4653H40.3417C39.9373 26.4653 39.6094 26.7931 39.6094 27.1976V31.5916C39.6094 31.9962 39.9372 32.3239 40.3417 32.3239H42.5875C42.992 32.3239 43.3198 31.9962 43.3198 31.5916C43.3198 31.187 42.992 30.8593 42.5875 30.8593H41.074V30.127H42.0017C42.4062 30.127 42.7339 29.7992 42.7339 29.3945C42.7339 28.99 42.4062 28.6623 42.0017 28.6623H41.074V27.93H42.5875Z" fill="#FF5E3B"/>
<path d="M47.1344 27.93C47.5389 27.93 47.8667 27.6022 47.8667 27.1976C47.8667 26.7931 47.539 26.4653 47.1344 26.4653H44.8886C44.4842 26.4653 44.1562 26.7931 44.1562 27.1976V31.5916C44.1562 31.9962 44.4841 32.3239 44.8886 32.3239H47.1344C47.5389 32.3239 47.8667 31.9962 47.8667 31.5916C47.8667 31.187 47.5389 30.8593 47.1344 30.8593H45.6209V30.127H46.5485C46.953 30.127 47.2808 29.7992 47.2808 29.3945C47.2808 28.99 46.953 28.6623 46.5485 28.6623H45.6209V27.93H47.1344Z" fill="#FF5E3B"/>
</svg>
