<svg width="18" height="20" viewBox="0 0 18 20" fill="none" xmlns="http://www.w3.org/2000/svg">
<path d="M8.45312 19.2188C8.45312 19.6503 8.10339 20 7.67188 20H3.17969C1.45651 20 0.0546875 18.5982 0.0546875 16.875V3.125C0.0546875 1.40182 1.45651 0 3.17969 0H12.7848C14.5078 0 15.9098 1.40182 15.9098 3.125V11.4062C15.9098 11.8378 15.5599 12.1875 15.1285 12.1875C14.697 12.1875 14.3473 11.8378 14.3473 11.4062V3.125C14.3473 2.26349 13.6463 1.5625 12.7848 1.5625H3.17969C2.31818 1.5625 1.61719 2.26349 1.61719 3.125V16.875C1.61719 17.7365 2.31818 18.4375 3.17969 18.4375H7.67188C8.10339 18.4375 8.45312 18.7872 8.45312 19.2188ZM17.6578 12.7242C17.307 12.473 16.8191 12.5539 16.5679 12.9045L12.717 18.2835C12.6119 18.4055 12.4801 18.4317 12.4096 18.4364C12.3366 18.4412 12.1956 18.432 12.0746 18.3168L9.58167 15.923C9.27054 15.6242 8.776 15.6342 8.47708 15.9454C8.17816 16.2567 8.18823 16.7513 8.49951 17.05L10.9949 19.4463C11.3688 19.8019 11.8676 20 12.3809 20C12.425 20 12.4692 19.9985 12.5135 19.9956C13.0726 19.9583 13.5946 19.6864 13.9457 19.2494C13.9547 19.2383 13.9635 19.2267 13.9719 19.2149L17.8383 13.8141C18.0895 13.4633 18.0088 12.9753 17.6578 12.7242ZM12.0035 4.6875H3.95667C3.52515 4.6875 3.17542 5.03723 3.17542 5.46875C3.17542 5.90027 3.52515 6.25 3.95667 6.25H12.0035C12.4349 6.25 12.7848 5.90027 12.7848 5.46875C12.7848 5.03723 12.4349 4.6875 12.0035 4.6875ZM12.7848 8.59375C12.7848 8.16223 12.4349 7.8125 12.0035 7.8125H3.95667C3.52515 7.8125 3.17542 8.16223 3.17542 8.59375C3.17542 9.02527 3.52515 9.375 3.95667 9.375H12.0035C12.4349 9.375 12.7848 9.02527 12.7848 8.59375ZM3.95667 10.9375C3.52515 10.9375 3.17542 11.2872 3.17542 11.7188C3.17542 12.1503 3.52515 12.5 3.95667 12.5H8.84375C9.27527 12.5 9.625 12.1503 9.625 11.7188C9.625 11.2872 9.27527 10.9375 8.84375 10.9375H3.95667Z" fill="#427D1E"/>
</svg>
