<svg width="25" height="25" viewBox="0 0 25 25" fill="none" xmlns="http://www.w3.org/2000/svg">
<path d="M12.4973 0C16.0688 0 18.9883 2.91949 18.9883 6.49094C18.9883 10.0624 16.0688 12.9819 12.4973 12.9819C8.9259 12.9819 6.00642 10.0624 6.00642 6.49094C6.00642 2.91949 8.9259 0 12.4973 0Z" fill="black"/>
<path d="M1.3573 18.169C1.52738 17.7438 1.75411 17.347 2.0092 16.9785C3.31308 15.0511 5.3255 13.7756 7.59308 13.4638C7.8765 13.4355 8.1883 13.4921 8.41508 13.6622C9.60556 14.5409 11.0228 14.9944 12.4967 14.9944C13.9707 14.9944 15.3879 14.5409 16.5784 13.6622C16.8052 13.4921 17.117 13.4071 17.4004 13.4638C19.668 13.7756 21.7088 15.0511 22.9843 16.9785C23.2394 17.347 23.4661 17.7722 23.6362 18.169C23.7212 18.3391 23.6929 18.5375 23.6078 18.7076C23.3811 19.1044 23.0976 19.5013 22.8425 19.8414C22.4457 20.38 22.0205 20.8618 21.5387 21.3153C21.1419 21.7121 20.6884 22.0806 20.2348 22.4491C17.9956 24.1215 15.3028 25.0001 12.525 25.0001C9.74727 25.0001 7.05451 24.1214 4.81531 22.4491C4.3618 22.109 3.9083 21.7121 3.51143 21.3153C3.05793 20.8618 2.60442 20.3799 2.20756 19.8414C1.92414 19.4729 1.66898 19.1044 1.44226 18.7076C1.3006 18.5375 1.27228 18.3391 1.3573 18.169Z" fill="black"/>
<defs>
<clipPath id="clip0">
<rect width="25" height="25" fill="black" transform="matrix(-1 0 0 1 25 0)"/>
</clipPath>
</defs>
</svg>
