<svg xmlns="http://www.w3.org/2000/svg" viewBox="5 1 127 159">
	<g transform="translate(0.000000,166.000000) scale(0.100000,-0.100000)"
	fill="#000000" stroke="none">
	<path d="M40 870 l0 -790 645 0 645 0 0 790 0 790 -645 0 -645 0 0 -790z m439
	743 c-11 -21 -19 -58 -19 -84 l0 -48 -165 -3 c-188 -3 -195 -6 -227 -96 l-16
	-47 -1 158 -1 157 224 0 224 0 -19 -37z m840 -120 l-1 -158 -16 47 c-32 90
	-39 93 -227 96 l-165 3 0 48 c0 26 -8 63 -19 84 l-19 37 224 0 224 0 -1 -157z
	m-509 32 l0 -45 -125 0 -125 0 0 45 0 45 125 0 125 0 0 -45z m406 -180 c7 -19
	14 -37 14 -40 0 -3 -245 -5 -545 -5 -431 0 -543 3 -540 13 2 6 9 24 14 40 l11
	27 515 0 516 0 15 -35z m-1087 -145 c26 0 27 -3 45 -240 9 -107 25 -316 37
	-465 11 -148 25 -288 31 -309 5 -22 23 -52 40 -68 l30 -28 -131 0 -131 0 0
	570 0 571 30 -16 c16 -8 38 -15 49 -15z m1191 -540 l0 -570 -126 0 -126 0 32
	27 c17 14 36 38 41 51 8 21 89 945 89 1013 0 11 7 19 18 19 9 1 28 7 42 15 14
	8 26 14 28 15 1 0 2 -256 2 -570z m-186 493 c-2 -27 -15 -190 -29 -363 -50
	-632 -45 -583 -67 -602 -18 -16 -50 -18 -348 -18 -279 0 -331 2 -344 15 -18
	18 -20 34 -51 440 -14 176 -30 370 -35 430 -6 61 -10 118 -10 128 0 16 28 17
	445 17 l444 0 -5 -47z"/>
	<path d="M380 1135 c-14 -17 -13 -57 16 -585 17 -308 21 -330 64 -330 47 0 48
	24 20 515 -11 187 -20 350 -20 362 0 44 -54 70 -80 38z"/>
	<path d="M656 1134 c-14 -14 -16 -69 -16 -455 l0 -439 26 -12 c18 -9 30 -9 42
	-1 15 9 17 52 20 453 1 319 -1 447 -9 456 -15 19 -44 18 -63 -2z"/>
	<path d="M926 1134 c-9 -8 -16 -27 -16 -42 0 -15 -7 -144 -14 -287 -28 -498
	-30 -554 -16 -570 15 -18 40 -19 63 -2 14 10 19 63 37 387 23 438 24 502 8
	518 -17 17 -44 15 -62 -4z"/>
	</g>
</svg>
