<svg width="29" height="40" viewBox="0 0 29 40" fill="none" xmlns="http://www.w3.org/2000/svg">
<path d="M24.3497 26.0393L22.6935 25.6845L22.6875 25.6825L18.7151 24.8328C18.7419 24.6382 18.7561 24.4421 18.7574 24.2457V22.4009C19.9496 21.6393 20.931 20.5899 21.6112 19.3494C22.2913 18.1089 22.6483 16.7172 22.6492 15.3025V13.7993H23.5568C23.6327 13.7993 23.7079 13.7844 23.7781 13.7553C23.8482 13.7263 23.912 13.6837 23.9657 13.63C24.0194 13.5763 24.062 13.5126 24.091 13.4424C24.12 13.3722 24.135 13.297 24.1349 13.2211V11.2388C24.135 11.1629 24.12 11.0877 24.091 11.0175C24.062 10.9474 24.0194 10.8836 23.9657 10.8299C23.912 10.7762 23.8482 10.7337 23.7781 10.7046C23.7079 10.6756 23.6327 10.6607 23.5568 10.6607H23.1395C23.1154 8.67306 22.427 6.75063 21.1838 5.19956C19.9407 3.64848 18.2143 2.55796 16.2796 2.10167V0.789094C16.2796 0.713157 16.2647 0.637956 16.2357 0.567792C16.2066 0.497627 16.164 0.433874 16.1104 0.380179C16.0567 0.326483 15.9929 0.283898 15.9227 0.254859C15.8526 0.225819 15.7774 0.210894 15.7014 0.210938H12.7281C12.5747 0.210938 12.4277 0.27185 12.3192 0.380276C12.2108 0.488701 12.1499 0.635757 12.1499 0.789094V2.10167C10.2152 2.55796 8.48881 3.64848 7.24565 5.19956C6.0025 6.75063 5.31407 8.67306 5.29001 10.6607H4.87274C4.79681 10.6607 4.72161 10.6756 4.65144 10.7046C4.58128 10.7337 4.51752 10.7762 4.46383 10.8299C4.41013 10.8836 4.36755 10.9474 4.33851 11.0175C4.30947 11.0877 4.29454 11.1629 4.29459 11.2388V13.2211C4.29454 13.297 4.30947 13.3722 4.33851 13.4424C4.36755 13.5126 4.41013 13.5763 4.46383 13.63C4.51752 13.6837 4.58128 13.7263 4.65144 13.7553C4.72161 13.7844 4.79681 13.7993 4.87274 13.7993H5.78028V15.3025C5.78124 16.7172 6.13822 18.1089 6.81835 19.3494C7.49847 20.5899 8.47986 21.6393 9.6721 22.4009V24.2457C9.67344 24.4421 9.68757 24.6382 9.71439 24.8328L5.74196 25.6825H5.73766L4.0805 26.0373C3.06488 26.2578 2.1549 26.8183 1.50101 27.6261C0.847121 28.4339 0.488478 29.4406 0.484375 30.4799V38.7822C0.484375 38.9355 0.545287 39.0826 0.653712 39.191C0.762138 39.2994 0.909194 39.3604 1.06253 39.3604H27.367C27.5203 39.3604 27.6674 39.2994 27.7758 39.191C27.8842 39.0826 27.9451 38.9355 27.9451 38.7822V30.4799C27.9407 29.441 27.5819 28.4348 26.9282 27.6274C26.2745 26.82 25.3649 26.2598 24.3497 26.0393ZM21.9832 10.6607H19.253V7.27435C19.253 7.12101 19.1921 6.97396 19.0836 6.86553C18.9752 6.75711 18.8281 6.6962 18.6748 6.6962C18.5215 6.6962 18.3744 6.75711 18.266 6.86553C18.1576 6.97396 18.0967 7.12101 18.0967 7.27435V10.6607H16.2796V3.28574C17.9012 3.73064 19.3344 4.69049 20.3631 6.02066C21.3918 7.35084 21.9604 8.97929 21.9832 10.6607ZM13.3062 1.36725H15.1233V10.6607H13.3062V1.36725ZM12.1499 3.28607V10.6607H10.3328V7.27435C10.3328 7.12101 10.2719 6.97396 10.1635 6.86553C10.0551 6.75711 9.90803 6.6962 9.75469 6.6962C9.60135 6.6962 9.4543 6.75711 9.34587 6.86553C9.23745 6.97396 9.17654 7.12101 9.17654 7.27435V10.6607H6.44632C6.46908 8.97932 7.03766 7.35089 8.0664 6.02076C9.09513 4.69063 10.5283 3.73086 12.1499 3.28607ZM5.4509 11.817H22.9786V12.6429H5.4509V11.817ZM6.93759 15.3025V13.7993H21.4929V15.3025C21.4929 17.2327 20.7261 19.084 19.3612 20.4489C17.9963 21.8138 16.145 22.5806 14.2148 22.5806C12.2845 22.5806 10.4332 21.8138 9.06832 20.4489C7.7034 19.084 6.93659 17.2327 6.93659 15.3025H6.93759ZM14.2148 23.7336C15.3806 23.7347 16.5339 23.4928 17.6011 23.0233V24.2457C17.6011 25.1438 17.2443 26.0051 16.6093 26.6402C15.9742 27.2753 15.1129 27.632 14.2148 27.632C13.3166 27.632 12.4553 27.2753 11.8202 26.6402C11.1852 26.0051 10.8284 25.1438 10.8284 24.2457V23.0233C11.8956 23.4928 13.0489 23.7347 14.2148 23.7336ZM1.64069 30.4799C1.64422 29.7053 1.9119 28.9552 2.39948 28.3533C2.88706 27.7515 3.56537 27.334 4.32234 27.1699L5.28472 26.9637V38.204H1.64069V30.4799ZM6.44103 26.7162L10.0091 25.9524C10.3128 26.6975 10.8087 27.3488 11.4462 27.8398C12.0837 28.3308 12.84 28.6439 13.6379 28.7474V38.204H6.44103V26.7162ZM14.7929 38.204V28.7474C15.5909 28.644 16.3472 28.3309 16.9847 27.8399C17.6222 27.3489 18.118 26.6976 18.4217 25.9524L21.9898 26.7162V38.204H14.7929ZM26.7888 38.204H23.1448V26.964L24.1075 27.1702C24.8643 27.3344 25.5425 27.7519 26.03 28.3536C26.5176 28.9554 26.7852 29.7054 26.7888 30.4799V38.204Z" fill="black"/>
<path d="M25.3828 32.3594C25.3069 32.3593 25.2317 32.3743 25.1615 32.4033C25.0914 32.4323 25.0276 32.4749 24.9739 32.5286C24.9202 32.5823 24.8776 32.6461 24.8486 32.7162C24.8196 32.7864 24.8046 32.8616 24.8047 32.9375V35.004C24.8047 35.1574 24.8656 35.3044 24.974 35.4128C25.0825 35.5213 25.2295 35.5822 25.3828 35.5822C25.5362 35.5822 25.6832 35.5213 25.7917 35.4128C25.9001 35.3044 25.961 35.1574 25.961 35.004V32.9375C25.961 32.7842 25.9001 32.6371 25.7917 32.5287C25.6832 32.4203 25.5362 32.3594 25.3828 32.3594Z" fill="black"/>
<path d="M11.5242 31.0449H8.55081C8.39748 31.0449 8.25042 31.1058 8.14199 31.2143C8.03357 31.3227 7.97266 31.4697 7.97266 31.6231C7.97266 31.7764 8.03357 31.9235 8.14199 32.0319C8.25042 32.1403 8.39748 32.2012 8.55081 32.2012H11.5242C11.6775 32.2012 11.8246 32.1403 11.933 32.0319C12.0414 31.9235 12.1023 31.7764 12.1023 31.6231C12.1023 31.4697 12.0414 31.3227 11.933 31.2143C11.8246 31.1058 11.6775 31.0449 11.5242 31.0449Z" fill="black"/>
</svg>
