<svg width="40" height="40" viewBox="0 0 40 40" xmlns="http://www.w3.org/2000/svg">
<path d="M39.0881 37.6374V14.8149C39.5929 14.6849 39.9664 14.2278 39.9664 13.6824V9.60889H0V13.6824C0 14.272 0.436099 14.7585 1.00312 14.8399V37.6374C0.480961 37.7552 0.0906379 38.2209 0.0906379 38.7787C0.0906379 39.4254 0.614934 39.9494 1.26161 39.9494H3.08627C3.73263 39.9494 4.25693 39.4254 4.25693 38.7787C4.25693 38.2209 3.86661 37.7552 3.34475 37.6374V22.0232L11.8812 14.8534H28.2097L36.7462 22.0232V37.6374C36.224 37.7552 35.8337 38.2209 35.8337 38.7787C35.8337 39.4254 36.358 39.9494 37.0047 39.9494H38.829C39.4757 39.9494 40 39.4254 40 38.7787C40.0003 38.2209 39.61 37.7552 39.0881 37.6374ZM3.34475 18.9647V14.8534H8.24011L3.34475 18.9647ZM36.7462 18.9647L31.8508 14.8534H36.7462V18.9647Z" fill="white"/>
<path d="M38.4006 7.57907L20.4304 0.165986C20.1445 0.048187 19.8234 0.048187 19.5375 0.165986L1.56738 7.57907H38.4006Z" fill="white"/>
<path d="M29.1911 29.5933H10.7891C10.1425 29.5933 9.61816 30.1176 9.61816 30.7642V34.116C9.61816 34.7627 10.1425 35.287 10.7891 35.287H11.9641V38.7892C11.9641 39.4359 12.4884 39.9599 13.135 39.9599C13.7817 39.9599 14.3057 39.4359 14.3057 38.7892V35.287H25.7871V38.7892C25.7871 39.4359 26.3114 39.9599 26.9581 39.9599C27.6045 39.9599 28.1287 39.4359 28.1287 38.7892V35.287H29.1911C29.8374 35.287 30.3617 34.7627 30.3617 34.116V30.7642C30.3617 30.1176 29.8377 29.5933 29.1911 29.5933Z" fill="white"/>
</svg>
