<svg width="16" height="18" viewBox="0 0 16 18" fill="none" xmlns="http://www.w3.org/2000/svg">
<path d="M15.375 0.542969H0.625C0.279844 0.542969 0 0.893555 0 1.32602C0 7.15098 4.875 6.06422 4.875 10.7226V16.6738C4.875 17.2638 5.37459 17.6344 5.78519 17.3705L10.7852 14.158C10.9938 14.024 11.125 13.755 11.125 13.4613V10.7226C11.125 5.8616 16 7.25031 16 1.32602C16 0.893555 15.7202 0.542969 15.375 0.542969ZM9.875 10.7226V12.9829L6.125 15.3922V10.7226C6.125 5.40086 1.86934 6.00367 1.306 2.10906H14.694C14.0737 6.3977 9.875 4.87672 9.875 10.7226Z" fill="white"/>
</svg>
