<svg width="46" height="46" viewBox="0 0 46 46" fill="none" xmlns="http://www.w3.org/2000/svg">
<path d="M33.0138 28.5485L26.9508 27.6126C26.7737 27.5857 26.592 27.621 26.4388 27.7137C24.3186 28.9876 21.6842 28.9876 19.564 27.7137C19.4099 27.621 19.2298 27.585 19.052 27.6126L12.989 28.5485C10.3522 28.9524 8.4375 31.1837 8.4375 33.8511V46.0002H9.9705V33.8511C9.9705 31.9456 11.3379 30.3528 13.222 30.0639L19.0191 29.1694C21.5011 30.5491 24.5034 30.5476 26.9839 29.1694L32.7809 30.0639C34.6642 30.3528 36.0317 31.9456 36.0317 33.8511V46.0002H37.5647H37.5654V33.8511C37.5652 31.1837 35.6505 28.9524 33.0138 28.5485Z" fill="black"/>
<path d="M29.1326 0.00997266C27.8802 0.00997266 26.7664 0.613992 26.0666 1.54531C25.3668 0.613992 24.2531 0.00997266 23.0006 0.00997266C21.7505 0.00997266 20.639 0.611656 19.9385 1.54064C19.2417 0.60941 18.1318 0.00386328 16.8816 0C16.8771 0 16.8732 0 16.8686 0C14.7607 0 13.043 1.7108 13.0361 3.81944C13.0316 5.3678 13.9514 6.74215 15.3356 7.34536V14.5735C15.3356 14.9965 15.679 15.3399 16.1021 15.3399H29.8991C30.323 15.3399 30.6656 14.9965 30.6656 14.5727V7.34464C32.0399 6.7452 32.9597 5.38083 32.965 3.84477C32.965 3.84396 32.965 3.84325 32.965 3.84244C32.9651 1.72922 31.2459 0.00997266 29.1326 0.00997266ZM29.7075 6.05915C29.3695 6.14657 29.1326 6.45159 29.1326 6.80108V13.8069H16.8686V6.80036C16.8686 6.45087 16.6318 6.14576 16.2937 6.05843C15.2751 5.79474 14.566 4.87645 14.5691 3.82411C14.5729 2.55857 15.6039 1.53229 16.8685 1.53229C16.8709 1.53229 16.8739 1.53229 16.8762 1.53229C18.1409 1.53687 19.1673 2.5663 19.168 3.83022C19.168 3.83408 19.168 3.83866 19.168 3.84244C19.168 4.26551 19.5106 4.60818 19.9337 4.60889H19.9345C20.3569 4.60889 20.6995 4.26704 20.701 3.84468C20.701 3.84387 20.701 3.84316 20.701 3.84235C20.701 3.83929 20.701 3.83696 20.701 3.83471C20.7049 2.56998 21.735 1.54289 23.0004 1.54289C24.2682 1.54289 25.2999 2.57456 25.2999 3.84235C25.2999 4.26542 25.6426 4.6088 26.0664 4.6088C26.4902 4.6088 26.8328 4.26542 26.8328 3.84235C26.8328 2.57456 27.8645 1.54289 29.1323 1.54289C30.3993 1.54289 31.4302 2.57384 31.4317 3.84082C31.4282 4.8857 30.7193 5.7978 29.7075 6.05915Z" fill="black"/>
<path d="M29.8994 13.8071H16.1024C15.6793 13.8071 15.3359 14.1505 15.3359 14.5736V19.1726C15.3359 23.3998 18.7744 26.8376 23.001 26.8376C27.2275 26.8376 30.666 23.3991 30.666 19.1726V14.5736C30.666 14.1505 30.3233 13.8071 29.8994 13.8071ZM29.133 19.1726C29.133 22.5544 26.382 25.3046 23.001 25.3046C19.62 25.3046 16.8689 22.5536 16.8689 19.1726V15.3401H29.133V19.1726Z" fill="black"/>
<path d="M19.9393 24.5356H18.4062V28.3681H19.9393V24.5356Z" fill="black"/>
<path d="M27.6033 24.5356H26.0703V28.3681H27.6033V24.5356Z" fill="black"/>
<path d="M24.5587 28.9521L23.9156 31.523L14.4547 32.9786C14.0807 33.0361 13.8047 33.358 13.8047 33.7359V45.9999H15.3377V34.3943L24.6522 32.961C24.9565 32.9143 25.2033 32.6888 25.2784 32.3892L26.0449 29.3232L24.5587 28.9521Z" fill="black"/>
<path d="M19.9393 39.8657H18.4062V41.3987H19.9393V39.8657Z" fill="black"/>
<path d="M19.9393 35.2666H18.4062V36.7996H19.9393V35.2666Z" fill="black"/>
<path d="M19.9393 44.4648H18.4062V45.9978H19.9393V44.4648Z" fill="black"/>
<path d="M27.6033 39.8657H26.0703V41.3987H27.6033V39.8657Z" fill="black"/>
<path d="M27.6033 35.2666H26.0703V36.7996H27.6033V35.2666Z" fill="black"/>
<path d="M27.6033 44.4648H26.0703V45.9978H27.6033V44.4648Z" fill="black"/>
<path d="M32.2019 34.5H30.6689V45.9975H32.2019V34.5Z" fill="black"/>
<path d="M29.9037 10.7388H18.4062V12.2718H29.9037V10.7388Z" fill="black"/>
<path d="M26.0682 8.43896H24.5352V11.505H26.0682V8.43896Z" fill="black"/>
<path d="M21.4715 8.43896H19.9385V11.505H21.4715V8.43896Z" fill="black"/>
<path d="M21.4402 28.9491L19.9531 29.3208L20.7195 32.3865L22.2065 32.0147L21.4402 28.9491Z" fill="black"/>
</svg>
