<svg width="28" height="28" viewBox="0 0 28 28" fill="none" xmlns="http://www.w3.org/2000/svg">
<path d="M21.2186 20.8059C19.4267 20.8059 17.9492 22.252 17.9492 24.0753C17.9492 25.8672 19.3953 27.3447 21.2186 27.3447C23.0105 27.3447 24.488 25.8986 24.488 24.0753C24.4566 22.2834 23.0105 20.8059 21.2186 20.8059Z" fill="black"/>
<path d="M26.9726 5.21334C26.9097 5.21334 26.8154 5.1819 26.7211 5.1819H6.91605L6.60169 3.07565C6.41307 1.69244 5.21848 0.655029 3.80383 0.655029H1.25746C0.565859 0.655029 0 1.22089 0 1.91249C0 2.6041 0.565859 3.16996 1.25746 3.16996H3.80383C3.96101 3.16996 4.08676 3.2957 4.11819 3.45289L6.06726 16.7191C6.31876 18.3853 7.76484 19.6427 9.46242 19.6427H22.54C24.1747 19.6427 25.5894 18.4796 25.9352 16.8763L27.9786 6.65942C28.1043 5.99925 27.6642 5.33908 26.9726 5.21334Z" fill="black"/>
<path d="M13.204 23.9181C13.1411 22.1891 11.695 20.8059 9.96603 20.8059C8.14271 20.9002 6.7595 22.4092 6.82237 24.2011C6.88525 25.9301 8.29989 27.3133 10.0289 27.3133H10.0918C11.8837 27.219 13.2983 25.71 13.204 23.9181Z" fill="black"/>
</svg>
