<svg width="40" height="40" viewBox="0 0 40 40" fill="none" xmlns="http://www.w3.org/2000/svg">
<path d="M20.4064 6.79443H19.5939C12.5275 6.80131 6.80082 12.528 6.79395 19.5944V20.4069C6.80082 27.4733 12.5275 33.2001 19.5939 33.2069H20.4064C27.4729 33.2001 33.1996 27.4733 33.2064 20.4069V19.5944C33.1996 12.528 27.4729 6.80131 20.4064 6.79443ZM10.0008 26.8269C8.72395 24.9291 8.04293 22.6931 8.0452 20.4057V19.5944C8.04293 17.307 8.72395 15.071 10.0008 13.1732V26.8269ZM13.1258 29.9694C12.4459 29.504 11.8174 28.9677 11.2508 28.3694V11.6307C11.8174 11.0329 12.446 10.4969 13.1258 10.0319V29.9694ZM16.2508 31.4576C15.6046 31.2594 14.9771 31.0045 14.3758 30.6957V9.30443C14.9771 8.99561 15.6046 8.74068 16.2508 8.54256V31.4576ZM19.3758 31.9444C18.7468 31.9333 18.1196 31.8706 17.5008 31.7569V8.24443C18.1196 8.13076 18.7468 8.06803 19.3758 8.05693V31.9444ZM22.5008 31.7557C21.882 31.8694 21.2549 31.9321 20.6258 31.9432V8.05568C21.2549 8.06678 21.882 8.12951 22.5008 8.24318V31.7557ZM25.6258 30.6957C25.0246 31.0045 24.3971 31.2594 23.7508 31.4576V8.54256C24.3971 8.74068 25.0246 8.99561 25.6258 9.30443V30.6957ZM28.7508 28.3694C28.1843 28.9672 27.5557 29.5032 26.8758 29.9682V10.0307C27.5557 10.4957 28.1843 11.0316 28.7508 11.6294V28.3694ZM30.0008 13.1732C31.2777 15.071 31.9587 17.307 31.9564 19.5944V20.4057C31.9587 22.6931 31.2777 24.9291 30.0008 26.8269V13.1732Z" fill="black"/>
<path d="M39.375 15H36.875C36.5298 15 36.25 15.2798 36.25 15.625V17.5H35.4869C34.4691 9.99016 28.0623 4.38539 20.4837 4.375H19.5163C11.9389 4.38695 5.53391 9.99133 4.51625 17.5H3.75V15.625C3.75 15.2798 3.47016 15 3.125 15H0.625C0.279844 15 0 15.2798 0 15.625V24.375C0 24.7202 0.279844 25 0.625 25H3.125C3.47016 25 3.75 24.7202 3.75 24.375V22.5H4.51312C5.53094 30.0098 11.9377 35.6146 19.5163 35.625H20.4837C28.0623 35.6146 34.4691 30.0098 35.4869 22.5H36.25V24.375C36.25 24.7202 36.5298 25 36.875 25H39.375C39.7202 25 40 24.7202 40 24.375V15.625C40 15.2798 39.7202 15 39.375 15ZM2.5 23.75H1.25V16.25H2.5V23.75ZM4.375 21.25H3.75V18.75H4.375V21.25ZM34.375 20.4837C34.3667 28.1523 28.1523 34.3667 20.4837 34.375H19.5163C11.8477 34.3667 5.63328 28.1523 5.625 20.4837V19.5162C5.63328 11.8477 11.8477 5.63328 19.5163 5.625H20.4837C28.1523 5.63328 34.3667 11.8477 34.375 19.5162V20.4837ZM36.25 21.25H35.625V18.75H36.25V21.25ZM38.75 23.75H37.5V16.25H38.75V23.75Z" fill="black"/>
</svg>
