<svg width="19" height="19" viewBox="0 0 19 19" fill="none" xmlns="http://www.w3.org/2000/svg">
<g clip-path="url(#clip0)">
<path d="M2.37331 5.38086L16.6231 5.38086C16.9305 5.38086 17.1797 5.63008 17.1797 5.93749C17.1797 6.2449 16.9305 6.49412 16.6231 6.49412L15.678 6.49412C15.6233 9.18718 14.0865 11.4924 11.9158 12.493L13.3052 18.3139C13.3885 18.6631 13.1237 18.9999 12.7633 18.9999C12.5116 18.9999 12.2833 18.8279 12.2223 18.5724L10.8592 12.8618C10.5969 12.9257 10.3284 12.9714 10.0548 12.9979L10.0548 18.4431C10.0548 18.7505 9.80555 18.9998 9.49815 18.9998C9.19074 18.9998 8.94151 18.7505 8.94151 18.4431L8.94152 12.9979C8.6422 12.9688 8.34896 12.9168 8.06337 12.8432L7.21908 15.8184C7.67626 16.1331 7.97673 16.6599 7.97673 17.2556C7.97673 18.2174 7.19433 18.9998 6.23262 18.9998C5.27091 18.9998 4.48851 18.2174 4.48851 17.2556C4.48851 16.3222 5.22563 15.5578 6.14834 15.5137L7.01446 12.4617C4.87878 11.4451 3.37246 9.15971 3.3184 6.49412L2.37331 6.49412C2.0659 6.49412 1.81668 6.2449 1.81668 5.93749C1.81668 5.63008 2.06587 5.38086 2.37331 5.38086ZM6.23262 16.6248C5.88476 16.6248 5.60177 16.9078 5.60177 17.2556C5.60177 17.6035 5.88476 17.8865 6.23262 17.8865C6.58047 17.8865 6.86346 17.6035 6.86346 17.2556C6.86346 16.9078 6.58047 16.6248 6.23262 16.6248ZM13.3131 10.0061L5.68326 10.0061C7.70973 12.5503 11.2915 12.5442 13.3131 10.0061ZM4.99256 8.89286L14.0038 8.89287C14.3437 8.17047 14.5439 7.35645 14.5646 6.49408L4.43169 6.49408C4.4524 7.35645 4.6526 8.17047 4.99256 8.89286Z" fill="black"/>
<path d="M11.2403 4.37902C10.9329 4.37902 10.6836 4.1298 10.6836 3.82239C10.6836 3.45932 10.6086 3.35738 10.459 3.15421C10.0409 2.58649 9.78562 2.11201 9.78562 1.37485C9.78562 0.959454 9.91795 0.601058 10.0332 0.335286C10.1556 0.0532595 10.4835 -0.076287 10.7654 0.0461718C11.0474 0.168519 11.1769 0.496301 11.0546 0.778327C10.9821 0.94539 10.8989 1.16418 10.8989 1.37481C10.8989 1.84012 11.0699 2.10623 11.3554 2.49405C11.5521 2.76119 11.7969 3.09361 11.7969 3.82236C11.7969 4.1298 11.5477 4.37902 11.2403 4.37902Z" fill="black"/>
<path d="M8.65438 4.37899C8.34697 4.37899 8.09775 4.12977 8.09775 3.82236C8.09775 3.45933 8.02268 3.35735 7.87306 3.15418C7.45432 2.58553 7.19972 2.1105 7.19972 1.37482C7.19972 0.959459 7.33205 0.6011 7.44731 0.33529C7.56962 0.0532268 7.89751 -0.0762084 8.17943 0.046102C8.46149 0.16845 8.59093 0.496231 8.46862 0.778257C8.39614 0.945358 8.31294 1.16415 8.31294 1.37478C8.31294 1.83972 8.48357 2.10556 8.76946 2.49405C8.96617 2.76116 9.21094 3.09358 9.21094 3.82232C9.21101 4.12977 8.96179 4.37899 8.65438 4.37899Z" fill="black"/>
</g>
<defs>
<clipPath id="clip0">
<rect width="19" height="19" fill="white" transform="matrix(-1 -8.74228e-08 -8.74228e-08 1 19 0)"/>
</clipPath>
</defs>
</svg>
