<svg width="43" height="43" viewBox="0 0 43 43" fill="none" xmlns="http://www.w3.org/2000/svg">
<path d="M40.9502 25.1864H40.3068V19.3902C40.3068 18.4726 39.8501 17.6601 39.1526 17.1665V16.3773C39.1526 15.2325 38.2213 14.3012 37.0765 14.3012H36.596L38.4343 11.6036C39.0505 10.6994 38.8162 9.46241 37.912 8.84614L25.4377 0.345238C24.9998 0.0466739 24.4718 -0.0635136 23.9508 0.035336C23.43 0.134018 22.9788 0.429559 22.6803 0.867621L11.9134 16.667H8.91726L9.64011 9.34945C9.64826 9.26698 9.70184 9.19551 9.77659 9.16738C10.7079 8.81624 11.515 8.16049 12.0491 7.32098C12.0912 7.25488 12.1706 7.21709 12.2527 7.22541L16.952 7.68967C17.289 7.72234 17.5887 7.47694 17.622 7.14016C17.6552 6.80338 17.4093 6.50348 17.0725 6.47022L12.3731 6.00595C11.8277 5.95254 11.3075 6.2039 11.0152 6.66313C10.6225 7.28042 10.029 7.76249 9.34432 8.02065C8.82891 8.21499 8.475 8.67792 8.42058 9.22894L7.68588 16.6669H6.90458L8.04777 5.09355C8.08892 4.67698 8.46072 4.37094 8.87779 4.41269L18.3742 5.35079C18.711 5.38329 19.0109 5.13806 19.0442 4.80128C19.0774 4.4645 18.8314 4.1646 18.4947 4.13134L8.99822 3.19323C7.90945 3.08582 6.93582 3.88409 6.82823 4.97303L5.90676 14.3012H4.33751C3.1928 14.3012 2.26142 15.2325 2.26142 16.3773V16.9156C1.32491 17.3468 0.672852 18.2935 0.672852 19.3902V40.2767C0.672852 41.7783 1.89449 43 3.39621 43H37.5835C39.0851 43 40.3068 41.7783 40.3068 40.2767V34.4806H40.9502C41.7098 34.4806 42.3277 33.8627 42.3277 33.1033V26.5638C42.3278 25.8043 41.7098 25.1864 40.9502 25.1864ZM37.0765 15.5267C37.5456 15.5266 37.9271 15.9082 37.9271 16.3773V16.6895C37.8144 16.6752 37.7 16.6671 37.5835 16.6671H34.9837L35.7608 15.5267H37.0765ZM23.6929 1.55764C23.8071 1.39009 23.9797 1.27704 24.1789 1.23925C24.2265 1.23027 24.2743 1.22573 24.3218 1.22573C24.4727 1.22573 24.6202 1.27091 24.7476 1.35775L37.2219 9.85865C37.5678 10.0944 37.6575 10.5676 37.4218 10.9134L33.5009 16.6668H32.56L34.4823 13.8461C34.794 13.3886 34.8197 12.8064 34.5491 12.3266C34.1895 11.6892 34.0437 10.9386 34.1386 10.2131C34.2092 9.6733 33.9716 9.14638 33.5188 8.83782L27.0522 4.43099C26.5992 4.12235 26.0219 4.09405 25.5454 4.35717C24.905 4.71075 24.1531 4.84957 23.4283 4.74812C22.8908 4.6727 22.3457 4.91542 22.0386 5.36599L14.3373 16.6669H13.3963L23.6929 1.55764ZM23.9627 11.9625C21.2945 11.9625 19.1041 14.0431 18.9257 16.6669H15.82L23.051 6.05609C23.0511 6.05609 23.0511 6.05609 23.0511 6.05609C23.0921 5.99571 23.1603 5.95976 23.2302 5.95976C23.2395 5.95976 23.2489 5.96043 23.2582 5.96169C24.244 6.0996 25.2665 5.91097 26.1376 5.42999C26.2061 5.39203 26.2941 5.39749 26.362 5.44368L32.8287 9.85059C32.8964 9.89678 32.9336 9.97673 32.9235 10.0543C32.7944 11.0411 32.9928 12.0618 33.4819 12.9287C33.5211 12.9983 33.5163 13.0875 33.4698 13.156L31.0772 16.6668H29C28.8214 14.0431 26.6312 11.9625 23.9627 11.9625ZM27.7712 16.667H20.1543C20.3298 14.7195 21.9704 13.188 23.9627 13.188C25.9552 13.188 27.5958 14.7195 27.7712 16.667ZM3.48683 16.3773C3.48683 15.9081 3.86837 15.5265 4.33751 15.5265H5.78574L5.67311 16.6669H3.48683V16.3773ZM1.89827 19.3902C1.89827 18.5643 2.57023 17.8923 3.39621 17.8923H37.5835C38.4095 17.8923 39.0813 18.5643 39.0813 19.3902V21.0904H1.89827V19.3902ZM39.0813 40.2767C39.0813 41.1026 38.4095 41.7746 37.5835 41.7746H3.39621C2.57023 41.7746 1.89827 41.1026 1.89827 40.2767V38.5765H5.20238C5.54084 38.5765 5.81505 38.3022 5.81505 37.9639C5.81505 37.6255 5.54075 37.3512 5.20238 37.3512H1.89827V22.3158H39.0813V25.1864H33.2557H33.2556C31.42 25.1864 29.83 26.2563 29.0754 27.8051C29.0729 27.8103 29.0701 27.8153 29.0675 27.8206C29.0611 27.8337 29.0555 27.8474 29.0493 27.8607C28.9595 28.0516 28.8814 28.2492 28.8178 28.4531C28.8176 28.4537 28.8174 28.4542 28.8173 28.4548C28.6816 28.8906 28.6085 29.3536 28.6085 29.8335C28.6085 32.3959 30.6931 34.4806 33.2555 34.4806H33.2556H39.0813V37.3512H9.12563C8.78717 37.3512 8.51296 37.6255 8.51296 37.9639C8.51296 38.3022 8.78725 38.5765 9.12563 38.5765H39.0813V40.2767ZM41.1023 33.1032C41.1023 33.187 41.0341 33.2552 40.9502 33.2552H33.2558C31.9586 33.2552 30.8277 32.5296 30.2476 31.4631C30.2212 31.4147 30.196 31.3655 30.1719 31.3157C30.1238 31.216 30.0804 31.1136 30.042 31.0088C29.9075 30.6421 29.8341 30.2462 29.8341 29.8335C29.8341 29.4208 29.9076 29.0249 30.042 28.6582C30.0805 28.5535 30.1239 28.4511 30.1719 28.3513C30.196 28.3015 30.2212 28.2523 30.2476 28.2039C30.8277 27.1373 31.9586 26.4118 33.2558 26.4118H40.9502C41.0341 26.4118 41.1023 26.48 41.1023 26.5638V33.1032Z" fill="#FF5E3B"/>
<path d="M33.3961 27.3477C32.0253 27.3477 30.9102 28.4629 30.9102 29.8336C30.9102 31.2043 32.0253 32.3194 33.3961 32.3194C34.7669 32.3194 35.882 31.2043 35.882 29.8336C35.882 28.4629 34.7669 27.3477 33.3961 27.3477ZM33.3961 31.094C32.701 31.094 32.1356 30.5286 32.1356 29.8336C32.1356 29.1386 32.701 28.5731 33.3961 28.5731C34.0911 28.5731 34.6566 29.1385 34.6566 29.8336C34.6566 30.5286 34.0911 31.094 33.3961 31.094Z" fill="#FF5E3B"/>
</svg>
