<svg width="30" height="30" viewBox="0 0 30 30" fill="none" xmlns="http://www.w3.org/2000/svg">
<g clip-path="url(#clip0)">
<path d="M7.81274 24.375C5.81149 24.375 4.03149 23.0938 3.38524 21.1863L3.34149 21.0425C3.18899 20.5375 3.12524 20.1125 3.12524 19.6875V11.165L0.0927408 21.2875C-0.297259 22.7763 0.591491 24.32 2.08274 24.7313L21.4115 29.9075C21.6527 29.97 21.894 30 22.1315 30C23.3765 30 24.514 29.1738 24.8327 27.9563L25.959 24.375H7.81274Z" fill="white"/>
<path d="M11.251 11.25C12.6297 11.25 13.751 10.1287 13.751 8.75C13.751 7.37125 12.6297 6.25 11.251 6.25C9.87223 6.25 8.75098 7.37125 8.75098 8.75C8.75098 10.1287 9.87223 11.25 11.251 11.25Z" fill="white"/>
<path d="M26.8755 2.5H8.12549C6.40299 2.5 5.00049 3.9025 5.00049 5.625V19.375C5.00049 21.0975 6.40299 22.5 8.12549 22.5H26.8755C28.598 22.5 30.0005 21.0975 30.0005 19.375V5.625C30.0005 3.9025 28.598 2.5 26.8755 2.5ZM8.12549 5H26.8755C27.2205 5 27.5005 5.28 27.5005 5.625V14.4987L23.5517 9.89125C23.133 9.4 22.5267 9.1375 21.8755 9.1225C21.228 9.12625 20.6205 9.41375 20.2055 9.91125L15.563 15.4837L14.0505 13.975C13.1955 13.12 11.8042 13.12 10.9505 13.975L7.50049 17.4237V5.625C7.50049 5.28 7.78049 5 8.12549 5Z" fill="white"/>
</g>
<defs>
<clipPath id="clip0">
<rect width="30" height="30" fill="white"/>
</clipPath>
</defs>
</svg>
