<svg width="44" height="44" viewBox="0 0 44 44" fill="none" xmlns="http://www.w3.org/2000/svg">
<path d="M38.7582 18.0965C38.7104 16.4424 40.6213 15.4214 40.639 15.4114C40.505 15.1506 39.3267 12.8571 39.4607 13.1178C39.3247 13.1883 36.0894 14.8764 36.1801 18.1695C36.2305 19.9206 37.152 20.8912 37.8242 21.5986C38.441 22.2482 38.7381 22.5931 38.7582 23.3258C38.8061 24.9799 36.8951 26.0008 36.8825 26.0084L38.0558 28.3046C38.1917 28.2341 41.427 26.5459 41.3363 23.2528C41.286 21.5018 40.3645 20.5312 39.6923 19.8237C39.0754 19.1741 38.7783 18.8292 38.7582 18.0965Z" fill="white"/>
<path d="M6.17665 19.8235C5.55979 19.1739 5.2627 18.8291 5.24259 18.0964C5.19473 16.4423 7.10572 15.4213 7.12334 15.4113L5.94505 13.1177C5.80909 13.1881 2.5738 14.8763 2.66447 18.1694C2.71483 19.9205 3.63634 20.8911 4.30854 21.5985C4.9254 22.2481 5.22248 22.593 5.24259 23.3257C5.29046 24.9798 3.37947 26.0007 3.36692 26.0083L4.54014 28.3045C4.67609 28.234 7.91138 26.5458 7.82072 23.2527C7.77036 21.5016 6.84885 20.531 6.17665 19.8235Z" fill="white"/>
<path d="M20.7109 10.3984H23.2891V15.5547H20.7109V10.3984Z" fill="white"/>
<path d="M31.2558 10.3984H25.8672V18.1328H23.2891V28.4453H34.2633L31.2558 10.3984Z" fill="white"/>
<path d="M12.7443 10.3984L9.73682 28.4453H20.711V18.1328H18.1329V10.3984H12.7443Z" fill="white"/>
<path d="M34.693 31.0234H9.30736L7.58887 41.4219H12.9767V44H15.5548V41.4219H28.4455V44H31.0236V41.4219H36.4114L34.693 31.0234ZM25.8673 37.4688H18.133V34.8906H25.8673V37.4688Z" fill="white"/>
<path d="M34.8906 6.53125C34.8906 2.97155 29.1192 0 22 0C14.8808 0 9.10938 2.97155 9.10938 6.53125V7.82031H34.8906V6.53125Z" fill="white"/>
</svg>
