<svg width="20" height="20" viewBox="0 0 20 20" fill="none" xmlns="http://www.w3.org/2000/svg">
<path d="M20 10C20 15.5128 15.5128 20 10 20C4.48718 20 0 15.5128 0 10C0 4.48718 4.48718 0 10 0C15.5128 0 20 4.48718 20 10Z" fill="#489CF7"/>
<path d="M10.1272 7.82029C9.61438 7.82029 9.10156 7.30747 9.10156 6.79465V2.94849C9.10156 2.43567 9.61438 1.92285 10.1272 1.92285C10.64 1.92285 11.1528 2.43567 11.1528 2.94849V6.79465C11.1528 7.43567 10.64 7.82029 10.1272 7.82029Z" fill="white"/>
<path d="M7.69323 9.61496C7.56502 10.1278 6.924 10.3842 6.41118 10.256L2.69323 9.10214C2.18041 8.84573 1.924 8.3329 2.0522 7.69188C2.18041 7.17906 2.82143 6.79444 3.33425 7.05085L7.0522 8.2047C7.56502 8.46111 7.94964 8.97393 7.69323 9.61496Z" fill="white"/>
<path d="M8.5895 12.4355C9.10232 12.8202 9.10232 13.4612 8.84591 13.8458L6.53822 16.9227C6.1536 17.4355 5.51257 17.4355 5.12796 17.1791C4.61514 16.7945 4.61514 16.1535 4.87155 15.7689L7.17924 12.692C7.56386 12.1791 8.20488 12.0509 8.5895 12.4355Z" fill="white"/>
<path d="M12.435 9.61517C12.5632 10.128 13.2042 10.5126 13.7171 10.2562L17.435 9.10235C17.9478 8.97414 18.3325 8.33312 18.076 7.8203C17.9478 7.30748 17.3068 6.92286 16.794 7.17927L13.076 8.33312C12.5632 8.46132 12.3068 8.97414 12.435 9.61517Z" fill="white"/>
<path d="M11.5381 12.4355C11.0253 12.8202 11.0253 13.4612 11.2817 13.8458L13.5894 16.9227C13.974 17.4355 14.615 17.4355 14.9997 17.1791C15.5125 16.7945 15.5125 16.1535 15.2561 15.7689L12.9484 12.692C12.692 12.1791 12.0509 12.0509 11.5381 12.4355Z" fill="white"/>
</svg>
