<svg width="20" height="20" viewBox="0 0 20 20" fill="none" xmlns="http://www.w3.org/2000/svg">
<path d="M20 10C20 15.5128 15.5128 20 10 20C4.48718 20 0 15.5128 0 10C0 4.48718 4.48718 0 10 0C15.5128 0 20 4.48718 20 10Z" fill="#EE3023"/>
<path d="M10.1293 15.6411C7.437 15.6411 4.48828 13.3334 4.48828 9.48721C4.48828 7.05131 5.77033 4.61541 7.5652 3.20515C9.23187 1.7949 11.5396 0.897461 13.5908 0.897461C13.8473 0.897461 14.1037 0.897461 14.3601 1.02567C12.437 1.28208 11.0267 3.07695 11.0267 5.00003C11.0267 5.12823 11.0267 5.12823 11.0267 5.12823C14.1037 5.89746 15.5139 7.69233 15.5139 10.2564C15.5139 12.8205 13.4626 15.6411 10.1293 15.6411Z" fill="white"/>
</svg>
