<svg width="40" height="40" viewBox="0 0 40 40" fill="none" xmlns="http://www.w3.org/2000/svg">
<path d="M0.131133 4.00183L2.76945 8.61861C2.85844 8.77462 3.0074 8.88749 3.18159 8.93117L5.643 9.54653L14.0851 17.9887L15.0179 17.0561L6.44367 8.48214C6.35929 8.39749 6.25347 8.33752 6.13762 8.30849L3.77252 7.71512L1.52626 3.78206L3.45209 1.85623L7.38678 4.10466L7.98043 6.46976C8.00919 6.58588 8.06942 6.69197 8.1538 6.77635L16.7281 15.3506L17.6606 14.4178L9.21846 5.97568L8.60311 3.51562C8.55942 3.34116 8.44656 3.19194 8.29055 3.10267L3.67349 0.464625C3.41601 0.318113 3.09205 0.361524 2.88205 0.570712L0.244002 3.20903C0.0318298 3.41767 -0.0142946 3.74217 0.131133 4.00183Z" fill="black"/>
<path d="M27.5521 13.3715L13.0422 27.8817L12.1094 26.9489L26.6196 12.439L27.5521 13.3715Z" fill="black"/>
<path d="M10.5045 28.3951C10.3851 28.1965 10.1708 28.0752 9.93907 28.0752H5.98186C5.75043 28.0752 5.53581 28.1965 5.4167 28.3951L3.43797 31.6927C3.31234 31.9016 3.31234 32.1629 3.43797 32.3721L5.4167 35.6697C5.53581 35.8681 5.75043 35.9896 5.98186 35.9896H9.93907C10.1708 35.9896 10.3851 35.8681 10.5045 35.6697L12.483 32.3721C12.6086 32.1629 12.6086 31.9016 12.483 31.6927L10.5045 28.3951ZM9.566 34.6705H6.3552L4.77232 32.0324L6.3552 29.3941H9.566L11.1489 32.0324L9.566 34.6705Z" fill="black"/>
<path d="M31.7016 16.2035C36.0577 16.2181 39.6011 12.6986 39.6158 8.34251C39.6179 7.67941 39.5365 7.01901 39.3735 6.37626C39.2856 6.02273 38.9277 5.80757 38.5742 5.89548C38.4581 5.92451 38.3522 5.98447 38.2676 6.06885L34.162 10.1718L30.9045 9.0862L29.8181 5.82955L33.9237 1.72312C34.1812 1.46537 34.181 1.0478 33.9232 0.790322C33.8383 0.705399 33.7314 0.645166 33.6144 0.616406C29.39 -0.453409 25.0985 2.10378 24.0287 6.32796C23.8662 6.96882 23.7851 7.62758 23.7872 8.28879C23.7889 8.8081 23.8423 9.32578 23.9476 9.83423L9.50331 24.2782C8.99485 24.1732 8.47717 24.1198 7.95814 24.1179C3.5869 24.1179 0.043457 27.6613 0.043457 32.0325C0.043457 36.4035 3.5869 39.9469 7.95814 39.9469C12.3291 39.9469 15.8725 36.4035 15.8725 32.0325C15.8709 31.5132 15.8172 30.9956 15.7122 30.4871L19.1702 27.0291L20.6825 28.5415C20.9403 28.7989 21.3576 28.7989 21.6153 28.5415L21.945 28.2115C22.2342 27.9242 22.7017 27.9242 22.9909 28.2115C23.2799 28.4997 23.2804 28.9674 22.9923 29.2564C22.992 29.2567 22.9914 29.2572 22.9909 29.2577L22.6612 29.5874C22.4038 29.8449 22.4038 30.2624 22.6612 30.5199L30.529 38.3877C32.5984 40.476 35.9687 40.4912 38.057 38.4218C40.1451 36.3525 40.1603 32.9819 38.091 30.8938C38.0798 30.8824 38.0684 30.871 38.057 30.8596L30.1893 22.9922C29.9318 22.7347 29.5143 22.7347 29.2568 22.9922L28.9271 23.3218C28.6376 23.6094 28.1704 23.6094 27.8809 23.3218C27.5922 23.0337 27.5914 22.5659 27.8795 22.2772C27.8801 22.2767 27.8806 22.2764 27.8809 22.2759L28.2108 21.9459C28.4683 21.6885 28.4683 21.2709 28.2108 21.0134L26.6985 19.5011L30.1565 16.0431C30.6649 16.1481 31.1826 16.2018 31.7016 16.2035ZM34.293 38.6281C33.8139 38.6272 33.3388 38.5407 32.8903 38.3722L38.0413 33.2209C38.8186 35.2886 37.7727 37.5949 35.705 38.3722C35.2538 38.5418 34.7754 38.6286 34.293 38.6281ZM26.8211 21.4863C26.0907 22.3575 26.2052 23.6561 27.0764 24.3862C27.8421 25.0279 28.958 25.0273 29.7229 24.3843L37.1245 31.7924C37.2048 31.873 37.28 31.9579 37.3527 32.0442L31.7136 37.6833C31.627 37.6109 31.5421 37.5357 31.4615 37.4551L24.0542 30.0473C24.7846 29.1761 24.6701 27.8775 23.7989 27.1474C23.0332 26.5055 21.917 26.5063 21.1522 27.1491L20.097 26.0939L25.7657 20.4336L26.8211 21.4863ZM29.4844 14.8528L14.5225 29.8118C14.3583 29.9757 14.2924 30.2136 14.3483 30.4385C15.2531 33.992 13.1059 37.6063 9.55214 38.5108C5.99866 39.4157 2.38441 37.2685 1.47955 33.7147C0.574973 30.1612 2.7222 26.547 6.27595 25.6421C7.35092 25.3687 8.47717 25.3687 9.55214 25.6421C9.77707 25.6972 10.0145 25.6313 10.1789 25.4682L25.1373 10.509C25.3012 10.3451 25.3671 10.1072 25.3107 9.88252C24.4121 6.37056 26.5305 2.7951 30.0425 1.89622C30.7062 1.72665 31.3926 1.66153 32.0763 1.70413L28.5972 5.18462C28.4206 5.36098 28.3587 5.62226 28.4377 5.85912L29.7565 9.81659C29.8225 10.0133 29.9771 10.168 30.1741 10.2333L34.1316 11.5525C34.3682 11.6315 34.6295 11.5699 34.8061 11.3935L38.2852 7.91437C38.2931 8.04026 38.2972 8.1648 38.2972 8.28879C38.3156 11.9128 35.3929 14.8656 31.7689 14.8843C31.2086 14.887 30.6503 14.8181 30.1076 14.6792C29.8827 14.623 29.6448 14.6887 29.4809 14.8526H29.4844V14.8528Z" fill="black"/>
<path d="M34.1492 33.5445L33.2164 34.4773L26.6211 27.882L27.5536 26.9492L34.1492 33.5445Z" fill="black"/>
</svg>
