<svg width="40" height="40" viewBox="0 0 40 40" fill="none" xmlns="http://www.w3.org/2000/svg">
<path d="M35 20C35 16.7319 32.8956 13.9531 29.9731 12.9281C29.9813 12.7844 30 12.6431 30 12.5C30 8.36437 26.6356 5 22.5 5C20.0337 5 17.8488 6.20188 16.4813 8.04438C15.8388 7.69 15.1231 7.5 14.375 7.5C11.9625 7.5 10 9.46313 10 11.875C10 13.0988 10.5063 14.2056 11.3188 15H5.625C5.28 15 5 15.2794 5 15.625C5 15.9706 5.28 16.25 5.625 16.25H18.75C20.1287 16.25 21.25 15.1287 21.25 13.75C21.25 13.4044 20.97 13.125 20.625 13.125C20.28 13.125 20 13.4044 20 13.75C20 14.4394 19.4394 15 18.75 15H14.375C12.6519 15 11.25 13.5981 11.25 11.875C11.25 10.1519 12.6519 8.75 14.375 8.75C14.8869 8.75 15.3781 8.87188 15.8212 9.10438C15.3 10.1256 15 11.2775 15 12.5C15 12.8456 15.28 13.125 15.625 13.125C15.97 13.125 16.25 12.8456 16.25 12.5C16.25 9.05375 19.0538 6.25 22.5 6.25C25.9463 6.25 28.75 9.05375 28.75 12.5C28.75 12.5375 28.7437 12.5744 28.7431 12.6119C28.3375 12.5438 27.9244 12.5 27.5 12.5H25.625C25.28 12.5 25 12.7794 25 13.125C25 13.4706 25.28 13.75 25.625 13.75H27.5C30.9463 13.75 33.75 16.5538 33.75 20C33.75 23.4463 30.9463 26.25 27.5 26.25H25.625C25.28 26.25 25 26.5294 25 26.875C25 27.2206 25.28 27.5 25.625 27.5H27.5C27.9244 27.5 28.3375 27.4562 28.7431 27.3881C28.7437 27.4256 28.75 27.4619 28.75 27.5C28.75 30.9463 25.9463 33.75 22.5 33.75C19.0538 33.75 16.25 30.9463 16.25 27.5C16.25 27.1544 15.97 26.875 15.625 26.875C15.28 26.875 15 27.1544 15 27.5C15 28.7225 15.3 29.8744 15.8212 30.895C15.3775 31.1275 14.8869 31.25 14.375 31.25C12.6519 31.25 11.25 29.8481 11.25 28.125C11.25 26.4019 12.6519 25 14.375 25H18.75C19.4394 25 20 25.5606 20 26.25C20 26.5956 20.28 26.875 20.625 26.875C20.97 26.875 21.25 26.5956 21.25 26.25C21.25 24.8713 20.1287 23.75 18.75 23.75H5.625C5.28 23.75 5 24.0294 5 24.375C5 24.7206 5.28 25 5.625 25H11.3188C10.5063 25.7944 10 26.9013 10 28.125C10 30.5369 11.9625 32.5 14.375 32.5C15.1231 32.5 15.8394 32.31 16.4813 31.9556C17.8488 33.7981 20.0337 35 22.5 35C26.6356 35 30 31.6356 30 27.5C30 27.3569 29.9813 27.2156 29.9731 27.0719C32.8956 26.0469 35 23.2681 35 20Z" fill="black"/>
<path d="M31.25 20C31.25 17.9319 29.5681 16.25 27.5 16.25C25.4319 16.25 23.75 17.9319 23.75 20C23.75 22.0681 25.4319 23.75 27.5 23.75C29.5681 23.75 31.25 22.0681 31.25 20ZM25 20C25 18.6212 26.1212 17.5 27.5 17.5C28.8787 17.5 30 18.6212 30 20C30 21.3787 28.8787 22.5 27.5 22.5C26.1212 22.5 25 21.3787 25 20Z" fill="black"/>
<path d="M21.875 20.625C22.22 20.625 22.5 20.3456 22.5 20C22.5 19.6544 22.22 19.375 21.875 19.375H6.875C6.53 19.375 6.25 19.6544 6.25 20C6.25 20.3456 6.53 20.625 6.875 20.625H21.875Z" fill="black"/>
</svg>
