<svg width="20" height="16" viewBox="0 0 20 16" fill="none" xmlns="http://www.w3.org/2000/svg">
<path d="M19.6398 7.18598L17.3308 2.94913H19.0043C19.3009 2.94913 19.5551 2.69491 19.5551 2.39833C19.5551 2.10175 19.3009 1.84754 19.0043 1.84754H11.9076C11.611 0.788329 10.4882 0.173985 9.42902 0.470565C8.75113 0.661223 8.2427 1.19083 8.05204 1.84754H0.97649C0.67991 1.84754 0.425698 2.10175 0.425698 2.39833C0.425698 2.69491 0.67991 2.94913 0.97649 2.94913H2.65005L0.340961 7.18598C0.129118 7.27072 -0.0191716 7.48256 0.00201268 7.71559C0.00201268 9.68573 1.61202 11.2957 3.58216 11.2957C5.5523 11.2957 7.1623 9.68573 7.1623 7.71559C7.1623 7.48256 7.01401 7.29191 6.82335 7.20717L4.49308 2.92794H8.09441C8.28507 3.58465 8.79349 4.11426 9.47139 4.30492V12.2702C7.98849 12.5244 6.90809 13.8378 6.90809 15.3419C6.90809 15.6385 7.1623 15.8927 7.45888 15.8927H12.6067C12.9032 15.8927 13.1575 15.6385 13.1575 15.3419C13.1575 13.8378 12.0771 12.5456 10.5942 12.2702V4.32611C11.2509 4.13545 11.7805 3.62702 11.9711 2.94913H15.5725L13.1998 7.18598C12.9668 7.27072 12.8185 7.48256 12.8397 7.71559C12.8397 9.68573 14.4497 11.2957 16.4198 11.2957C18.39 11.2957 20 9.68573 20 7.71559C20 7.48256 19.8729 7.27072 19.6398 7.18598ZM5.5523 7.14362H1.61202L3.58216 3.5211L5.5523 7.14362ZM14.4709 7.14362L16.441 3.5211L18.4112 7.14362H14.4709Z" fill="black"/>
</svg>
