<svg width="14" height="24" viewBox="0 0 14 24" fill="none" xmlns="http://www.w3.org/2000/svg">
<path d="M13.0979 12.8277L3.08515 22.8403C2.85357 23.072 2.54442 23.1997 2.21479 23.1997C1.88516 23.1997 1.57602 23.072 1.34443 22.8403L0.607059 22.1031C0.127246 21.6227 0.127246 20.842 0.607059 20.3624L9.01504 11.9544L0.597731 3.53707C0.366148 3.3053 0.238283 2.99634 0.238283 2.66689C0.238283 2.33708 0.366148 2.02812 0.597732 1.79617L1.3351 1.05916C1.56687 0.827395 1.87583 0.699714 2.20546 0.699714C2.5351 0.699714 2.84424 0.827396 3.07582 1.05916L13.0979 11.0809C13.3301 11.3134 13.4576 11.6238 13.4568 11.9538C13.4576 12.2851 13.3301 12.5953 13.0979 12.8277Z" fill="black"/>
</svg>
