<svg width="40" height="40" viewBox="0 0 40 40" fill="none" xmlns="http://www.w3.org/2000/svg">

<path d="M31.2973 37.3228H8.70357C5.31561 37.3228 2.27951 35.7893 0.251465 33.3804C1.18451 37.1855 4.61475 39.9999 8.70357 39.9999H31.2973C35.3926 39.9999 38.8168 37.1805 39.7491 33.3808C37.7211 35.7894 34.6851 37.3228 31.2973 37.3228Z" fill="white"/>
<path d="M24.1899 23.9661C23.7475 23.5238 23.1348 23.2701 22.5087 23.2701C21.8826 23.2701 21.27 23.5238 20.8275 23.9661C19.9354 24.8583 18.7498 25.3492 17.4886 25.3492C16.2273 25.3492 15.0417 24.8583 14.1496 23.9661C13.7072 23.5238 13.0945 23.2701 12.4684 23.2701C11.8423 23.2701 11.2296 23.5238 10.7872 23.9661C9.85949 24.8938 8.65715 25.4449 7.36426 25.5466V26.2761C7.36426 27.0178 7.96566 27.6147 8.70285 27.6147H31.2966C32.0383 27.6147 32.6352 27.0133 32.6352 26.2761V23.0845C31.9684 23.177 31.3524 23.4816 30.8679 23.9661C29.9758 24.8583 28.7902 25.3492 27.5289 25.3492C26.2677 25.3492 25.082 24.8583 24.1899 23.9661Z" fill="white"/>
<path d="M7.36475 19.2707V23.1909C8.03076 23.098 8.64592 22.7935 9.1299 22.3096C10.022 21.4174 11.2076 20.9265 12.4689 20.9265C13.7301 20.9265 14.9158 21.4174 15.8079 22.3096C16.2502 22.752 16.863 23.0056 17.489 23.0056C18.1151 23.0056 18.7278 22.752 19.1702 22.3096C20.0623 21.4174 21.248 20.9265 22.5092 20.9265C23.7705 20.9265 24.9561 21.4174 25.8482 22.3096C26.2905 22.752 26.9033 23.0056 27.5294 23.0056C28.1555 23.0056 28.7681 22.752 29.2105 22.3096C30.1388 21.3813 31.3419 20.8302 32.6357 20.729V16.8086C31.9689 16.9011 31.3529 17.2057 30.8684 17.6902C29.9763 18.5824 28.7907 19.0734 27.5294 19.0734C26.2682 19.0734 25.0826 18.5824 24.1905 17.6902C23.7481 17.2479 23.1354 16.9942 22.5093 16.9942C21.8832 16.9942 21.2705 17.2479 20.8281 17.6902C19.936 18.5824 18.7504 19.0734 17.4891 19.0734C16.2279 19.0734 15.0422 18.5824 14.1501 17.6902C13.7078 17.2479 13.0951 16.9942 12.469 16.9942C11.8429 16.9942 11.2302 17.2479 10.7878 17.6902C9.85998 18.618 8.65771 19.169 7.36475 19.2707Z" fill="white"/>
<path d="M31.2969 5.021H31.2136H28.8698H28.5365V10.0419H31.2969C33.3423 10.0419 34.9792 11.6995 34.9792 13.7242V26.2762C34.9792 28.3216 33.3216 29.9586 31.2969 29.9586H8.70312C6.65773 29.9586 5.02078 28.3009 5.02078 26.2762V13.7241C5.02078 11.6787 6.67844 10.0418 8.70312 10.0418H11.4635V5.021H8.70312C3.88813 5.021 0 8.91803 0 13.7241V26.2762C0 31.0912 3.89711 34.9793 8.70312 34.9793H31.2969C36.1119 34.9793 40 31.0822 40 26.2762V13.7241C40 8.90912 36.1029 5.021 31.2969 5.021Z" fill="white"/>
<path d="M18.4946 5.021H21.505V10.0419H18.4946V5.021Z" fill="white"/>
<path d="M11.4632 12.3853H8.70285C7.96113 12.3853 7.36426 12.9867 7.36426 13.7238V16.9146C8.03027 16.8217 8.64543 16.5171 9.12941 16.0332C9.77949 15.3831 10.5857 14.9473 11.4632 14.7579V12.3853Z" fill="white"/>
<path d="M18.4946 16.5044C18.744 16.3881 18.9737 16.2293 19.1699 16.0332C19.8203 15.3828 20.6271 14.9468 21.5051 14.7576V12.3853H18.4947V16.5044H18.4946Z" fill="white"/>
<path d="M32.6351 14.4526V13.7238C32.6351 12.9821 32.0337 12.3853 31.2965 12.3853H28.5361V16.5038C28.785 16.3875 29.0142 16.2289 29.21 16.0331C30.1382 15.1049 31.3414 14.5538 32.6351 14.4526Z" fill="white"/>
<path d="M16.1509 16.3162V3.68234C16.1509 2.9443 16.7513 2.34375 17.4894 2.34375C17.8268 2.34375 18.1346 2.47023 18.3703 2.67711H21.0311C20.5924 1.13391 19.1713 0 17.4894 0C15.459 0 13.8071 1.65195 13.8071 3.68234V14.8424C14.5551 15.0623 15.2407 15.4665 15.8075 16.0334C15.913 16.1387 16.0283 16.233 16.1509 16.3162Z" fill="white"/>
<path d="M26.1925 16.3171V3.68234C26.1925 2.9443 26.7929 2.34375 27.531 2.34375C27.8684 2.34375 28.1762 2.47023 28.4119 2.67711H31.0726C30.6339 1.13391 29.2128 0 27.5309 0C25.5005 0 23.8486 1.65195 23.8486 3.68234V14.8428C24.5961 15.0628 25.2812 15.4668 25.8477 16.0334C25.9536 16.1391 26.0693 16.2337 26.1925 16.3171Z" fill="white"/>
</svg>
