<svg width="40" height="40" viewBox="0 0 40 40" fill="none" xmlns="http://www.w3.org/2000/svg">
<path d="M34.6484 21.2109V4.10156C34.6484 3.13234 33.8598 2.34375 32.8906 2.34375H7.10938C6.14016 2.34375 5.35156 3.13234 5.35156 4.10156V21.2109C5.35156 22.1802 6.14016 22.9688 7.10938 22.9688H32.8906C33.8598 22.9688 34.6484 22.1802 34.6484 21.2109ZM24.1016 3.51562H26.4453V8.05133C26.1116 7.78125 25.7485 7.53219 25.3537 7.30844C24.962 7.08641 24.5422 6.89039 24.1016 6.7207V3.51562ZM20.5859 3.51562H22.9297V6.34617C22.1804 6.15188 21.3912 6.02883 20.5859 5.98281V3.51562ZM17.0703 3.51562H19.4141V5.97234C18.6391 6.00711 17.8455 6.12609 17.0703 6.3275V3.51562ZM13.5547 3.51562H15.8984V6.70164C15.0506 7.02539 14.2513 7.45344 13.5547 7.98266V3.51562ZM12.3828 21.7969H10.0391V14.2453C10.0391 13.9216 9.7768 13.6594 9.45312 13.6594C9.12945 13.6594 8.86719 13.9216 8.86719 14.2453V21.7969H7.10938C6.78625 21.7969 6.52344 21.5341 6.52344 21.2109V4.10156C6.52344 3.77844 6.78625 3.51562 7.10938 3.51562H8.86719V11.5109C8.86719 11.8346 9.12945 12.0969 9.45312 12.0969C9.7768 12.0969 10.0391 11.8346 10.0391 11.5109V3.51562H12.3828V9.09297C11.781 9.81312 11.3446 10.653 11.147 11.6085C11.0077 12.282 11.0909 12.8505 11.3944 13.2984C11.6203 13.6317 11.9521 13.8733 12.3828 14.0209V21.7969ZM15.8984 21.7969H13.5547V14.2327C13.8541 14.263 14.149 14.2826 14.4323 14.2982C14.9872 14.3288 15.4731 14.433 15.8984 14.6122V21.7969ZM19.4141 21.7969H17.0703V15.4459C17.5969 15.9817 18.0674 16.589 18.4657 17.1248C18.7388 17.4923 19.0589 17.8192 19.4141 18.1021V21.7969ZM22.9297 21.7969H20.5859V18.8196C21.3134 19.1516 22.1147 19.3352 22.9297 19.349V21.7969ZM26.4453 21.7969H24.1016V19.2501C24.9572 19.089 25.76 18.7233 26.4453 18.2015V21.7969ZM27.6005 11.8909C27.752 12.5109 27.7859 13.1515 27.7013 13.795C27.572 14.7798 27.1859 15.6772 26.6189 16.3995C25.9446 17.2585 25.1259 17.8201 24.0498 18.0646C22.3196 18.4579 20.4366 17.8123 19.4062 16.4258C18.9249 15.7781 18.3414 15.0291 17.6631 14.385C16.8197 13.5841 15.7261 13.196 14.497 13.128C14.0206 13.1017 13.5127 13.0655 13.0255 12.9791C12.6999 12.9214 12.4775 12.8076 12.3645 12.6408C12.2161 12.4218 12.2445 12.0877 12.2945 11.8459C12.6704 10.0291 14.0838 8.9218 15.2034 8.31273C17.1598 7.24844 19.628 6.915 21.8254 7.28398C22.2435 7.33328 22.7526 7.42992 23.3118 7.61992C25.5068 8.36586 27.1572 10.076 27.6005 11.8909ZM29.9609 21.7969H27.6172V17.0211C28.2694 16.1548 28.712 15.0994 28.8633 13.9476C28.9667 13.1597 28.9249 12.3742 28.739 11.6129C28.5275 10.7469 28.1477 9.9557 27.6172 9.25484V3.51562H29.9609V21.7969ZM31.1328 3.51562H32.8906C33.2138 3.51562 33.4766 3.77844 33.4766 4.10156V21.2109C33.4766 21.5341 33.2138 21.7969 32.8906 21.7969H31.1328V3.51562ZM32.8906 0H7.10938C4.84781 0 3.00781 1.84 3.00781 4.10156V21.2109C3.00781 23.4725 4.84781 25.3125 7.10938 25.3125H18.0875V29.8849C17.5209 30.4036 17.165 31.1488 17.165 31.9756V37.165C17.165 38.7283 18.4367 40 20 40C21.5633 40 22.835 38.7283 22.835 37.165V31.9756C22.835 31.1488 22.4791 30.4036 21.9125 29.8849V25.3125H26.6406C26.9643 25.3125 27.2266 25.0502 27.2266 24.7266C27.2266 24.4029 26.9643 24.1406 26.6406 24.1406H7.10938C5.49391 24.1406 4.17969 22.8264 4.17969 21.2109V4.10156C4.17969 2.48609 5.49391 1.17188 7.10938 1.17188H32.8906C34.5061 1.17188 35.8203 2.48609 35.8203 4.10156V21.2109C35.8203 22.8264 34.5061 24.1406 32.8906 24.1406H29.375C29.0513 24.1406 28.7891 24.4029 28.7891 24.7266C28.7891 25.0502 29.0513 25.3125 29.375 25.3125H32.8906C35.1522 25.3125 36.9922 23.4725 36.9922 21.2109V4.10156C36.9922 1.84 35.1522 0 32.8906 0ZM19.2594 25.3125H20.7407V29.2395C20.5044 29.1754 20.2563 29.1406 20 29.1406C19.7437 29.1406 19.4956 29.1754 19.2594 29.2395V25.3125ZM18.3369 31.9756C18.3369 31.0586 19.083 30.3125 20 30.3125C20.917 30.3125 21.6631 31.0586 21.6631 31.9756V37.165C21.6631 38.082 20.917 38.8281 20 38.8281C19.083 38.8281 18.3369 38.082 18.3369 37.165V31.9756ZM23.2807 10.6978C21.6913 10.6978 20.3982 11.9909 20.3982 13.5803C20.3982 15.1698 21.6913 16.4629 23.2807 16.4629C24.8702 16.4629 26.1633 15.1698 26.1633 13.5803C26.1634 11.9909 24.8702 10.6978 23.2807 10.6978ZM23.2807 15.2911C22.3374 15.2911 21.5701 14.5237 21.5701 13.5804C21.5701 12.6371 22.3374 11.8698 23.2807 11.8698C24.224 11.8698 24.9914 12.6371 24.9914 13.5804C24.9914 14.5237 24.224 15.2911 23.2807 15.2911Z" fill="black"/>
</svg>
