<svg width="18" height="20" viewBox="0 0 18 20" fill="none" xmlns="http://www.w3.org/2000/svg">
<path d="M9.82054 0H8.17946C3.66926 0 0 3.90759 0 8.71074V9.06315V11.6777V13.414C0 13.6837 0.205238 13.9021 0.458326 13.9021H0.641656H1.14627V14.2458C1.14627 14.5155 1.35151 14.7339 1.6046 14.7339H2.43637C3.25869 14.7339 3.92767 14.0215 3.92767 13.1458V9.33131C3.92767 8.45557 3.25869 7.74314 2.43637 7.74314H1.6046C1.35151 7.74314 1.14627 7.96162 1.14627 8.23124V8.57506H0.919859C0.988333 4.37285 4.21742 0.976191 8.17946 0.976191H9.82054C13.7825 0.976191 17.0117 4.37285 17.0801 8.57515H16.8537V8.23124C16.8537 7.96162 16.6485 7.74314 16.3954 7.74314H15.5637C14.7414 7.74314 14.0724 8.45557 14.0724 9.33131V13.146C14.0724 14.0217 14.7414 14.7341 15.5637 14.7341H16.3954C16.5224 14.7341 16.6372 14.6791 16.7202 14.5902V15.6437C16.7202 17.0568 15.6407 18.2063 14.314 18.2063H11.5889C11.4069 17.7276 10.9665 17.3887 10.4526 17.3887H9.21509C8.53906 17.3887 7.98907 17.9744 7.98907 18.6943C7.98907 19.4143 8.53906 20 9.21509 20H10.4526C10.9665 20 11.4069 19.6611 11.5889 19.1824H14.314C16.1462 19.1824 17.6368 17.595 17.6368 15.6437V13.8915C17.8443 13.8448 18 13.649 18 13.4142V11.6779V9.06325V8.71084C18 3.90759 14.3307 0 9.82054 0Z" fill="#427D1E"/>
</svg>
