<svg width="16" height="16" viewBox="0 0 16 16" xmlns="http://www.w3.org/2000/svg">
	<path d="M12.2858 3.03637H5.45535L6.02772 1.63726C6.14947 1.3387 6.06041 0.997313 5.80896 0.795594C5.55719 0.594006 5.20289 0.582825 4.93804 0.766856L0.312994 3.97935C0.110392 4.12006 -0.00723917 4.35392 0.000345714 4.60036C0.00789791 4.84664 0.139653 5.07266 0.350493 5.20058L5.18668 8.13721C5.46186 8.30421 5.81374 8.27103 6.05243 8.05551C6.29149 7.84003 6.36063 7.48952 6.22306 7.19888L5.5874 5.85413H12.2858C12.7801 5.85413 13.1822 6.26397 13.1822 6.75823V11.6574C13.1822 12.1517 12.7801 12.5464 12.2858 12.5464H4.87292C4.21166 12.5464 3.67558 13.0824 3.67558 13.7437V14.1668C3.67558 14.8281 4.21166 15.3641 4.87292 15.3641H12.2858C14.3338 15.3641 15.9999 13.7055 15.9999 11.6574V6.75827C16 4.71012 14.3338 3.03637 12.2858 3.03637Z" fill="white"/>
</svg>
