<svg width="29" height="24" viewBox="0 0 29 24" fill="none" xmlns="http://www.w3.org/2000/svg">
<path d="M7.01986 20.2374V19.0843C7.01986 18.6423 6.7539 18.354 6.29797 18.354C6.07 18.354 5.82304 18.4309 5.65206 18.6807C5.51908 18.4693 5.32911 18.354 5.04415 18.354C4.85417 18.354 4.6642 18.4116 4.51223 18.623V18.3924H4.11328V20.2374H4.51223V19.2188C4.51223 18.8921 4.6832 18.7384 4.94916 18.7384C5.21512 18.7384 5.3481 18.9113 5.3481 19.2188V20.2374H5.74705V19.2188C5.74705 18.8921 5.93702 18.7384 6.18398 18.7384C6.44995 18.7384 6.58293 18.9113 6.58293 19.2188V20.2374H7.01986V20.2374ZM12.928 18.3924H12.2821V17.8351H11.8832V18.3924H11.5222V18.7576H11.8832V19.6032C11.8832 20.026 12.0541 20.2759 12.5101 20.2759C12.6811 20.2759 12.871 20.2182 13.004 20.1413L12.89 19.7954C12.776 19.8723 12.6431 19.8915 12.5481 19.8915C12.3581 19.8915 12.2821 19.7762 12.2821 19.584V18.7576H12.928V18.3924V18.3924ZM16.3095 18.354C16.0816 18.354 15.9296 18.4693 15.8346 18.623V18.3924H15.4357V20.2374H15.8346V19.1996C15.8346 18.8921 15.9676 18.7191 16.2145 18.7191C16.2905 18.7191 16.3855 18.7384 16.4615 18.7576L16.5755 18.3732C16.4995 18.354 16.3855 18.354 16.3095 18.354V18.354ZM11.1993 18.5462C11.0093 18.4116 10.7433 18.354 10.4584 18.354C10.0024 18.354 9.69848 18.5846 9.69848 18.9498C9.69848 19.2573 9.92645 19.4302 10.3254 19.4879L10.5154 19.5071C10.7243 19.5455 10.8383 19.6032 10.8383 19.6993C10.8383 19.8338 10.6863 19.9299 10.4204 19.9299C10.1544 19.9299 9.94545 19.8338 9.81247 19.7377L9.62249 20.0452C9.83146 20.199 10.1164 20.2759 10.4014 20.2759C10.9333 20.2759 11.2373 20.026 11.2373 19.6801C11.2373 19.3534 10.9903 19.1804 10.6103 19.1227L10.4204 19.1035C10.2494 19.0843 10.1164 19.0459 10.1164 18.9305C10.1164 18.796 10.2494 18.7191 10.4584 18.7191C10.6863 18.7191 10.9143 18.8152 11.0283 18.8729L11.1993 18.5462V18.5462ZM21.7998 18.354C21.5718 18.354 21.4198 18.4693 21.3248 18.623V18.3924H20.9259V20.2374H21.3248V19.1996C21.3248 18.8921 21.4578 18.7191 21.7048 18.7191C21.7808 18.7191 21.8757 18.7384 21.9517 18.7576L22.0657 18.3732C21.9897 18.354 21.8757 18.354 21.7998 18.354V18.354ZM16.7085 19.3149C16.7085 19.8723 17.0884 20.2759 17.6773 20.2759C17.9433 20.2759 18.1333 20.2182 18.3232 20.0645L18.1333 19.7377C17.9813 19.853 17.8293 19.9107 17.6583 19.9107C17.3354 19.9107 17.1074 19.6801 17.1074 19.3149C17.1074 18.969 17.3354 18.7384 17.6583 18.7191C17.8293 18.7191 17.9813 18.7768 18.1333 18.8921L18.3232 18.5654C18.1333 18.4116 17.9433 18.354 17.6773 18.354C17.0884 18.354 16.7085 18.7576 16.7085 19.3149V19.3149ZM20.3939 19.3149V18.3924H19.995V18.623C19.862 18.4501 19.6721 18.354 19.4251 18.354C18.9122 18.354 18.5132 18.7576 18.5132 19.3149C18.5132 19.8723 18.9122 20.2759 19.4251 20.2759C19.6911 20.2759 19.881 20.1798 19.995 20.0068V20.2374H20.3939V19.3149ZM18.9312 19.3149C18.9312 18.9882 19.1401 18.7191 19.4821 18.7191C19.805 18.7191 20.033 18.969 20.033 19.3149C20.033 19.6416 19.805 19.9107 19.4821 19.9107C19.1401 19.8915 18.9312 19.6416 18.9312 19.3149ZM14.1628 18.354C13.6309 18.354 13.251 18.7384 13.251 19.3149C13.251 19.8915 13.6309 20.2759 14.1818 20.2759C14.4478 20.2759 14.7138 20.199 14.9227 20.026L14.7328 19.7377C14.5808 19.853 14.3908 19.9299 14.2008 19.9299C13.9539 19.9299 13.7069 19.8146 13.6499 19.4879H14.9987V19.3341C15.0177 18.7384 14.6758 18.354 14.1628 18.354V18.354ZM14.1628 18.6999C14.4098 18.6999 14.5808 18.8537 14.6188 19.1419H13.6689C13.7069 18.8921 13.8779 18.6999 14.1628 18.6999ZM24.0604 19.3149V17.6621H23.6615V18.623C23.5285 18.4501 23.3385 18.354 23.0916 18.354C22.5786 18.354 22.1797 18.7576 22.1797 19.3149C22.1797 19.8723 22.5786 20.2759 23.0916 20.2759C23.3575 20.2759 23.5475 20.1798 23.6615 20.0068V20.2374H24.0604V19.3149ZM22.5976 19.3149C22.5976 18.9882 22.8066 18.7191 23.1486 18.7191C23.4715 18.7191 23.6995 18.969 23.6995 19.3149C23.6995 19.6416 23.4715 19.9107 23.1486 19.9107C22.8066 19.8915 22.5976 19.6416 22.5976 19.3149ZM9.26155 19.3149V18.3924H8.8626V18.623C8.72962 18.4501 8.53965 18.354 8.29268 18.354C7.77976 18.354 7.38081 18.7576 7.38081 19.3149C7.38081 19.8723 7.77976 20.2759 8.29268 20.2759C8.55864 20.2759 8.74862 20.1798 8.8626 20.0068V20.2374H9.26155V19.3149ZM7.77975 19.3149C7.77975 18.9882 7.98872 18.7191 8.33067 18.7191C8.65363 18.7191 8.8816 18.969 8.8816 19.3149C8.8816 19.6416 8.65363 19.9107 8.33067 19.9107C7.98872 19.8915 7.77975 19.6416 7.77975 19.3149Z" fill="black"/>
<path d="M17.0505 4.38184H11.0664V15.2597H17.0505V4.38184Z" fill="#FF5F00"/>
<path d="M11.446 9.82062C11.446 7.61046 12.4719 5.65015 14.0486 4.38171C12.8898 3.4592 11.427 2.90186 9.83123 2.90186C6.05076 2.90186 2.99219 5.99608 2.99219 9.82062C2.99219 13.6452 6.05076 16.7394 9.83123 16.7394C11.427 16.7394 12.8898 16.182 14.0486 15.2595C12.4719 14.0103 11.446 12.0308 11.446 9.82062Z" fill="#EB001B"/>
<path d="M25.1268 9.82062C25.1268 13.6452 22.0682 16.7394 18.2877 16.7394C16.6919 16.7394 15.2291 16.182 14.0703 15.2595C15.6661 13.9911 16.6729 12.0308 16.6729 9.82062C16.6729 7.61046 15.6471 5.65015 14.0703 4.38171C15.2291 3.4592 16.6919 2.90186 18.2877 2.90186C22.0682 2.90186 25.1268 6.0153 25.1268 9.82062Z" fill="#F79E1B"/>
</svg>
